0
SECTION
2
ENTITIES
0
ARC
8
PARAMETRIX
10
18.0000
20
0.0000
40
18.0000
50
180.0000
51
270.0000
0
ARC
8
PARAMETRIX
10
18.0000
20
-213.0000
40
195.0000
50
62.0867
51
90.0000
0
ARC
8
PARAMETRIX
10
111.1589
20
-37.1523
40
4.0000
50
242.0867
51
42.1036
0
ARC
8
PARAMETRIX
10
-145.3731
20
-268.9757
40
349.7611
50
42.1036
51
53.6905
0
ARC
8
PARAMETRIX
10
40.0000
20
-16.7087
40
36.7087
50
53.6905
51
90.0000
0
ARC
8
PARAMETRIX
10
40.0000
20
-52.3607
40
72.3607
50
90.0000
51
116.5651
0
ARC
8
PARAMETRIX
10
13.8197
20
-0.0000
40
13.8197
50
116.5651
51
180.0000
0
ARC
8
PARAMETRIX
10
17.4856
20
-98.5045
40
17.8333
50
168.6667
51
258.6667
0
ARC
8
PARAMETRIX
10
-31.0213
20
-340.5248
40
229.0000
50
54.5641
51
78.6667
0
ARC
8
PARAMETRIX
10
104.0703
20
-150.6846
40
4.0000
50
234.5641
51
40.2663
0
ARC
8
PARAMETRIX
10
-273.3539
20
-470.3823
40
498.6267
50
40.2663
51
48.7601
0
ARC
8
PARAMETRIX
10
28.2726
20
-126.3204
40
41.0712
50
48.7601
51
78.6667
0
ARC
8
PARAMETRIX
10
23.5462
20
-149.9022
40
65.1219
50
78.6667
51
103.8342
0
ARC
8
PARAMETRIX
10
10.5468
20
-97.1138
40
10.7565
50
103.8342
51
168.6667
0
ARC
8
PARAMETRIX
10
16.3021
20
-196.8082
40
17.6667
50
157.3333
51
247.3333
0
ARC
8
PARAMETRIX
10
-91.8582
20
-455.7968
40
263.0000
50
45.4752
51
67.3333
0
ARC
8
PARAMETRIX
10
95.3669
20
-265.4398
40
4.0000
50
225.4752
51
33.8241
0
ARC
8
PARAMETRIX
10
-427.3792
20
-615.7068
40
633.2459
50
33.8241
51
40.8820
0
ARC
8
PARAMETRIX
10
16.7381
20
-231.2447
40
45.8352
50
40.8820
51
67.3333
0
ARC
8
PARAMETRIX
10
10.3802
20
-246.4686
40
62.3333
50
67.3333
51
91.7487
0
ARC
8
PARAMETRIX
10
8.7680
20
-193.6617
40
9.5019
50
91.7487
51
157.3333
0
ARC
8
PARAMETRIX
10
14.5082
20
-294.7859
40
17.5000
50
146.0000
51
236.0000
0
ARC
8
PARAMETRIX
10
-161.3580
20
-555.5182
40
297.0000
50
35.3581
51
56.0000
0
ARC
8
PARAMETRIX
10
84.1229
20
-381.3341
40
4.0000
50
215.3581
51
25.8997
0
ARC
8
PARAMETRIX
10
-585.5157
20
-706.4891
40
748.4070
50
25.8997
51
32.2736
0
ARC
8
PARAMETRIX
10
0.9922
20
-336.0929
40
54.7320
50
32.2736
51
56.0000
0
ARC
8
PARAMETRIX
10
-2.1342
20
-340.7280
40
60.3230
50
56.0000
51
79.7427
0
ARC
8
PARAMETRIX
10
7.0856
20
-289.7793
40
8.5467
50
79.7427
51
146.0000
0
ARC
8
PARAMETRIX
10
12.1850
20
-392.3276
40
17.3333
50
134.6667
51
224.6667
0
ARC
8
PARAMETRIX
10
-235.5526
20
-637.1994
40
331.0000
50
24.5295
51
44.6667
0
ARC
8
PARAMETRIX
10
69.2129
20
-498.1203
40
4.0000
50
204.5295
51
16.9194
0
ARC
8
PARAMETRIX
10
-714.3222
20
-736.4665
40
822.9848
50
16.9194
51
23.1446
0
ARC
8
PARAMETRIX
10
-21.5745
20
-440.3466
40
69.6015
50
23.1446
51
44.6667
0
ARC
8
PARAMETRIX
10
-13.8538
20
-432.7152
40
58.7457
50
44.6667
51
67.7624
0
ARC
8
PARAMETRIX
10
5.4464
20
-385.5101
40
7.7476
50
67.7624
51
134.6667
0
ARC
8
PARAMETRIX
10
9.4332
20
-489.3425
40
17.1667
50
123.3333
51
213.3333
0
ARC
8
PARAMETRIX
10
-309.8624
20
-699.3466
40
365.0000
50
13.1882
51
33.3333
0
ARC
8
PARAMETRIX
10
49.4055
20
-615.1588
40
4.0000
50
193.1882
51
7.1061
0
ARC
8
PARAMETRIX
10
-794.2892
20
-720.3380
40
854.2256
50
7.1061
51
13.5649
0
ARC
8
PARAMETRIX
10
-53.3262
20
-541.5601
40
92.0001
50
13.5649
51
33.3333
0
ARC
8
PARAMETRIX
10
-24.4792
20
-522.5872
40
57.4730
50
33.3333
51
55.7861
0
ARC
8
PARAMETRIX
10
3.8734
20
-480.8892
40
7.0489
50
55.7861
51
123.3333
0
ENDSEC
0
EOF
