<svg width="144" height="713" viewBox="-15 -655 144 713" xmlns="http://www.w3.org/2000/svg"><path d="M 0.0000 -599.0962 A 18.0000 18.0000 0 0 0 18.0000 -581.0962 A 195.0000 195.0000 0 0 1 109.2864 -558.4093 A 4.0000 4.0000 0 0 0 114.1267 -564.6258 A 349.7611 349.7611 0 0 0 61.7370 -611.9685 A 36.7087 36.7087 0 0 0 40.0000 -619.0962 A 72.3607 72.3607 0 0 0 7.6393 -611.4569 A 13.8197 13.8197 0 0 0 0.0000 -599.0962 Z" stroke="green" stroke-width="1" fill="none" /><path d="M 0.0000 -504.0962 A 17.8333 17.8333 0 0 0 13.9810 -483.1061 A 229.0000 229.0000 0 0 1 101.7511 -445.1525 A 4.0000 4.0000 0 0 0 107.1225 -450.9970 A 498.6267 498.6267 0 0 0 55.3472 -503.6595 A 41.0712 41.0712 0 0 0 36.3438 -513.0461 A 65.1219 65.1219 0 0 0 7.9747 -512.4269 A 10.7565 10.7565 0 0 0 0.0000 -504.0962 Z" stroke="green" stroke-width="1" fill="none" /><path d="M 0.0000 -409.0962 A 17.6667 17.6667 0 0 0 9.4939 -385.9859 A 263.0000 263.0000 0 0 1 92.5620 -330.8046 A 4.0000 4.0000 0 0 0 98.6899 -335.8830 A 633.2459 633.2459 0 0 0 51.3923 -397.8508 A 45.8352 45.8352 0 0 0 34.4016 -410.1465 A 62.3333 62.3333 0 0 0 8.4781 -414.9320 A 9.5019 9.5019 0 0 0 0.0000 -409.0962 Z" stroke="green" stroke-width="1" fill="none" /><path d="M 0.0000 -314.0962 A 17.5000 17.5000 0 0 0 4.7223 -289.8022 A 297.0000 297.0000 0 0 1 80.8607 -215.4474 A 4.0000 4.0000 0 0 0 87.7212 -219.5093 A 748.4070 748.4070 0 0 0 47.2686 -292.2282 A 54.7320 54.7320 0 0 0 31.5980 -308.3782 A 60.3230 60.3230 0 0 0 8.6075 -317.7271 A 8.5467 8.5467 0 0 0 0.0000 -314.0962 Z" stroke="green" stroke-width="1" fill="none" /><path d="M 0.0000 -219.0962 A 17.3333 17.3333 0 0 0 -0.1426 -194.5836 A 331.0000 331.0000 0 0 1 65.5739 -99.3153 A 4.0000 4.0000 0 0 0 73.0397 -102.1401 A 822.9848 822.9848 0 0 0 42.4252 -186.1068 A 69.6015 69.6015 0 0 0 27.9267 -207.6782 A 58.7457 58.7457 0 0 0 8.3784 -220.7574 A 7.7476 7.7476 0 0 0 0.0000 -219.0962 Z" stroke="green" stroke-width="1" fill="none" /><path d="M 0.0000 -124.0962 A 17.1667 17.1667 0 0 0 -4.9093 -100.3205 A 365.0000 365.0000 0 0 1 45.5110 16.9752 A 4.0000 4.0000 0 0 0 53.3748 15.5677 A 854.2256 854.2256 0 0 0 36.1075 -79.1145 A 92.0001 92.0001 0 0 0 23.5387 -108.0910 A 57.4730 57.4730 0 0 0 7.8369 -124.0360 A 7.0489 7.0489 0 0 0 0.0000 -124.0962 Z" stroke="green" stroke-width="1" fill="none" /></svg>