<svg width="285" height="54" viewBox="-14 -3 285 54" xmlns="http://www.w3.org/2000/svg"><path d="M 0.0000 40.0000 L 0.0000 0.0000 L 10.0000 0.0000 L 20.0000 20.0000 L 30.0000 0.0000 L 40.0000 0.0000 L 50.0000 20.0000 L 60.0000 0.0000 L 70.0000 0.0000 L 80.0000 20.0000 L 90.0000 0.0000 L 100.0000 0.0000 L 110.0000 20.0000 L 120.0000 0.0000 L 130.0000 0.0000 L 140.0000 20.0000 L 150.0000 0.0000 L 160.0000 0.0000 L 170.0000 20.0000 L 180.0000 0.0000 L 190.0000 0.0000 L 200.0000 20.0000 L 210.0000 0.0000 L 220.0000 0.0000 L 230.0000 20.0000 L 240.0000 0.0000 L 250.0000 0.0000 L 250.0000 40.0000 L 0.0000 40.0000 Z" stroke="green" stroke-width="1" fill="none" /></svg>