<svg width="69" height="69" viewBox="-30 -30 69 69" xmlns="http://www.w3.org/2000/svg"><path d="M 20.5751 -1.7118 A 11.9952 11.9952 0 0 0 26.1734 -9.8296 A 2.0000 2.0000 0 0 0 22.8514 -11.6596 A 30.9139 30.9139 0 0 1 6.6224 -3.8533 A 2.0000 2.0000 0 1 1 3.8533 -6.6224 A 30.9139 30.9139 0 0 1 12.0886 -23.3082 L 13.4657 -23.6046 A 2.0000 2.0000 0 1 0 11.2043 -26.3424 A 11.9952 11.9952 0 0 0 1.7118 -20.5751 A 2.0000 2.0000 0 0 1 -1.7118 -20.5751 A 11.9952 11.9952 0 0 0 -9.8296 -26.1734 A 2.0000 2.0000 0 0 0 -11.6596 -22.8514 A 30.9139 30.9139 0 0 1 -3.8533 -6.6224 A 2.0000 2.0000 0 1 1 -6.6224 -3.8533 A 30.9139 30.9139 0 0 1 -23.3082 -12.0886 L -23.6046 -13.4657 A 2.0000 2.0000 0 1 0 -26.3424 -11.2043 A 11.9952 11.9952 0 0 0 -20.5751 -1.7118 A 2.0000 2.0000 0 0 1 -20.5751 1.7118 A 11.9952 11.9952 0 0 0 -26.1734 9.8296 A 2.0000 2.0000 0 0 0 -22.8514 11.6596 A 30.9139 30.9139 0 0 1 -6.6224 3.8533 A 2.0000 2.0000 0 1 1 -3.8533 6.6224 A 30.9139 30.9139 0 0 1 -12.0886 23.3082 L -13.4657 23.6046 A 2.0000 2.0000 0 1 0 -11.2043 26.3424 A 11.9952 11.9952 0 0 0 -1.7118 20.5751 A 2.0000 2.0000 0 0 1 1.7118 20.5751 A 11.9952 11.9952 0 0 0 9.8296 26.1734 A 2.0000 2.0000 0 0 0 11.6596 22.8514 A 30.9139 30.9139 0 0 1 3.8533 6.6224 A 2.0000 2.0000 0 1 1 6.6224 3.8533 A 30.9139 30.9139 0 0 1 23.3082 12.0886 L 23.6046 13.4657 A 2.0000 2.0000 0 1 0 26.3424 11.2043 A 11.9952 11.9952 0 0 0 20.5751 1.7118 A 2.0000 2.0000 0 0 1 20.5751 -1.7118 Z" stroke="green" stroke-width="1" fill="none" /></svg>