0
SECTION
2
ENTITIES
0
ARC
8
PARAMETRIX
10
14.3722
20
11.9788
40
11.9952
50
301.1385
51
349.6786
0
ARC
8
PARAMETRIX
10
24.2057
20
10.1880
40
2.0000
50
349.6786
51
132.6224
0
ARC
8
PARAMETRIX
10
1.9176
20
34.4070
40
30.9139
50
278.7538
51
312.6224
0
ARC
8
PARAMETRIX
10
4.9497
20
4.9497
40
2.0000
50
123.2462
51
326.7538
0
ARC
8
PARAMETRIX
10
34.4070
20
1.9176
40
30.9139
50
136.2161
51
171.2462
0
LINE
8
PARAMETRIX
10
12.0886
20
23.3082
11
13.4657
21
23.6046
0
ARC
8
PARAMETRIX
10
13.0448
20
25.5598
40
2.0000
50
282.1492
51
156.9651
0
ARC
8
PARAMETRIX
10
11.9788
20
14.3722
40
11.9952
50
93.7022
51
148.8615
0
ARC
8
PARAMETRIX
10
-0.0000
20
21.6093
40
2.0000
50
211.1385
51
328.8615
0
ARC
8
PARAMETRIX
10
-11.9788
20
14.3722
40
11.9952
50
31.1385
51
79.6786
0
ARC
8
PARAMETRIX
10
-10.1880
20
24.2057
40
2.0000
50
79.6786
51
222.6224
0
ARC
8
PARAMETRIX
10
-34.4070
20
1.9176
40
30.9139
50
8.7538
51
42.6224
0
ARC
8
PARAMETRIX
10
-4.9497
20
4.9497
40
2.0000
50
213.2462
51
56.7538
0
ARC
8
PARAMETRIX
10
-1.9176
20
34.4070
40
30.9139
50
226.2161
51
261.2462
0
LINE
8
PARAMETRIX
10
-23.3082
20
12.0886
11
-23.6046
21
13.4657
0
ARC
8
PARAMETRIX
10
-25.5598
20
13.0448
40
2.0000
50
12.1492
51
246.9651
0
ARC
8
PARAMETRIX
10
-14.3722
20
11.9788
40
11.9952
50
183.7022
51
238.8615
0
ARC
8
PARAMETRIX
10
-21.6093
20
0.0000
40
2.0000
50
301.1385
51
58.8615
0
ARC
8
PARAMETRIX
10
-14.3722
20
-11.9788
40
11.9952
50
121.1385
51
169.6786
0
ARC
8
PARAMETRIX
10
-24.2057
20
-10.1880
40
2.0000
50
169.6786
51
312.6224
0
ARC
8
PARAMETRIX
10
-1.9176
20
-34.4070
40
30.9139
50
98.7538
51
132.6224
0
ARC
8
PARAMETRIX
10
-4.9497
20
-4.9497
40
2.0000
50
303.2462
51
146.7538
0
ARC
8
PARAMETRIX
10
-34.4070
20
-1.9176
40
30.9139
50
316.2161
51
351.2462
0
LINE
8
PARAMETRIX
10
-12.0886
20
-23.3082
11
-13.4657
21
-23.6046
0
ARC
8
PARAMETRIX
10
-13.0448
20
-25.5598
40
2.0000
50
102.1492
51
336.9651
0
ARC
8
PARAMETRIX
10
-11.9788
20
-14.3722
40
11.9952
50
273.7022
51
328.8615
0
ARC
8
PARAMETRIX
10
-0.0000
20
-21.6093
40
2.0000
50
31.1385
51
148.8615
0
ARC
8
PARAMETRIX
10
11.9788
20
-14.3722
40
11.9952
50
211.1385
51
259.6786
0
ARC
8
PARAMETRIX
10
10.1880
20
-24.2057
40
2.0000
50
259.6786
51
42.6224
0
ARC
8
PARAMETRIX
10
34.4070
20
-1.9176
40
30.9139
50
188.7538
51
222.6224
0
ARC
8
PARAMETRIX
10
4.9497
20
-4.9497
40
2.0000
50
33.2462
51
236.7538
0
ARC
8
PARAMETRIX
10
1.9176
20
-34.4070
40
30.9139
50
46.2161
51
81.2462
0
LINE
8
PARAMETRIX
10
23.3082
20
-12.0886
11
23.6046
21
-13.4657
0
ARC
8
PARAMETRIX
10
25.5598
20
-13.0448
40
2.0000
50
192.1492
51
66.9651
0
ARC
8
PARAMETRIX
10
14.3722
20
-11.9788
40
11.9952
50
3.7022
51
58.8615
0
ARC
8
PARAMETRIX
10
21.6093
20
-0.0000
40
2.0000
50
121.1385
51
238.8615
0
ENDSEC
0
EOF
