<svg width="230" height="120" viewBox="-11 -6 230 120" xmlns="http://www.w3.org/2000/svg"><path d="M 0.0000 100.0000 L 190.0000 100.0000 A 10.0000 10.0000 0 0 0 200.0000 90.0000 L 200.0000 0.0000 L 10.0000 0.0000 A 10.0000 10.0000 0 0 0 0.0000 10.0000 L 0.0000 100.0000 Z" stroke="green" stroke-width="1" fill="none" /><path d="M 47.4755 80.0000 L 83.3333 80.0000 A 10.0000 10.0000 0 0 0 93.3333 70.0000 L 93.3333 34.1421 A 10.0000 10.0000 0 0 0 79.1912 20.0000 L 43.3333 20.0000 A 10.0000 10.0000 0 0 0 33.3333 30.0000 L 33.3333 65.8579 A 10.0000 10.0000 0 0 0 47.4755 80.0000 Z" stroke="green" stroke-width="1" fill="none" /><path d="M 126.6667 80.0000 L 166.6667 80.0000 L 146.6667 20.0000 L 126.6667 80.0000 Z" stroke="green" stroke-width="1" fill="none" /></svg>