<svg width="1000" height="626" viewBox="-50 -31 1000 626" xmlns="http://www.w3.org/2000/svg"><path d="M 0.0000 560.0000 L 890.0000 560.0000 A 10.0000 10.0000 0 0 0 900.0000 550.0000 L 900.0000 0.0000 L 10.0000 0.0000 A 10.0000 10.0000 0 0 0 0.0000 10.0000 L 0.0000 560.0000 Z" stroke="green" stroke-width="1" fill="none" /><path d="M 114.1421 430.0000 L 390.0000 430.0000 A 10.0000 10.0000 0 0 0 400.0000 420.0000 L 400.0000 144.1421 A 10.0000 10.0000 0 0 0 385.8579 130.0000 L 110.0000 130.0000 A 10.0000 10.0000 0 0 0 100.0000 140.0000 L 100.0000 415.8579 A 10.0000 10.0000 0 0 0 114.1421 430.0000 Z" stroke="green" stroke-width="1" fill="none" /><path d="M 500.0000 430.0000 L 800.0000 430.0000 L 650.0000 130.0000 L 500.0000 430.0000 Z" stroke="green" stroke-width="1" fill="none" /></svg>