<svg width="1000" height="1110" viewBox="-50 -55 1000 1110" xmlns="http://www.w3.org/2000/svg"><path d="M 0.0000 1000.0000 L 900.0000 1000.0000 L 900.0000 0.0000 L 0.0000 0.0000 L 0.0000 1000.0000 Z" stroke="green" stroke-width="1" fill="none" /><path d="M 100.0000 800.0000 L 200.0000 800.0000 L 159.7014 638.8057 A 10.0000 10.0000 0 0 0 140.2986 638.8057 L 100.0000 800.0000 Z" stroke="green" stroke-width="1" fill="none" /><path d="M 300.0000 800.0000 L 500.0000 800.0000 L 409.7014 438.8057 A 10.0000 10.0000 0 0 0 390.2986 438.8057 L 300.0000 800.0000 Z" stroke="green" stroke-width="1" fill="none" /><path d="M 600.0000 800.0000 L 800.0000 800.0000 L 719.4029 477.6114 A 20.0000 20.0000 0 0 0 680.5971 477.6114 L 600.0000 800.0000 Z" stroke="green" stroke-width="1" fill="none" /><path d="M 339.8638 330.5378 L 410.5745 259.8271 L 268.0975 174.3409 A 10.0000 10.0000 0 0 0 254.3776 188.0608 L 339.8638 330.5378 Z" stroke="green" stroke-width="1" fill="none" /><path d="M 598.4425 259.8271 L 669.1532 330.5378 L 754.6393 188.0608 A 10.0000 10.0000 0 0 0 740.9195 174.3409 L 598.4425 259.8271 Z" stroke="green" stroke-width="1" fill="none" /></svg>