solid OpenSCAD_Model
  facet normal 0 0 -1
    outer loop
      vertex 3.53553 3.53553 0
      vertex -3.53552 -3.25268 0
      vertex 3.25268 3.53552 0
    endloop
  endfacet
  facet normal 0 0 -1
    outer loop
      vertex -3.53553 -3.53553 0
      vertex -3.53552 -3.25268 0
      vertex 3.53553 3.53553 0
    endloop
  endfacet
  facet normal 0 0 -1
    outer loop
      vertex -3.53553 -3.53553 0
      vertex -13.8593 7.07107 0
      vertex -3.53552 -3.25268 0
    endloop
  endfacet
  facet normal -0 -0 -1
    outer loop
      vertex -13.8593 7.07107 0
      vertex -3.53553 -3.53553 0
      vertex -14.1421 7.07107 0
    endloop
  endfacet
  facet normal 0 0 -1
    outer loop
      vertex -7.07107 13.8593 0
      vertex 3.53553 3.53553 0
      vertex 3.25268 3.53552 0
    endloop
  endfacet
  facet normal 0 0 -1
    outer loop
      vertex -7.07107 13.8593 0
      vertex -7.07107 14.1421 0
      vertex 3.53553 3.53553 0
    endloop
  endfacet
  facet normal 0 0 -1
    outer loop
      vertex -13.8593 7.07107 0
      vertex -7.07107 14.1421 0
      vertex -7.07107 13.8593 0
    endloop
  endfacet
  facet normal 0 0 -1
    outer loop
      vertex -7.07107 14.1421 0
      vertex -13.8593 7.07107 0
      vertex -14.1421 7.07107 0
    endloop
  endfacet
  facet normal 0 0 1
    outer loop
      vertex -7.29746 13.9157 4
      vertex -13.7743 7.15602 4
      vertex -7.15602 13.7743 4
    endloop
  endfacet
  facet normal 0 -0 1
    outer loop
      vertex -13.7743 7.15602 4
      vertex -7.29746 13.9157 4
      vertex -13.9157 7.29746 4
    endloop
  endfacet
  facet normal 0 0 1
    outer loop
      vertex 3.16773 3.45057 4
      vertex -3.30915 -3.30915 4
      vertex 3.30915 3.30915 4
    endloop
  endfacet
  facet normal 0 -0 1
    outer loop
      vertex -3.30915 -3.30915 4
      vertex 3.16773 3.45057 4
      vertex -3.45057 -3.16773 4
    endloop
  endfacet
  facet normal -0.707122 0.707091 0
    outer loop
      vertex -7.07107 14.1421 0
      vertex -7.29746 13.9157 4
      vertex -7.07107 14.1421 3.74387
    endloop
  endfacet
  facet normal -0.707107 0.707107 1.76777e-06
    outer loop
      vertex -7.29746 13.9157 4
      vertex -7.07107 14.1421 0
      vertex -13.9157 7.29746 4
    endloop
  endfacet
  facet normal -0.707107 0.707107 1.76777e-06
    outer loop
      vertex -14.1421 7.07107 0
      vertex -13.9157 7.29746 4
      vertex -7.07107 14.1421 0
    endloop
  endfacet
  facet normal -0.707091 0.707122 0
    outer loop
      vertex -13.9157 7.29746 4
      vertex -14.1421 7.07107 0
      vertex -14.1421 7.07107 3.74387
    endloop
  endfacet
  facet normal -0.707108 -0.707105 0
    outer loop
      vertex -14.1421 7.07107 0
      vertex -4.61892 -2.45215 3.74387
      vertex -14.1421 7.07107 3.74387
    endloop
  endfacet
  facet normal -0.707108 -0.707106 -2.46746e-06
    outer loop
      vertex -3.53553 -3.53553 0
      vertex -4.61892 -2.45215 3.74387
      vertex -14.1421 7.07107 0
    endloop
  endfacet
  facet normal -0.707104 -0.70711 0
    outer loop
      vertex -4.61892 -2.45215 3.74387
      vertex -3.53553 -3.53553 0
      vertex -3.53553 -3.53553 3.74387
    endloop
  endfacet
  facet normal 0.707107 -0.707107 0
    outer loop
      vertex 3.30915 3.30915 4
      vertex 3.53553 3.53553 0
      vertex 3.53553 3.53553 3.74387
    endloop
  endfacet
  facet normal 0.707107 -0.707107 0
    outer loop
      vertex -3.30915 -3.30915 4
      vertex 3.53553 3.53553 0
      vertex 3.30915 3.30915 4
    endloop
  endfacet
  facet normal 0.707107 -0.707107 0
    outer loop
      vertex -3.53553 -3.53553 0
      vertex -3.30915 -3.30915 4
      vertex -3.53553 -3.53553 3.74387
    endloop
  endfacet
  facet normal 0.707107 -0.707107 0
    outer loop
      vertex -3.30915 -3.30915 4
      vertex -3.53553 -3.53553 0
      vertex 3.53553 3.53553 0
    endloop
  endfacet
  facet normal 0.70711 0.707104 0
    outer loop
      vertex -5.98768 13.0587 3.74387
      vertex -7.07107 14.1421 0
      vertex -7.07107 14.1421 3.74387
    endloop
  endfacet
  facet normal 0.707105 0.707108 -0
    outer loop
      vertex 3.53553 3.53553 0
      vertex -5.98768 13.0587 3.74387
      vertex 3.53553 3.53553 3.74387
    endloop
  endfacet
  facet normal 0.707106 0.707108 2.46746e-06
    outer loop
      vertex -5.98768 13.0587 3.74387
      vertex 3.53553 3.53553 0
      vertex -7.07107 14.1421 0
    endloop
  endfacet
  facet normal 0.707106 0.707108 0
    outer loop
      vertex -4.88673 -1.90148 3.90388
      vertex -13.8593 7.07107 0
      vertex -13.8593 7.07107 3.90388
    endloop
  endfacet
  facet normal 0.707104 0.707109 -0
    outer loop
      vertex -3.53552 -3.25268 0
      vertex -4.88673 -1.90148 3.90388
      vertex -3.53552 -3.25268 3.90388
    endloop
  endfacet
  facet normal 0.707106 0.707108 1.10009e-06
    outer loop
      vertex -4.88673 -1.90148 3.90388
      vertex -3.53552 -3.25268 0
      vertex -13.8593 7.07107 0
    endloop
  endfacet
  facet normal 0.707315 -0.706899 0
    outer loop
      vertex -7.15602 13.7743 4
      vertex -7.07107 13.8593 0
      vertex -7.07107 13.8593 3.90388
    endloop
  endfacet
  facet normal 0.707107 -0.707107 -8.83883e-06
    outer loop
      vertex -13.7743 7.15602 4
      vertex -7.07107 13.8593 0
      vertex -7.15602 13.7743 4
    endloop
  endfacet
  facet normal 0.706899 -0.707315 0
    outer loop
      vertex -13.8593 7.07107 0
      vertex -13.7743 7.15602 4
      vertex -13.8593 7.07107 3.90388
    endloop
  endfacet
  facet normal 0.707107 -0.707107 -8.83883e-06
    outer loop
      vertex -13.7743 7.15602 4
      vertex -13.8593 7.07107 0
      vertex -7.07107 13.8593 0
    endloop
  endfacet
  facet normal -0.707107 -0.707107 0
    outer loop
      vertex -7.07107 13.8593 0
      vertex -5.71987 12.5081 3.90388
      vertex -7.07107 13.8593 3.90388
    endloop
  endfacet
  facet normal -0.707108 -0.707106 7.11199e-07
    outer loop
      vertex 3.25268 3.53552 0
      vertex -5.71987 12.5081 3.90388
      vertex -7.07107 13.8593 0
    endloop
  endfacet
  facet normal -0.707108 -0.707106 0
    outer loop
      vertex -5.71987 12.5081 3.90388
      vertex 3.25268 3.53552 0
      vertex 3.25268 3.53552 3.90388
    endloop
  endfacet
  facet normal -0.707107 0.707107 0
    outer loop
      vertex 3.25268 3.53552 0
      vertex 3.16773 3.45057 4
      vertex 3.25268 3.53552 3.90388
    endloop
  endfacet
  facet normal -0.707107 0.707107 7.71014e-17
    outer loop
      vertex 3.25268 3.53552 0
      vertex -3.45057 -3.16773 4
      vertex 3.16773 3.45057 4
    endloop
  endfacet
  facet normal -0.707107 0.707107 7.80628e-17
    outer loop
      vertex -3.53552 -3.25268 0
      vertex -3.45057 -3.16773 4
      vertex 3.25268 3.53552 0
    endloop
  endfacet
  facet normal -0.707107 0.707107 0
    outer loop
      vertex -3.45057 -3.16773 4
      vertex -3.53552 -3.25268 0
      vertex -3.53552 -3.25268 3.90388
    endloop
  endfacet
  facet normal -0.707075 0.707139 5.46294e-05
    outer loop
      vertex -11.3137 11.3137 7.7439
      vertex -7.07107 15.5563 3.2
      vertex -7.15939 15.468 3.04379
    endloop
  endfacet
  facet normal -0.707104 0.707109 0
    outer loop
      vertex -11.3137 11.3137 7.7439
      vertex -11.3137 11.3137 8
      vertex -7.07107 15.5563 3.2
    endloop
  endfacet
  facet normal -0.707139 0.707075 5.46294e-05
    outer loop
      vertex -15.5563 7.07107 3.2
      vertex -11.3137 11.3137 7.7439
      vertex -15.468 7.15939 3.04379
    endloop
  endfacet
  facet normal -0.707109 0.707104 0
    outer loop
      vertex -11.3137 11.3137 7.7439
      vertex -15.5563 7.07107 3.2
      vertex -11.3137 11.3137 8
    endloop
  endfacet
  facet normal 0.707091 -0.707122 -2.78411e-05
    outer loop
      vertex 4.86142 3.44721 3.04379
      vertex 4.94975 3.53553 3.2
      vertex 0.707107 -0.707107 7.7439
    endloop
  endfacet
  facet normal 0.707122 -0.707091 -2.78411e-05
    outer loop
      vertex -3.44721 -4.86142 3.04379
      vertex 0.707107 -0.707107 7.7439
      vertex -3.53553 -4.94975 3.2
    endloop
  endfacet
  facet normal 0.707106 -0.707107 0
    outer loop
      vertex 0.707107 -0.707107 8
      vertex 0.707107 -0.707107 7.7439
      vertex 4.94975 3.53553 3.2
    endloop
  endfacet
  facet normal 0.707107 -0.707106 0
    outer loop
      vertex 0.707107 -0.707107 7.7439
      vertex 0.707107 -0.707107 8
      vertex -3.53553 -4.94975 3.2
    endloop
  endfacet
  facet normal 0.441725 0.441726 0.78087
    outer loop
      vertex -7.07107 15.5563 3.2
      vertex 3.53553 3.53553 4
      vertex 4.94975 3.53553 3.2
    endloop
  endfacet
  facet normal 0.441728 0.441729 0.780866
    outer loop
      vertex -7.07107 15.5563 3.2
      vertex -7.07107 14.1421 4
      vertex 3.53553 3.53553 4
    endloop
  endfacet
  facet normal 0.441726 0.441729 0.780867
    outer loop
      vertex -7.07107 14.1421 4
      vertex -7.07107 15.5563 3.2
      vertex -11.3137 11.3137 8
    endloop
  endfacet
  facet normal 0.441724 0.441728 0.780869
    outer loop
      vertex 3.53553 3.53553 4
      vertex 0.707107 -0.707107 8
      vertex 4.94975 3.53553 3.2
    endloop
  endfacet
  facet normal 0.441726 0.441727 0.780869
    outer loop
      vertex -7.07107 14.1421 4
      vertex 0.707107 -0.707107 8
      vertex 3.53553 3.53553 4
    endloop
  endfacet
  facet normal 0.441728 0.441728 0.780867
    outer loop
      vertex 0.707107 -0.707107 8
      vertex -7.07107 14.1421 4
      vertex -11.3137 11.3137 8
    endloop
  endfacet
  facet normal -0.441726 -0.441726 0.780868
    outer loop
      vertex -11.3137 11.3137 8
      vertex -3.53553 -3.53553 4
      vertex 0.707107 -0.707107 8
    endloop
  endfacet
  facet normal -0.441728 -0.441727 0.780867
    outer loop
      vertex -11.3137 11.3137 8
      vertex -14.1421 7.07107 4
      vertex -3.53553 -3.53553 4
    endloop
  endfacet
  facet normal -0.441729 -0.441726 0.780867
    outer loop
      vertex -15.5563 7.07107 3.2
      vertex -14.1421 7.07107 4
      vertex -11.3137 11.3137 8
    endloop
  endfacet
  facet normal -0.441728 -0.441724 0.780869
    outer loop
      vertex -3.53553 -3.53553 4
      vertex -3.53553 -4.94975 3.2
      vertex 0.707107 -0.707107 8
    endloop
  endfacet
  facet normal -0.441726 -0.441725 0.78087
    outer loop
      vertex -14.1421 7.07107 4
      vertex -3.53553 -4.94975 3.2
      vertex -3.53553 -3.53553 4
    endloop
  endfacet
  facet normal -0.441729 -0.441727 0.780867
    outer loop
      vertex -3.53553 -4.94975 3.2
      vertex -14.1421 7.07107 4
      vertex -15.5563 7.07107 3.2
    endloop
  endfacet
  facet normal -0.552295 -0.552292 -0.624455
    outer loop
      vertex -15.468 7.15939 3.04379
      vertex -3.53553 -4.94975 3.2
      vertex -15.5563 7.07107 3.2
    endloop
  endfacet
  facet normal -0.552257 -0.552256 -0.624519
    outer loop
      vertex -3.44721 -4.86142 3.04379
      vertex -3.53553 -4.94975 3.2
      vertex -15.468 7.15939 3.04379
    endloop
  endfacet
  facet normal 0.441731 0.44173 -0.780864
    outer loop
      vertex -15.468 7.15939 3.04379
      vertex -4.61892 -2.45215 3.74387
      vertex -3.44721 -4.86142 3.04379
    endloop
  endfacet
  facet normal 0.441726 0.441724 -0.78087
    outer loop
      vertex -4.61892 -2.45215 3.74387
      vertex -15.468 7.15939 3.04379
      vertex -14.1421 7.07107 3.74387
    endloop
  endfacet
  facet normal 0.441729 0.441728 -0.780866
    outer loop
      vertex -4.88673 -1.90148 3.90388
      vertex -13.7743 7.15602 4
      vertex -11.3137 11.3137 7.7439
    endloop
  endfacet
  facet normal 0.441675 0.441675 -0.780927
    outer loop
      vertex -13.7743 7.15602 4
      vertex -4.88673 -1.90148 3.90388
      vertex -13.8593 7.07107 3.90388
    endloop
  endfacet
  facet normal 0.441801 0.441676 -0.780855
    outer loop
      vertex -13.9157 7.29746 4
      vertex -11.3137 11.3137 7.7439
      vertex -13.7743 7.15602 4
    endloop
  endfacet
  facet normal 0.441729 0.441709 -0.780877
    outer loop
      vertex -15.468 7.15939 3.04379
      vertex -13.9157 7.29746 4
      vertex -14.1421 7.07107 3.74387
    endloop
  endfacet
  facet normal 0.441719 0.441739 -0.780866
    outer loop
      vertex -13.9157 7.29746 4
      vertex -15.468 7.15939 3.04379
      vertex -11.3137 11.3137 7.7439
    endloop
  endfacet
  facet normal 0.441724 0.441732 -0.780866
    outer loop
      vertex -3.44721 -4.86142 3.04379
      vertex -3.30915 -3.30915 4
      vertex 0.707107 -0.707107 7.7439
    endloop
  endfacet
  facet normal 0.44175 0.441724 -0.780857
    outer loop
      vertex -3.44721 -4.86142 3.04379
      vertex -3.53553 -3.53553 3.74387
      vertex -3.30915 -3.30915 4
    endloop
  endfacet
  facet normal 0.441724 0.441729 -0.780868
    outer loop
      vertex -3.53553 -3.53553 3.74387
      vertex -3.44721 -4.86142 3.04379
      vertex -4.61892 -2.45215 3.74387
    endloop
  endfacet
  facet normal 0.441728 0.441728 -0.780867
    outer loop
      vertex -3.45057 -3.16773 4
      vertex 0.707107 -0.707107 7.7439
      vertex -3.30915 -3.30915 4
    endloop
  endfacet
  facet normal 0.441753 0.441756 -0.780837
    outer loop
      vertex -4.88673 -1.90148 3.90388
      vertex -3.45057 -3.16773 4
      vertex -3.53552 -3.25268 3.90388
    endloop
  endfacet
  facet normal 0.441729 0.441727 -0.780867
    outer loop
      vertex -4.88673 -1.90148 3.90388
      vertex 0.707107 -0.707107 7.7439
      vertex -3.45057 -3.16773 4
    endloop
  endfacet
  facet normal 0.441728 0.441728 -0.780867
    outer loop
      vertex 0.707107 -0.707107 7.7439
      vertex -4.88673 -1.90148 3.90388
      vertex -11.3137 11.3137 7.7439
    endloop
  endfacet
  facet normal -0.441727 -0.441727 -0.780867
    outer loop
      vertex -11.3137 11.3137 7.7439
      vertex -5.71987 12.5081 3.90388
      vertex 0.707107 -0.707107 7.7439
    endloop
  endfacet
  facet normal -0.441675 -0.441675 -0.780927
    outer loop
      vertex -5.71987 12.5081 3.90388
      vertex -7.15602 13.7743 4
      vertex -7.07107 13.8593 3.90388
    endloop
  endfacet
  facet normal -0.441724 -0.441735 -0.780865
    outer loop
      vertex -5.71987 12.5081 3.90388
      vertex -11.3137 11.3137 7.7439
      vertex -7.15602 13.7743 4
    endloop
  endfacet
  facet normal -0.441676 -0.441801 -0.780855
    outer loop
      vertex -7.15602 13.7743 4
      vertex -11.3137 11.3137 7.7439
      vertex -7.29746 13.9157 4
    endloop
  endfacet
  facet normal -0.441729 -0.441725 -0.780868
    outer loop
      vertex -7.07107 14.1421 3.74387
      vertex -7.15939 15.468 3.04379
      vertex -5.98768 13.0587 3.74387
    endloop
  endfacet
  facet normal -0.441709 -0.441729 -0.780877
    outer loop
      vertex -7.29746 13.9157 4
      vertex -7.15939 15.468 3.04379
      vertex -7.07107 14.1421 3.74387
    endloop
  endfacet
  facet normal -0.441739 -0.441719 -0.780866
    outer loop
      vertex -7.15939 15.468 3.04379
      vertex -7.29746 13.9157 4
      vertex -11.3137 11.3137 7.7439
    endloop
  endfacet
  facet normal -0.441724 -0.44175 -0.780857
    outer loop
      vertex 4.86142 3.44721 3.04379
      vertex 3.30915 3.30915 4
      vertex 3.53553 3.53553 3.74387
    endloop
  endfacet
  facet normal -0.441728 -0.441728 -0.780867
    outer loop
      vertex 3.30915 3.30915 4
      vertex 0.707107 -0.707107 7.7439
      vertex 3.16773 3.45057 4
    endloop
  endfacet
  facet normal -0.441732 -0.441724 -0.780866
    outer loop
      vertex 0.707107 -0.707107 7.7439
      vertex 3.30915 3.30915 4
      vertex 4.86142 3.44721 3.04379
    endloop
  endfacet
  facet normal -0.441728 -0.441729 -0.780866
    outer loop
      vertex -5.98768 13.0587 3.74387
      vertex 4.86142 3.44721 3.04379
      vertex 3.53553 3.53553 3.74387
    endloop
  endfacet
  facet normal -0.441723 -0.441723 -0.780872
    outer loop
      vertex 4.86142 3.44721 3.04379
      vertex -5.98768 13.0587 3.74387
      vertex -7.15939 15.468 3.04379
    endloop
  endfacet
  facet normal -0.441755 -0.441754 -0.780837
    outer loop
      vertex 3.16773 3.45057 4
      vertex -5.71987 12.5081 3.90388
      vertex 3.25268 3.53552 3.90388
    endloop
  endfacet
  facet normal -0.441728 -0.441728 -0.780867
    outer loop
      vertex -5.71987 12.5081 3.90388
      vertex 3.16773 3.45057 4
      vertex 0.707107 -0.707107 7.7439
    endloop
  endfacet
  facet normal 0.552293 0.552294 -0.624455
    outer loop
      vertex -7.07107 15.5563 3.2
      vertex 4.86142 3.44721 3.04379
      vertex -7.15939 15.468 3.04379
    endloop
  endfacet
  facet normal 0.552256 0.552258 -0.624519
    outer loop
      vertex 4.94975 3.53553 3.2
      vertex 4.86142 3.44721 3.04379
      vertex -7.07107 15.5563 3.2
    endloop
  endfacet
endsolid OpenSCAD_Model
