0
SECTION
2
ENTITIES
0
ARC
8
PARAMETRIX
10
14.9977
20
-0.2618
40
15.0000
50
179.0000
51
269.0000
0
ARC
8
PARAMETRIX
10
12.1181
20
-165.2367
40
150.0000
50
43.1634
51
89.0000
0
ARC
8
PARAMETRIX
10
124.4466
20
-59.8882
40
4.0000
50
223.1634
51
29.1271
0
ARC
8
PARAMETRIX
10
-80.8308
20
-174.2715
40
238.9944
50
29.1271
51
48.5955
0
ARC
8
PARAMETRIX
10
39.3431
20
-37.9824
40
57.2900
50
48.5955
51
89.0000
0
ARC
8
PARAMETRIX
10
39.0801
20
-53.0508
40
72.3607
50
89.0000
51
115.5651
0
ARC
8
PARAMETRIX
10
13.8176
20
-0.2412
40
13.8197
50
115.5651
51
179.0000
0
ARC
8
PARAMETRIX
10
14.2579
20
-121.0971
40
14.3000
50
175.6000
51
265.6000
0
ARC
8
PARAMETRIX
10
-4.8682
20
-369.6623
40
235.0000
50
56.5376
51
85.6000
0
ARC
8
PARAMETRIX
10
126.9138
20
-170.2770
40
4.0000
50
236.5376
51
45.1955
0
ARC
8
PARAMETRIX
10
-157.7341
20
-456.8743
40
407.9337
50
45.1955
51
56.5957
0
ARC
8
PARAMETRIX
10
31.5212
20
-169.9003
40
64.1727
50
56.5957
51
85.6000
0
ARC
8
PARAMETRIX
10
31.3272
20
-172.4209
40
66.7007
50
85.6000
51
111.1281
0
ARC
8
PARAMETRIX
10
11.4094
20
-120.8779
40
11.4432
50
111.1281
51
175.6000
0
ARC
8
PARAMETRIX
10
13.4742
20
-241.8457
40
13.6000
50
172.2000
51
262.2000
0
ARC
8
PARAMETRIX
10
-31.8005
20
-572.3592
40
320.0000
50
61.2870
51
82.2000
0
ARC
8
PARAMETRIX
10
123.8561
20
-288.1991
40
4.0000
50
241.2870
51
50.7535
0
ARC
8
PARAMETRIX
10
-254.2466
20
-751.0318
40
601.6419
50
50.7535
51
58.4903
0
ARC
8
PARAMETRIX
10
26.2851
20
-293.4197
40
64.8860
50
58.4903
51
82.2000
0
ARC
8
PARAMETRIX
10
26.3422
20
-293.0028
40
64.4653
50
82.2000
51
107.2052
0
ARC
8
PARAMETRIX
10
10.3697
20
-241.4205
40
10.4666
50
107.2052
51
172.2000
0
ARC
8
PARAMETRIX
10
12.6543
20
-362.5056
40
12.9000
50
168.8000
51
258.8000
0
ARC
8
PARAMETRIX
10
-68.5162
20
-772.4468
40
405.0000
50
62.8421
51
78.8000
0
ARC
8
PARAMETRIX
10
118.1697
20
-408.5383
40
4.0000
50
242.8421
51
52.6792
0
ARC
8
PARAMETRIX
10
-371.9840
20
-1051.4739
40
812.4657
50
52.6792
51
58.3251
0
ARC
8
PARAMETRIX
10
21.8821
20
-413.1257
40
62.3864
50
58.3251
51
78.8000
0
ARC
8
PARAMETRIX
10
21.7999
20
-413.5408
40
62.8097
50
78.8000
51
103.3565
0
ARC
8
PARAMETRIX
10
9.5359
20
-361.8882
40
9.7210
50
103.3565
51
168.8000
0
ARC
8
PARAMETRIX
10
11.8061
20
-483.0752
40
12.2000
50
165.4000
51
255.4000
0
ARC
8
PARAMETRIX
10
-114.7832
20
-969.0588
40
490.0000
50
62.8651
51
75.4000
0
ARC
8
PARAMETRIX
10
110.5239
20
-529.4309
40
4.0000
50
242.8651
51
52.7539
0
ARC
8
PARAMETRIX
10
-507.7323
20
-1342.5941
40
1025.5063
50
52.7539
51
57.0726
0
ARC
8
PARAMETRIX
10
18.5054
20
-530.0074
40
57.4034
50
57.0726
51
75.4000
0
ARC
8
PARAMETRIX
10
17.4819
20
-533.9365
40
61.4636
50
75.4000
51
99.5411
0
ARC
8
PARAMETRIX
10
8.8017
20
-482.2927
40
9.0954
50
99.5411
51
165.4000
0
ARC
8
PARAMETRIX
10
10.9371
20
-603.5537
40
11.5000
50
162.0000
51
252.0000
0
ARC
8
PARAMETRIX
10
-170.3013
20
-1161.3483
40
575.0000
50
62.0355
51
72.0000
0
ARC
8
PARAMETRIX
10
101.2058
20
-649.9533
40
4.0000
50
242.0355
51
51.6589
0
ARC
8
PARAMETRIX
10
-646.0207
20
-1594.7125
40
1208.5403
50
51.6589
51
55.1083
0
ARC
8
PARAMETRIX
10
16.2682
20
-645.0505
40
50.7474
50
55.1083
51
72.0000
0
ARC
8
PARAMETRIX
10
13.3092
20
-654.1575
40
60.3230
50
72.0000
51
95.7427
0
ARC
8
PARAMETRIX
10
8.1284
20
-602.6411
40
8.5467
50
95.7427
51
162.0000
0
ARC
8
PARAMETRIX
10
10.0554
20
-723.9407
40
10.8000
50
158.6000
51
248.6000
0
ARC
8
PARAMETRIX
10
-234.7039
20
-1348.4929
40
660.0000
50
60.6828
51
68.6000
0
ARC
8
PARAMETRIX
10
90.4202
20
-769.5367
40
4.0000
50
240.6828
51
49.6447
0
ARC
8
PARAMETRIX
10
-747.1865
20
-1755.2799
40
1297.5512
50
49.6447
51
52.5698
0
ARC
8
PARAMETRIX
10
15.0314
20
-759.4269
40
43.4781
50
52.5698
51
68.6000
0
ARC
8
PARAMETRIX
10
9.2456
20
-774.1907
40
59.3351
50
68.6000
51
91.9531
0
ARC
8
PARAMETRIX
10
7.4977
20
-722.9383
40
8.0530
50
91.9531
51
158.6000
0
ARC
8
PARAMETRIX
10
9.1686
20
-844.2365
40
10.1000
50
155.2000
51
245.2000
0
ARC
8
PARAMETRIX
10
-307.5597
20
-1529.6992
40
745.0000
50
58.9859
51
65.2000
0
ARC
8
PARAMETRIX
10
78.3617
20
-887.7758
40
4.0000
50
238.9859
51
46.6846
0
ARC
8
PARAMETRIX
10
-739.5699
20
-1755.2776
40
1196.2967
50
46.6846
51
49.4411
0
ARC
8
PARAMETRIX
10
14.3513
20
-874.3836
40
36.8263
50
49.4411
51
65.2000
0
ARC
8
PARAMETRIX
10
5.2731
20
-894.0306
40
58.4694
50
65.2000
51
88.1673
0
ARC
8
PARAMETRIX
10
6.9000
20
-843.1882
40
7.6009
50
88.1673
51
155.2000
0
ARC
8
PARAMETRIX
10
8.2843
20
-964.4420
40
9.4000
50
151.8000
51
241.8000
0
ARC
8
PARAMETRIX
10
-388.3749
20
-1704.2081
40
830.0000
50
57.0507
51
61.8000
0
ARC
8
PARAMETRIX
10
65.2354
20
-1004.3555
40
4.0000
50
237.0507
51
42.3755
0
ARC
8
PARAMETRIX
10
-560.5606
20
-1575.2948
40
851.1083
50
42.3755
51
45.5095
0
ARC
8
PARAMETRIX
10
13.6705
20
-990.7601
40
31.7047
50
45.5095
51
61.8000
0
ARC
8
PARAMETRIX
10
1.3833
20
-1013.6757
40
57.7066
50
61.8000
51
84.3817
0
ARC
8
PARAMETRIX
10
6.3297
20
-963.3939
40
7.1822
50
84.3817
51
151.8000
0
ARC
8
PARAMETRIX
10
7.4100
20
-1084.5587
40
8.7000
50
148.4000
51
238.4000
0
ARC
8
PARAMETRIX
10
-476.5958
20
-1871.2988
40
915.0000
50
54.9435
51
58.4000
0
ARC
8
PARAMETRIX
10
51.2635
20
-1119.0186
40
4.0000
50
234.9435
51
35.2856
0
ARC
8
PARAMETRIX
10
-270.5420
20
-1346.7478
40
398.2327
50
35.2856
51
40.0900
0
ARC
8
PARAMETRIX
10
12.9761
20
-1108.0879
40
27.6371
50
40.0900
51
58.4000
0
ARC
8
PARAMETRIX
10
-2.4277
20
-1133.1264
40
57.0344
50
58.4000
51
80.5938
0
ARC
8
PARAMETRIX
10
5.7838
20
-1083.5582
40
6.7907
50
80.5938
51
148.4000
0
ENDSEC
0
EOF
