<svg width="154" height="1266" viewBox="-9 -1186 154 1266" xmlns="http://www.w3.org/2000/svg"><path d="M 0.0000 -1102.9941 A 15.0000 15.0000 0 0 0 14.7359 -1087.7346 A 150.0000 150.0000 0 0 1 121.5290 -1040.3696 A 4.0000 4.0000 0 0 0 127.9408 -1045.0529 A 238.9944 238.9944 0 0 0 77.2330 -1107.9825 A 57.2900 57.2900 0 0 0 40.3430 -1122.2929 A 72.3607 72.3607 0 0 0 7.8539 -1115.2195 A 13.8197 13.8197 0 0 0 0.0000 -1102.9941 Z" stroke="green" stroke-width="1" fill="none" /><path d="M 0.0000 -982.9941 A 14.3000 14.3000 0 0 0 13.1608 -967.6391 A 235.0000 235.0000 0 0 1 124.7083 -929.3800 A 4.0000 4.0000 0 0 0 129.7326 -935.5551 A 407.9337 407.9337 0 0 0 66.8510 -986.6655 A 64.1727 64.1727 0 0 0 36.4444 -997.0773 A 66.7007 66.7007 0 0 0 7.2847 -992.7901 A 11.4432 11.4432 0 0 0 0.0000 -982.9941 Z" stroke="green" stroke-width="1" fill="none" /><path d="M 0.0000 -862.9941 A 13.6000 13.6000 0 0 0 11.6284 -847.6742 A 320.0000 320.0000 0 0 1 121.9345 -811.2869 A 4.0000 4.0000 0 0 0 126.3868 -817.8927 A 601.6419 601.6419 0 0 0 60.1973 -864.8930 A 64.8860 64.8860 0 0 0 35.0911 -873.8600 A 64.4653 64.4653 0 0 0 7.2738 -871.5718 A 10.4666 10.4666 0 0 0 0.0000 -862.9941 Z" stroke="green" stroke-width="1" fill="none" /><path d="M 0.0000 -742.9941 A 12.9000 12.9000 0 0 0 10.1487 -727.8341 A 405.0000 405.0000 0 0 1 116.3439 -690.8967 A 4.0000 4.0000 0 0 0 120.5948 -697.6367 A 812.4657 812.4657 0 0 0 54.6411 -742.9618 A 62.3864 62.3864 0 0 0 33.9997 -751.0667 A 62.8097 62.8097 0 0 0 7.2902 -750.5640 A 9.7210 9.7210 0 0 0 0.0000 -742.9941 Z" stroke="green" stroke-width="1" fill="none" /><path d="M 0.0000 -622.9941 A 12.2000 12.2000 0 0 0 8.7308 -608.1128 A 490.0000 490.0000 0 0 1 108.6996 -570.0034 A 4.0000 4.0000 0 0 0 112.9449 -576.7474 A 1025.5063 1025.5063 0 0 0 49.7085 -621.1688 A 57.4034 57.4034 0 0 0 32.9750 -628.5365 A 61.4636 61.4636 0 0 0 7.2941 -629.6710 A 9.0954 9.0954 0 0 0 0.0000 -622.9941 Z" stroke="green" stroke-width="1" fill="none" /><path d="M 0.0000 -502.9941 A 11.5000 11.5000 0 0 0 7.3835 -488.5032 A 575.0000 575.0000 0 0 1 99.3301 -449.5078 A 4.0000 4.0000 0 0 0 103.6871 -456.1781 A 1208.5403 1208.5403 0 0 0 45.2971 -499.5683 A 50.7474 50.7474 0 0 0 31.9500 -506.2071 A 60.3230 60.3230 0 0 0 7.2732 -508.8568 A 8.5467 8.5467 0 0 0 0.0000 -502.9941 Z" stroke="green" stroke-width="1" fill="none" /><path d="M 0.0000 -382.9941 A 10.8000 10.8000 0 0 0 6.1147 -368.9980 A 660.0000 660.0000 0 0 1 88.4616 -329.9697 A 4.0000 4.0000 0 0 0 93.0103 -336.5056 A 1297.5512 1297.5512 0 0 0 41.4571 -378.0929 A 43.4781 43.4781 0 0 0 30.8956 -384.0477 A 59.3351 59.3351 0 0 0 7.2233 -388.1040 A 8.0530 8.0530 0 0 0 0.0000 -382.9941 Z" stroke="green" stroke-width="1" fill="none" /><path d="M 0.0000 -262.9941 A 10.1000 10.1000 0 0 0 4.9321 -249.5890 A 745.0000 745.0000 0 0 1 76.3007 -211.7901 A 4.0000 4.0000 0 0 0 81.1058 -218.1286 A 1196.2967 1196.2967 0 0 0 38.2969 -256.5889 A 36.8263 36.8263 0 0 0 29.7982 -262.0406 A 58.4694 58.4694 0 0 0 7.1430 -267.4029 A 7.6009 7.6009 0 0 0 0.0000 -262.9941 Z" stroke="green" stroke-width="1" fill="none" /><path d="M 0.0000 -142.9941 A 9.4000 9.4000 0 0 0 3.8423 -130.2678 A 830.0000 830.0000 0 0 1 63.0598 -95.2820 A 4.0000 4.0000 0 0 0 68.1904 -101.3345 A 851.1083 851.1083 0 0 0 35.8889 -134.8510 A 31.7047 31.7047 0 0 0 28.6526 -140.1754 A 57.7066 57.7066 0 0 0 7.0328 -146.7478 A 7.1822 7.1822 0 0 0 0.0000 -142.9941 Z" stroke="green" stroke-width="1" fill="none" /><path d="M 0.0000 -22.9941 A 8.7000 8.7000 0 0 0 2.8513 -11.0254 A 915.0000 915.0000 0 0 1 48.9660 19.2989 A 4.0000 4.0000 0 0 0 54.5286 13.7139 A 398.2327 398.2327 0 0 0 34.1194 -12.7042 A 27.6371 27.6371 0 0 0 27.4575 -18.4454 A 57.0344 57.0344 0 0 0 6.8936 -26.1352 A 6.7907 6.7907 0 0 0 0.0000 -22.9941 Z" stroke="green" stroke-width="1" fill="none" /></svg>