<svg width="67" height="67" viewBox="-29 -29 67 67" xmlns="http://www.w3.org/2000/svg"><path d="M 15.0000 0.0000 A 15.8990 15.8990 0 0 0 25.9808 -15.0000 A 27.9676 27.9676 0 0 1 3.5355 -3.5355 A 27.9676 27.9676 0 0 1 15.0000 -25.9808 A 15.8990 15.8990 0 0 0 0.0000 -15.0000 A 100.0000 100.0000 0 0 0 -15.0000 -25.9808 A 100.0000 100.0000 0 0 1 -3.5355 -3.5355 A 100.0000 100.0000 0 0 1 -25.9808 -15.0000 A 100.0000 100.0000 0 0 0 -15.0000 0.0000 A 11.9952 11.9952 0 0 0 -25.9808 15.0000 A 30.9139 30.9139 0 0 1 -3.5355 3.5355 A 30.9139 30.9139 0 0 1 -15.0000 25.9808 A 11.9952 11.9952 0 0 0 0.0000 15.0000 A 100.0000 100.0000 0 0 0 15.0000 25.9808 A 100.0000 100.0000 0 0 1 3.5355 3.5355 A 100.0000 100.0000 0 0 1 25.9808 15.0000 A 100.0000 100.0000 0 0 0 15.0000 0.0000 Z" stroke="green" stroke-width="1" fill="none" /></svg>