solid OpenSCAD_Model
  facet normal 0 0 -1
    outer loop
      vertex 28.2843 -10 0
      vertex 3.53549 -3.53549 0
      vertex 15 0 0
    endloop
  endfacet
  facet normal 0 0 -1
    outer loop
      vertex 15 0 0
      vertex 3.53549 3.53549 0
      vertex 28.2843 10 0
    endloop
  endfacet
  facet normal -0 -0 -1
    outer loop
      vertex 3.53549 3.53549 0
      vertex 3.53549 -3.53549 0
      vertex -3.53549 3.53549 0
    endloop
  endfacet
  facet normal -0 0 -1
    outer loop
      vertex 15 0 0
      vertex 3.53549 -3.53549 0
      vertex 3.53549 3.53549 0
    endloop
  endfacet
  facet normal 0 0 -1
    outer loop
      vertex 3.53549 3.53549 0
      vertex -3.53549 3.53549 0
      vertex 0 15 0
    endloop
  endfacet
  facet normal 0 0 -1
    outer loop
      vertex 10 28.2843 0
      vertex 3.53549 3.53549 0
      vertex 0 15 0
    endloop
  endfacet
  facet normal -0 0 -1
    outer loop
      vertex 0 15 0
      vertex -3.53549 3.53549 0
      vertex -10 28.2843 0
    endloop
  endfacet
  facet normal 0 0 -1
    outer loop
      vertex -15 0 0
      vertex -28.2843 10 0
      vertex -3.53549 3.53549 0
    endloop
  endfacet
  facet normal -0 0 -1
    outer loop
      vertex 0 -15 0
      vertex -10 -28.2843 0
      vertex -3.53549 -3.53549 0
    endloop
  endfacet
  facet normal 0 0 -1
    outer loop
      vertex -3.53549 -3.53549 0
      vertex -15 0 0
      vertex -3.53549 3.53549 0
    endloop
  endfacet
  facet normal 0 -0 -1
    outer loop
      vertex 3.53549 -3.53549 0
      vertex 10 -28.2843 0
      vertex 0 -15 0
    endloop
  endfacet
  facet normal 0 0 -1
    outer loop
      vertex 3.53549 -3.53549 0
      vertex -3.53549 -3.53549 0
      vertex -3.53549 3.53549 0
    endloop
  endfacet
  facet normal -0 0 -1
    outer loop
      vertex -3.53549 -3.53549 0
      vertex -28.2843 -10 0
      vertex -15 0 0
    endloop
  endfacet
  facet normal -0 0 -1
    outer loop
      vertex 3.53549 -3.53549 0
      vertex 0 -15 0
      vertex -3.53549 -3.53549 0
    endloop
  endfacet
  facet normal 0 0 1
    outer loop
      vertex 15 0 1
      vertex 3.53549 -3.53549 1
      vertex 28.2843 -10 1
    endloop
  endfacet
  facet normal 0 0 1
    outer loop
      vertex 28.2843 10 1
      vertex 3.53549 3.53549 1
      vertex 15 0 1
    endloop
  endfacet
  facet normal -0 0 1
    outer loop
      vertex -3.53549 3.53549 1
      vertex 3.53549 -3.53549 1
      vertex 3.53549 3.53549 1
    endloop
  endfacet
  facet normal 0 0 1
    outer loop
      vertex 3.53549 3.53549 1
      vertex 3.53549 -3.53549 1
      vertex 15 0 1
    endloop
  endfacet
  facet normal 0 0 1
    outer loop
      vertex 0 15 1
      vertex -3.53549 3.53549 1
      vertex 3.53549 3.53549 1
    endloop
  endfacet
  facet normal -0 0 1
    outer loop
      vertex 0 15 1
      vertex 3.53549 3.53549 1
      vertex 10 28.2843 1
    endloop
  endfacet
  facet normal 0 0 1
    outer loop
      vertex -10 28.2843 1
      vertex -3.53549 3.53549 1
      vertex 0 15 1
    endloop
  endfacet
  facet normal 0 0 1
    outer loop
      vertex -3.53549 3.53549 1
      vertex -28.2843 10 1
      vertex -15 0 1
    endloop
  endfacet
  facet normal 0 0 1
    outer loop
      vertex -3.53549 -3.53549 1
      vertex -10 -28.2843 1
      vertex 0 -15 1
    endloop
  endfacet
  facet normal 0 0 1
    outer loop
      vertex -3.53549 3.53549 1
      vertex -15 0 1
      vertex -3.53549 -3.53549 1
    endloop
  endfacet
  facet normal -0 0 1
    outer loop
      vertex 0 -15 1
      vertex 10 -28.2843 1
      vertex 3.53549 -3.53549 1
    endloop
  endfacet
  facet normal 0 0 1
    outer loop
      vertex -3.53549 3.53549 1
      vertex -3.53549 -3.53549 1
      vertex 3.53549 -3.53549 1
    endloop
  endfacet
  facet normal 0 0 1
    outer loop
      vertex -15 0 1
      vertex -28.2843 -10 1
      vertex -3.53549 -3.53549 1
    endloop
  endfacet
  facet normal -0 0 1
    outer loop
      vertex -3.53549 -3.53549 1
      vertex 0 -15 1
      vertex 3.53549 -3.53549 1
    endloop
  endfacet
  facet normal -0.252726 -0.967538 0
    outer loop
      vertex 28.2843 -10 0
      vertex 3.53549 -3.53549 1
      vertex 3.53549 -3.53549 0
    endloop
  endfacet
  facet normal -0.252726 -0.967538 0
    outer loop
      vertex 28.2843 -10 0
      vertex 28.2843 -10 1
      vertex 3.53549 -3.53549 1
    endloop
  endfacet
  facet normal 0.601415 0.798937 0
    outer loop
      vertex 15 0 0
      vertex 28.2843 -10 1
      vertex 28.2843 -10 0
    endloop
  endfacet
  facet normal 0.601415 0.798937 -0
    outer loop
      vertex 15 0 0
      vertex 15 0 1
      vertex 28.2843 -10 1
    endloop
  endfacet
  facet normal 0.601415 -0.798937 0
    outer loop
      vertex 28.2843 10 0
      vertex 15 0 1
      vertex 15 0 0
    endloop
  endfacet
  facet normal 0.601415 -0.798937 0
    outer loop
      vertex 28.2843 10 0
      vertex 28.2843 10 1
      vertex 15 0 1
    endloop
  endfacet
  facet normal -0.252726 0.967538 0
    outer loop
      vertex 3.53549 3.53549 0
      vertex 28.2843 10 1
      vertex 28.2843 10 0
    endloop
  endfacet
  facet normal -0.252726 0.967538 0
    outer loop
      vertex 3.53549 3.53549 0
      vertex 3.53549 3.53549 1
      vertex 28.2843 10 1
    endloop
  endfacet
  facet normal 0.967538 -0.252726 0
    outer loop
      vertex 10 28.2843 0
      vertex 3.53549 3.53549 1
      vertex 3.53549 3.53549 0
    endloop
  endfacet
  facet normal 0.967538 -0.252726 0
    outer loop
      vertex 10 28.2843 0
      vertex 10 28.2843 1
      vertex 3.53549 3.53549 1
    endloop
  endfacet
  facet normal -0.798937 0.601415 0
    outer loop
      vertex 0 15 0
      vertex 10 28.2843 1
      vertex 10 28.2843 0
    endloop
  endfacet
  facet normal -0.798937 0.601415 0
    outer loop
      vertex 0 15 0
      vertex 0 15 1
      vertex 10 28.2843 1
    endloop
  endfacet
  facet normal 0.798937 0.601415 0
    outer loop
      vertex -10 28.2843 0
      vertex 0 15 1
      vertex 0 15 0
    endloop
  endfacet
  facet normal 0.798937 0.601415 -0
    outer loop
      vertex -10 28.2843 0
      vertex -10 28.2843 1
      vertex 0 15 1
    endloop
  endfacet
  facet normal -0.967538 -0.252726 0
    outer loop
      vertex -3.53549 3.53549 0
      vertex -10 28.2843 1
      vertex -10 28.2843 0
    endloop
  endfacet
  facet normal -0.967538 -0.252726 0
    outer loop
      vertex -3.53549 3.53549 0
      vertex -3.53549 3.53549 1
      vertex -10 28.2843 1
    endloop
  endfacet
  facet normal 0.252726 0.967538 0
    outer loop
      vertex -28.2843 10 0
      vertex -3.53549 3.53549 1
      vertex -3.53549 3.53549 0
    endloop
  endfacet
  facet normal 0.252726 0.967538 -0
    outer loop
      vertex -28.2843 10 0
      vertex -28.2843 10 1
      vertex -3.53549 3.53549 1
    endloop
  endfacet
  facet normal -0.601415 -0.798937 0
    outer loop
      vertex -15 0 0
      vertex -28.2843 10 1
      vertex -28.2843 10 0
    endloop
  endfacet
  facet normal -0.601415 -0.798937 0
    outer loop
      vertex -15 0 0
      vertex -15 0 1
      vertex -28.2843 10 1
    endloop
  endfacet
  facet normal -0.601415 0.798937 0
    outer loop
      vertex -28.2843 -10 0
      vertex -15 0 1
      vertex -15 0 0
    endloop
  endfacet
  facet normal -0.601415 0.798937 0
    outer loop
      vertex -28.2843 -10 0
      vertex -28.2843 -10 1
      vertex -15 0 1
    endloop
  endfacet
  facet normal 0.252726 -0.967538 0
    outer loop
      vertex -3.53549 -3.53549 0
      vertex -28.2843 -10 1
      vertex -28.2843 -10 0
    endloop
  endfacet
  facet normal 0.252726 -0.967538 0
    outer loop
      vertex -3.53549 -3.53549 0
      vertex -3.53549 -3.53549 1
      vertex -28.2843 -10 1
    endloop
  endfacet
  facet normal -0.967538 0.252726 0
    outer loop
      vertex -10 -28.2843 0
      vertex -3.53549 -3.53549 1
      vertex -3.53549 -3.53549 0
    endloop
  endfacet
  facet normal -0.967538 0.252726 0
    outer loop
      vertex -10 -28.2843 0
      vertex -10 -28.2843 1
      vertex -3.53549 -3.53549 1
    endloop
  endfacet
  facet normal 0.798937 -0.601415 0
    outer loop
      vertex 0 -15 0
      vertex -10 -28.2843 1
      vertex -10 -28.2843 0
    endloop
  endfacet
  facet normal 0.798937 -0.601415 0
    outer loop
      vertex 0 -15 0
      vertex 0 -15 1
      vertex -10 -28.2843 1
    endloop
  endfacet
  facet normal -0.798937 -0.601415 0
    outer loop
      vertex 10 -28.2843 0
      vertex 0 -15 1
      vertex 0 -15 0
    endloop
  endfacet
  facet normal -0.798937 -0.601415 0
    outer loop
      vertex 10 -28.2843 0
      vertex 10 -28.2843 1
      vertex 0 -15 1
    endloop
  endfacet
  facet normal 0.967538 0.252726 0
    outer loop
      vertex 3.53549 -3.53549 0
      vertex 10 -28.2843 1
      vertex 10 -28.2843 0
    endloop
  endfacet
  facet normal 0.967538 0.252726 -0
    outer loop
      vertex 3.53549 -3.53549 0
      vertex 3.53549 -3.53549 1
      vertex 10 -28.2843 1
    endloop
  endfacet
endsolid OpenSCAD_Model
