<svg width="69" height="69" viewBox="-31 -31 69 69" xmlns="http://www.w3.org/2000/svg"><path d="M 22.0000 -1.3571 A 8.8681 8.8681 0 0 0 24.7992 -14.3571 A 7.3920 7.3920 0 0 1 10.9602 -12.3173 A 7.3920 7.3920 0 0 1 13.0000 -26.1563 A 8.8681 8.8681 0 0 0 0.0000 -23.3571 A 76.0000 76.0000 0 0 0 -13.0000 -26.1563 A 79.0000 79.0000 0 0 1 -10.9602 -12.3173 A 79.0000 79.0000 0 0 1 -24.7992 -14.3571 A 76.0000 76.0000 0 0 0 -22.0000 -1.3571 A 7.2313 7.2313 0 0 0 -24.7992 11.6429 A 47.9644 47.9644 0 0 1 -10.9602 9.6030 A 47.9644 47.9644 0 0 1 -13.0000 23.4421 A 7.2313 7.2313 0 0 0 0.0000 20.6429 A 76.0000 76.0000 0 0 0 13.0000 23.4421 A 79.0000 79.0000 0 0 1 10.9602 9.6030 A 79.0000 79.0000 0 0 1 24.7992 11.6429 A 76.0000 76.0000 0 0 0 22.0000 -1.3571 Z" stroke="green" stroke-width="1" fill="none" /></svg>