solid OpenSCAD_Model
  facet normal 0 0 -1
    outer loop
      vertex 0 -22 0
      vertex 10.9602 -10.9602 0
      vertex 11.0805 -12.7068 0
    endloop
  endfacet
  facet normal 0 0 -1
    outer loop
      vertex -11.7604 -19.6854 0
      vertex -1.93399 -25.6819 0
      vertex -3.0094 -26.5844 0
    endloop
  endfacet
  facet normal 0 0 -1
    outer loop
      vertex -1.0533 -24.5885 0
      vertex -11.7604 -19.6854 0
      vertex -0.400391 -23.3456 0
    endloop
  endfacet
  facet normal 0 0 -1
    outer loop
      vertex -11.7604 -19.6854 0
      vertex 0 -22 0
      vertex -0.400391 -23.3456 0
    endloop
  endfacet
  facet normal 0 0 -1
    outer loop
      vertex 0 -22 0
      vertex -11.7604 -19.6854 0
      vertex -11.4729 -17.9544 0
    endloop
  endfacet
  facet normal 0 -0 -1
    outer loop
      vertex -11.2488 -16.2141 0
      vertex 0 -22 0
      vertex -11.4729 -17.9544 0
    endloop
  endfacet
  facet normal -0 0 -1
    outer loop
      vertex -1.0533 -24.5885 0
      vertex -1.93399 -25.6819 0
      vertex -11.7604 -19.6854 0
    endloop
  endfacet
  facet normal -0 0 -1
    outer loop
      vertex 26.1184 5.06139 0
      vertex 25.4681 3.5253 0
      vertex 21.8484 8.3465 0
    endloop
  endfacet
  facet normal 0 0 -1
    outer loop
      vertex 7.3696 -23.8788 0
      vertex 11.9477 -19.6541 0
      vertex 9.23859 -24.2326 0
    endloop
  endfacet
  facet normal 0 0 -1
    outer loop
      vertex 9.23859 -24.2326 0
      vertex 11.9477 -19.6541 0
      vertex 12.2604 -21.3768 0
    endloop
  endfacet
  facet normal 0 0 -1
    outer loop
      vertex 11.1157 -24.5394 0
      vertex 9.23859 -24.2326 0
      vertex 12.2604 -21.3768 0
    endloop
  endfacet
  facet normal -0 0 -1
    outer loop
      vertex 12.6112 -23.0921 0
      vertex 11.1157 -24.5394 0
      vertex 12.2604 -21.3768 0
    endloop
  endfacet
  facet normal 0 0 -1
    outer loop
      vertex 13 -24.7992 0
      vertex 11.1157 -24.5394 0
      vertex 12.6112 -23.0921 0
    endloop
  endfacet
  facet normal 0 -0 -1
    outer loop
      vertex 11.6732 -17.9249 0
      vertex 11.9477 -19.6541 0
      vertex 7.3696 -23.8788 0
    endloop
  endfacet
  facet normal 0 0 -1
    outer loop
      vertex 5.51019 -23.4785 0
      vertex 11.6732 -17.9249 0
      vertex 7.3696 -23.8788 0
    endloop
  endfacet
  facet normal 0 0 -1
    outer loop
      vertex 26.2356 10.0053 0
      vertex 23.7736 10.388 0
      vertex 25.6589 11.5705 0
    endloop
  endfacet
  facet normal 0 0 -1
    outer loop
      vertex 5.51019 -23.4785 0
      vertex 11.4371 -16.1901 0
      vertex 11.6732 -17.9249 0
    endloop
  endfacet
  facet normal 0 0 -1
    outer loop
      vertex 5.51019 -23.4785 0
      vertex 3.66129 -23.0317 0
      vertex 11.4371 -16.1901 0
    endloop
  endfacet
  facet normal 0 0 -1
    outer loop
      vertex 11.4371 -16.1901 0
      vertex 3.66129 -23.0317 0
      vertex 1.82419 -22.5387 0
    endloop
  endfacet
  facet normal 0 -0 -1
    outer loop
      vertex 11.2395 -14.4504 0
      vertex 11.4371 -16.1901 0
      vertex 1.82419 -22.5387 0
    endloop
  endfacet
  facet normal 0 0 -1
    outer loop
      vertex 0 -22 0
      vertex 11.2395 -14.4504 0
      vertex 1.82419 -22.5387 0
    endloop
  endfacet
  facet normal 0 0 -1
    outer loop
      vertex 0 -22 0
      vertex 11.0805 -12.7068 0
      vertex 11.2395 -14.4504 0
    endloop
  endfacet
  facet normal 0 0 -1
    outer loop
      vertex 16.1901 -11.4371 0
      vertex 23.4785 -5.51019 0
      vertex 17.9249 -11.6732 0
    endloop
  endfacet
  facet normal 0 0 -1
    outer loop
      vertex 17.9249 -11.6732 0
      vertex 23.4785 -5.51019 0
      vertex 23.8788 -7.3696 0
    endloop
  endfacet
  facet normal 0 0 -1
    outer loop
      vertex 19.6541 -11.9477 0
      vertex 17.9249 -11.6732 0
      vertex 23.8788 -7.3696 0
    endloop
  endfacet
  facet normal -0 0 -1
    outer loop
      vertex 24.2326 -9.23859 0
      vertex 19.6541 -11.9477 0
      vertex 23.8788 -7.3696 0
    endloop
  endfacet
  facet normal 0 0 -1
    outer loop
      vertex 24.2326 -9.23859 0
      vertex 21.3768 -12.2604 0
      vertex 19.6541 -11.9477 0
    endloop
  endfacet
  facet normal 0 -0 -1
    outer loop
      vertex 24.2326 -9.23859 0
      vertex 24.5394 -11.1157 0
      vertex 21.3768 -12.2604 0
    endloop
  endfacet
  facet normal 0 0 -1
    outer loop
      vertex 21.3768 -12.2604 0
      vertex 24.5394 -11.1157 0
      vertex 23.0921 -12.6112 0
    endloop
  endfacet
  facet normal 0 -0 -1
    outer loop
      vertex 23.7736 10.388 0
      vertex 26.5091 8.35979 0
      vertex 22.9088 9.27509 0
    endloop
  endfacet
  facet normal 0 0 -1
    outer loop
      vertex 23.0921 -12.6112 0
      vertex 24.5394 -11.1157 0
      vertex 24.7992 -13 0
    endloop
  endfacet
  facet normal 0 0 -1
    outer loop
      vertex 0.94899 23.3718 0
      vertex 2.1382 24.5416 0
      vertex 7.63609 20.6311 0
    endloop
  endfacet
  facet normal 0 0 -1
    outer loop
      vertex 16.1901 -11.4371 0
      vertex 23.0317 -3.66129 0
      vertex 23.4785 -5.51019 0
    endloop
  endfacet
  facet normal 0 0 -1
    outer loop
      vertex 16.1901 -11.4371 0
      vertex 22.5387 -1.82419 0
      vertex 23.0317 -3.66129 0
    endloop
  endfacet
  facet normal 0 0 -1
    outer loop
      vertex 16.1901 -11.4371 0
      vertex 14.4504 -11.2395 0
      vertex 22.5387 -1.82419 0
    endloop
  endfacet
  facet normal -0 0 -1
    outer loop
      vertex 22.5387 -1.82419 0
      vertex 14.4504 -11.2395 0
      vertex 22 0 0
    endloop
  endfacet
  facet normal 0 0 -1
    outer loop
      vertex 22 0 0
      vertex 14.4504 -11.2395 0
      vertex 12.7068 -11.0805 0
    endloop
  endfacet
  facet normal -0 -0 -1
    outer loop
      vertex 16.4986 7.02689 0
      vertex 22 0 0
      vertex 15.1281 7.3559 0
    endloop
  endfacet
  facet normal 0 0 -1
    outer loop
      vertex 21.8484 8.3465 0
      vertex 26.4695 6.69209 0
      vertex 26.1184 5.06139 0
    endloop
  endfacet
  facet normal 0 0 -1
    outer loop
      vertex 22.9088 9.27509 0
      vertex 26.5091 8.35979 0
      vertex 26.4695 6.69209 0
    endloop
  endfacet
  facet normal -0 -0 -1
    outer loop
      vertex 26.2356 10.0053 0
      vertex 26.5091 8.35979 0
      vertex 23.7736 10.388 0
    endloop
  endfacet
  facet normal 0 -0 -1
    outer loop
      vertex 24.4115 11.6449 0
      vertex 25.6589 11.5705 0
      vertex 23.7736 10.388 0
    endloop
  endfacet
  facet normal 0 0 -1
    outer loop
      vertex 24.4115 11.6449 0
      vertex 24.7992 13 0
      vertex 25.6589 11.5705 0
    endloop
  endfacet
  facet normal 0 0 -1
    outer loop
      vertex 26.4695 6.69209 0
      vertex 21.8484 8.3465 0
      vertex 22.9088 9.27509 0
    endloop
  endfacet
  facet normal 0 0 -1
    outer loop
      vertex 19.3011 7.16959 0
      vertex 20.6311 7.63609 0
      vertex 23.3718 0.94899 0
    endloop
  endfacet
  facet normal 0 0 -1
    outer loop
      vertex 22 0 0
      vertex 19.3011 7.16959 0
      vertex 23.3718 0.94899 0
    endloop
  endfacet
  facet normal 0 -0 -1
    outer loop
      vertex 21.8484 8.3465 0
      vertex 25.4681 3.5253 0
      vertex 20.6311 7.63609 0
    endloop
  endfacet
  facet normal 0 0 -1
    outer loop
      vertex 20.6311 7.63609 0
      vertex 25.4681 3.5253 0
      vertex 24.5416 2.1382 0
    endloop
  endfacet
  facet normal 0 0 -1
    outer loop
      vertex 23.3718 0.94899 0
      vertex 20.6311 7.63609 0
      vertex 24.5416 2.1382 0
    endloop
  endfacet
  facet normal 0 0 -1
    outer loop
      vertex 17.9067 6.9641 0
      vertex 19.3011 7.16959 0
      vertex 22 0 0
    endloop
  endfacet
  facet normal 0 0 -1
    outer loop
      vertex 16.4986 7.02689 0
      vertex 17.9067 6.9641 0
      vertex 22 0 0
    endloop
  endfacet
  facet normal 0 0 -1
    outer loop
      vertex 12.7068 -11.0805 0
      vertex 15.1281 7.3559 0
      vertex 22 0 0
    endloop
  endfacet
  facet normal 0 0 -1
    outer loop
      vertex 7.63609 20.6311 0
      vertex 3.5253 25.4681 0
      vertex 8.3465 21.8484 0
    endloop
  endfacet
  facet normal 0 0 -1
    outer loop
      vertex 12.7068 -11.0805 0
      vertex 10.9602 -10.9602 0
      vertex 15.1281 7.3559 0
    endloop
  endfacet
  facet normal -0 0 -1
    outer loop
      vertex 15.1281 7.3559 0
      vertex 10.9602 -10.9602 0
      vertex 13.8449 7.93909 0
    endloop
  endfacet
  facet normal -0 0 -1
    outer loop
      vertex 13.8449 7.93909 0
      vertex 10.9602 -10.9602 0
      vertex 12.6957 8.75519 0
    endloop
  endfacet
  facet normal -0 0 -1
    outer loop
      vertex 12.6957 8.75519 0
      vertex 10.9602 -10.9602 0
      vertex 11.7224 9.7746 0
    endloop
  endfacet
  facet normal 0 0 -1
    outer loop
      vertex 11.7224 9.7746 0
      vertex 9.7746 11.7224 0
      vertex 10.9602 10.9602 0
    endloop
  endfacet
  facet normal -0 0 -1
    outer loop
      vertex 11.7224 9.7746 0
      vertex -10.9602 -10.9602 0
      vertex 9.7746 11.7224 0
    endloop
  endfacet
  facet normal 0 -0 -1
    outer loop
      vertex 7.3559 15.1281 0
      vertex 7.93909 13.8449 0
      vertex -10.9602 10.9602 0
    endloop
  endfacet
  facet normal -0 0 -1
    outer loop
      vertex 0 22 0
      vertex -11.2395 14.4504 0
      vertex -1.82419 22.5387 0
    endloop
  endfacet
  facet normal -0 0 -1
    outer loop
      vertex -1.82419 22.5387 0
      vertex -11.4371 16.1901 0
      vertex -3.66129 23.0317 0
    endloop
  endfacet
  facet normal 0 0 -1
    outer loop
      vertex 7.3559 15.1281 0
      vertex 0 22 0
      vertex 7.02689 16.4986 0
    endloop
  endfacet
  facet normal 0 0 -1
    outer loop
      vertex 7.02689 16.4986 0
      vertex 0 22 0
      vertex 6.9641 17.9067 0
    endloop
  endfacet
  facet normal 0 0 -1
    outer loop
      vertex 0 22 0
      vertex 0.94899 23.3718 0
      vertex 7.16959 19.3011 0
    endloop
  endfacet
  facet normal 0 0 -1
    outer loop
      vertex 8.3465 21.8484 0
      vertex 3.5253 25.4681 0
      vertex 5.06139 26.1184 0
    endloop
  endfacet
  facet normal 0 -0 -1
    outer loop
      vertex 6.69209 26.4695 0
      vertex 8.3465 21.8484 0
      vertex 5.06139 26.1184 0
    endloop
  endfacet
  facet normal 0 -0 -1
    outer loop
      vertex 8.35979 26.5091 0
      vertex 9.27509 22.9088 0
      vertex 6.69209 26.4695 0
    endloop
  endfacet
  facet normal -0 -0 -1
    outer loop
      vertex 10.0053 26.2356 0
      vertex 10.388 23.7736 0
      vertex 8.35979 26.5091 0
    endloop
  endfacet
  facet normal 0 0 -1
    outer loop
      vertex 10.0053 26.2356 0
      vertex 11.5705 25.6589 0
      vertex 10.388 23.7736 0
    endloop
  endfacet
  facet normal 0 0 -1
    outer loop
      vertex 10.388 23.7736 0
      vertex 11.5705 25.6589 0
      vertex 11.6449 24.4115 0
    endloop
  endfacet
  facet normal 0 0 -1
    outer loop
      vertex -19.6541 11.9477 0
      vertex -23.8788 7.3696 0
      vertex -24.2326 9.23859 0
    endloop
  endfacet
  facet normal 0 0 -1
    outer loop
      vertex 11.6449 24.4115 0
      vertex 11.5705 25.6589 0
      vertex 13 24.7992 0
    endloop
  endfacet
  facet normal 0 0 -1
    outer loop
      vertex 8.35979 26.5091 0
      vertex 10.388 23.7736 0
      vertex 9.27509 22.9088 0
    endloop
  endfacet
  facet normal 0 0 -1
    outer loop
      vertex 6.69209 26.4695 0
      vertex 9.27509 22.9088 0
      vertex 8.3465 21.8484 0
    endloop
  endfacet
  facet normal 0 0 -1
    outer loop
      vertex 7.63609 20.6311 0
      vertex 2.1382 24.5416 0
      vertex 3.5253 25.4681 0
    endloop
  endfacet
  facet normal 0 0 -1
    outer loop
      vertex 7.16959 19.3011 0
      vertex 0.94899 23.3718 0
      vertex 7.63609 20.6311 0
    endloop
  endfacet
  facet normal 0 0 -1
    outer loop
      vertex 6.9641 17.9067 0
      vertex 0 22 0
      vertex 7.16959 19.3011 0
    endloop
  endfacet
  facet normal -0 0 -1
    outer loop
      vertex -3.66129 23.0317 0
      vertex -11.4371 16.1901 0
      vertex -5.51019 23.4785 0
    endloop
  endfacet
  facet normal 0 0 -1
    outer loop
      vertex -5.51019 23.4785 0
      vertex -11.4371 16.1901 0
      vertex -11.6732 17.9249 0
    endloop
  endfacet
  facet normal 0 -0 -1
    outer loop
      vertex -7.3696 23.8788 0
      vertex -5.51019 23.4785 0
      vertex -11.6732 17.9249 0
    endloop
  endfacet
  facet normal 0 -0 -1
    outer loop
      vertex -9.23859 24.2326 0
      vertex -7.3696 23.8788 0
      vertex -11.9477 19.6541 0
    endloop
  endfacet
  facet normal 0 0 -1
    outer loop
      vertex -12.2604 21.3768 0
      vertex -9.23859 24.2326 0
      vertex -11.9477 19.6541 0
    endloop
  endfacet
  facet normal 0 0 -1
    outer loop
      vertex -11.9477 19.6541 0
      vertex -7.3696 23.8788 0
      vertex -11.6732 17.9249 0
    endloop
  endfacet
  facet normal -0 0 -1
    outer loop
      vertex -9.23859 24.2326 0
      vertex -12.2604 21.3768 0
      vertex -11.1157 24.5394 0
    endloop
  endfacet
  facet normal 0 0 -1
    outer loop
      vertex -11.1157 24.5394 0
      vertex -12.2604 21.3768 0
      vertex -12.6112 23.0921 0
    endloop
  endfacet
  facet normal 0 0 -1
    outer loop
      vertex -13 24.7992 0
      vertex -11.1157 24.5394 0
      vertex -12.6112 23.0921 0
    endloop
  endfacet
  facet normal 0 0 -1
    outer loop
      vertex -1.82419 22.5387 0
      vertex -11.2395 14.4504 0
      vertex -11.4371 16.1901 0
    endloop
  endfacet
  facet normal 0 0 -1
    outer loop
      vertex 0 22 0
      vertex -11.0805 12.7068 0
      vertex -11.2395 14.4504 0
    endloop
  endfacet
  facet normal 0 -0 -1
    outer loop
      vertex 0 22 0
      vertex 7.3559 15.1281 0
      vertex -11.0805 12.7068 0
    endloop
  endfacet
  facet normal 0 0 -1
    outer loop
      vertex -11.0805 12.7068 0
      vertex 7.3559 15.1281 0
      vertex -10.9602 10.9602 0
    endloop
  endfacet
  facet normal 0 0 -1
    outer loop
      vertex -10.9602 10.9602 0
      vertex 7.93909 13.8449 0
      vertex 8.75519 12.6957 0
    endloop
  endfacet
  facet normal 0 0 -1
    outer loop
      vertex 9.7746 11.7224 0
      vertex -10.9602 -10.9602 0
      vertex -10.9602 10.9602 0
    endloop
  endfacet
  facet normal -0 0 -1
    outer loop
      vertex 9.7746 11.7224 0
      vertex -10.9602 10.9602 0
      vertex 8.75519 12.6957 0
    endloop
  endfacet
  facet normal 0 0 -1
    outer loop
      vertex 11.7224 9.7746 0
      vertex 10.9602 -10.9602 0
      vertex -10.9602 -10.9602 0
    endloop
  endfacet
  facet normal 0 0 -1
    outer loop
      vertex -23.0317 3.66129 0
      vertex -16.1901 11.4371 0
      vertex -22.5387 1.82419 0
    endloop
  endfacet
  facet normal 0 0 -1
    outer loop
      vertex -23.0317 3.66129 0
      vertex -23.4785 5.51019 0
      vertex -16.1901 11.4371 0
    endloop
  endfacet
  facet normal 0 -0 -1
    outer loop
      vertex -21.3768 12.2604 0
      vertex -19.6541 11.9477 0
      vertex -24.2326 9.23859 0
    endloop
  endfacet
  facet normal -0 0 -1
    outer loop
      vertex -16.1901 11.4371 0
      vertex -23.4785 5.51019 0
      vertex -17.9249 11.6732 0
    endloop
  endfacet
  facet normal 0 0 -1
    outer loop
      vertex -17.9249 11.6732 0
      vertex -23.4785 5.51019 0
      vertex -23.8788 7.3696 0
    endloop
  endfacet
  facet normal 0 0 -1
    outer loop
      vertex -24.5394 11.1157 0
      vertex -21.3768 12.2604 0
      vertex -24.2326 9.23859 0
    endloop
  endfacet
  facet normal 0 0 -1
    outer loop
      vertex -24.5394 11.1157 0
      vertex -23.0921 12.6112 0
      vertex -21.3768 12.2604 0
    endloop
  endfacet
  facet normal 0 0 -1
    outer loop
      vertex -24.5394 11.1157 0
      vertex -24.7992 13 0
      vertex -23.0921 12.6112 0
    endloop
  endfacet
  facet normal 0 -0 -1
    outer loop
      vertex -19.6541 11.9477 0
      vertex -17.9249 11.6732 0
      vertex -23.8788 7.3696 0
    endloop
  endfacet
  facet normal 0 0 -1
    outer loop
      vertex -22.5387 1.82419 0
      vertex -16.1901 11.4371 0
      vertex -14.4504 11.2395 0
    endloop
  endfacet
  facet normal 0 0 -1
    outer loop
      vertex -22 0 0
      vertex -22.5387 1.82419 0
      vertex -14.4504 11.2395 0
    endloop
  endfacet
  facet normal -0 0 -1
    outer loop
      vertex -12.7068 11.0805 0
      vertex -22 0 0
      vertex -14.4504 11.2395 0
    endloop
  endfacet
  facet normal 0 -0 -1
    outer loop
      vertex -12.7068 11.0805 0
      vertex -10.9602 10.9602 0
      vertex -22 0 0
    endloop
  endfacet
  facet normal 0 -0 -1
    outer loop
      vertex -22 0 0
      vertex -19.6854 -11.7604 0
      vertex -23.3456 -0.400391 0
    endloop
  endfacet
  facet normal 0 0 -1
    outer loop
      vertex -23.1101 -12.5245 0
      vertex -26.7249 -10.9747 0
      vertex -27.3588 -9.72198 0
    endloop
  endfacet
  facet normal 0 0 -1
    outer loop
      vertex -19.6854 -11.7604 0
      vertex -26.5844 -3.0094 0
      vertex -25.6819 -1.93399 0
    endloop
  endfacet
  facet normal 0 0 -1
    outer loop
      vertex -21.4048 -12.1112 0
      vertex -27.2621 -4.239 0
      vertex -26.5844 -3.0094 0
    endloop
  endfacet
  facet normal 0 0 -1
    outer loop
      vertex -21.4048 -12.1112 0
      vertex -27.6895 -5.57629 0
      vertex -27.2621 -4.239 0
    endloop
  endfacet
  facet normal 0 0 -1
    outer loop
      vertex -21.4048 -12.1112 0
      vertex -27.8504 -6.97099 0
      vertex -27.6895 -5.57629 0
    endloop
  endfacet
  facet normal 0 0 -1
    outer loop
      vertex -21.4048 -12.1112 0
      vertex -27.7388 -8.3705 0
      vertex -27.8504 -6.97099 0
    endloop
  endfacet
  facet normal 0 0 -1
    outer loop
      vertex -23.1101 -12.5245 0
      vertex -27.3588 -9.72198 0
      vertex -21.4048 -12.1112 0
    endloop
  endfacet
  facet normal 0 0 -1
    outer loop
      vertex -21.4048 -12.1112 0
      vertex -27.3588 -9.72198 0
      vertex -27.7388 -8.3705 0
    endloop
  endfacet
  facet normal 0 0 -1
    outer loop
      vertex -23.1101 -12.5245 0
      vertex -25.8608 -12.0813 0
      vertex -26.7249 -10.9747 0
    endloop
  endfacet
  facet normal -0 0 -1
    outer loop
      vertex -23.1101 -12.5245 0
      vertex -24.7992 -13 0
      vertex -25.8608 -12.0813 0
    endloop
  endfacet
  facet normal 0 0 -1
    outer loop
      vertex -21.4048 -12.1112 0
      vertex -26.5844 -3.0094 0
      vertex -19.6854 -11.7604 0
    endloop
  endfacet
  facet normal 0 0 -1
    outer loop
      vertex -19.6854 -11.7604 0
      vertex -25.6819 -1.93399 0
      vertex -24.5885 -1.0533 0
    endloop
  endfacet
  facet normal 0 0 -1
    outer loop
      vertex -10.9923 -12.7146 0
      vertex -10.9602 -10.9602 0
      vertex 0 -22 0
    endloop
  endfacet
  facet normal 0 -0 -1
    outer loop
      vertex -23.3456 -0.400391 0
      vertex -19.6854 -11.7604 0
      vertex -24.5885 -1.0533 0
    endloop
  endfacet
  facet normal 0 0 -1
    outer loop
      vertex -10.9602 -10.9602 0
      vertex 10.9602 -10.9602 0
      vertex 0 -22 0
    endloop
  endfacet
  facet normal -0 0 -1
    outer loop
      vertex -17.9544 -11.4729 0
      vertex -19.6854 -11.7604 0
      vertex -22 0 0
    endloop
  endfacet
  facet normal 0 -0 -1
    outer loop
      vertex -11.7604 -19.6854 0
      vertex -3.0094 -26.5844 0
      vertex -12.1112 -21.4048 0
    endloop
  endfacet
  facet normal -0 0 -1
    outer loop
      vertex -16.2141 -11.2488 0
      vertex -17.9544 -11.4729 0
      vertex -22 0 0
    endloop
  endfacet
  facet normal -0 0 -1
    outer loop
      vertex -14.4667 -11.0885 0
      vertex -16.2141 -11.2488 0
      vertex -22 0 0
    endloop
  endfacet
  facet normal 0 0 -1
    outer loop
      vertex 0 -22 0
      vertex -11.2488 -16.2141 0
      vertex -11.0885 -14.4667 0
    endloop
  endfacet
  facet normal -0 0 -1
    outer loop
      vertex -12.7146 -10.9923 0
      vertex -14.4667 -11.0885 0
      vertex -22 0 0
    endloop
  endfacet
  facet normal -0 0 -1
    outer loop
      vertex -10.9602 -10.9602 0
      vertex -12.7146 -10.9923 0
      vertex -22 0 0
    endloop
  endfacet
  facet normal 0 -0 -1
    outer loop
      vertex -10.9602 10.9602 0
      vertex -10.9602 -10.9602 0
      vertex -22 0 0
    endloop
  endfacet
  facet normal 0 0 -1
    outer loop
      vertex 0 -22 0
      vertex -11.0885 -14.4667 0
      vertex -10.9923 -12.7146 0
    endloop
  endfacet
  facet normal 0 0 -1
    outer loop
      vertex -4.239 -27.2621 0
      vertex -12.1112 -21.4048 0
      vertex -3.0094 -26.5844 0
    endloop
  endfacet
  facet normal -0 0 -1
    outer loop
      vertex -4.239 -27.2621 0
      vertex -5.57629 -27.6895 0
      vertex -12.1112 -21.4048 0
    endloop
  endfacet
  facet normal 0 0 -1
    outer loop
      vertex -12.1112 -21.4048 0
      vertex -5.57629 -27.6895 0
      vertex -6.97099 -27.8504 0
    endloop
  endfacet
  facet normal 0 0 -1
    outer loop
      vertex -12.5245 -23.1101 0
      vertex -9.72198 -27.3588 0
      vertex -10.9747 -26.7249 0
    endloop
  endfacet
  facet normal 0 0 -1
    outer loop
      vertex -12.0813 -25.8608 0
      vertex -13 -24.7992 0
      vertex -12.5245 -23.1101 0
    endloop
  endfacet
  facet normal 0 0 -1
    outer loop
      vertex -10.9747 -26.7249 0
      vertex -12.0813 -25.8608 0
      vertex -12.5245 -23.1101 0
    endloop
  endfacet
  facet normal 0 0 -1
    outer loop
      vertex -9.72198 -27.3588 0
      vertex -12.5245 -23.1101 0
      vertex -12.1112 -21.4048 0
    endloop
  endfacet
  facet normal 0 0 -1
    outer loop
      vertex -8.3705 -27.7388 0
      vertex -9.72198 -27.3588 0
      vertex -12.1112 -21.4048 0
    endloop
  endfacet
  facet normal 0 0 -1
    outer loop
      vertex -6.97099 -27.8504 0
      vertex -8.3705 -27.7388 0
      vertex -12.1112 -21.4048 0
    endloop
  endfacet
  facet normal 0 0 1
    outer loop
      vertex 11.0805 -12.7068 1
      vertex 10.9602 -10.9602 1
      vertex 0 -22 1
    endloop
  endfacet
  facet normal 0 -0 1
    outer loop
      vertex -3.0094 -26.5844 1
      vertex -1.93399 -25.6819 1
      vertex -11.7604 -19.6854 1
    endloop
  endfacet
  facet normal 0 0 1
    outer loop
      vertex -0.400391 -23.3456 1
      vertex -11.7604 -19.6854 1
      vertex -1.0533 -24.5885 1
    endloop
  endfacet
  facet normal 0 -0 1
    outer loop
      vertex -0.400391 -23.3456 1
      vertex 0 -22 1
      vertex -11.7604 -19.6854 1
    endloop
  endfacet
  facet normal 0 0 1
    outer loop
      vertex -11.4729 -17.9544 1
      vertex -11.7604 -19.6854 1
      vertex 0 -22 1
    endloop
  endfacet
  facet normal -0 0 1
    outer loop
      vertex -11.4729 -17.9544 1
      vertex 0 -22 1
      vertex -11.2488 -16.2141 1
    endloop
  endfacet
  facet normal 0 0 1
    outer loop
      vertex -11.7604 -19.6854 1
      vertex -1.93399 -25.6819 1
      vertex -1.0533 -24.5885 1
    endloop
  endfacet
  facet normal 0 0 1
    outer loop
      vertex 21.8484 8.3465 1
      vertex 25.4681 3.5253 1
      vertex 26.1184 5.06139 1
    endloop
  endfacet
  facet normal 0 -0 1
    outer loop
      vertex 9.23859 -24.2326 1
      vertex 11.9477 -19.6541 1
      vertex 7.3696 -23.8788 1
    endloop
  endfacet
  facet normal 0 0 1
    outer loop
      vertex 12.2604 -21.3768 1
      vertex 11.9477 -19.6541 1
      vertex 9.23859 -24.2326 1
    endloop
  endfacet
  facet normal 0 0 1
    outer loop
      vertex 12.2604 -21.3768 1
      vertex 9.23859 -24.2326 1
      vertex 11.1157 -24.5394 1
    endloop
  endfacet
  facet normal 0 0 1
    outer loop
      vertex 12.2604 -21.3768 1
      vertex 11.1157 -24.5394 1
      vertex 12.6112 -23.0921 1
    endloop
  endfacet
  facet normal 0 0 1
    outer loop
      vertex 12.6112 -23.0921 1
      vertex 11.1157 -24.5394 1
      vertex 13 -24.7992 1
    endloop
  endfacet
  facet normal 0 0 1
    outer loop
      vertex 7.3696 -23.8788 1
      vertex 11.9477 -19.6541 1
      vertex 11.6732 -17.9249 1
    endloop
  endfacet
  facet normal 0 -0 1
    outer loop
      vertex 7.3696 -23.8788 1
      vertex 11.6732 -17.9249 1
      vertex 5.51019 -23.4785 1
    endloop
  endfacet
  facet normal 0 0 1
    outer loop
      vertex 25.6589 11.5705 1
      vertex 23.7736 10.388 1
      vertex 26.2356 10.0053 1
    endloop
  endfacet
  facet normal 0 0 1
    outer loop
      vertex 11.6732 -17.9249 1
      vertex 11.4371 -16.1901 1
      vertex 5.51019 -23.4785 1
    endloop
  endfacet
  facet normal 0 0 1
    outer loop
      vertex 11.4371 -16.1901 1
      vertex 3.66129 -23.0317 1
      vertex 5.51019 -23.4785 1
    endloop
  endfacet
  facet normal -0 0 1
    outer loop
      vertex 1.82419 -22.5387 1
      vertex 3.66129 -23.0317 1
      vertex 11.4371 -16.1901 1
    endloop
  endfacet
  facet normal 0 0 1
    outer loop
      vertex 1.82419 -22.5387 1
      vertex 11.4371 -16.1901 1
      vertex 11.2395 -14.4504 1
    endloop
  endfacet
  facet normal 0 -0 1
    outer loop
      vertex 1.82419 -22.5387 1
      vertex 11.2395 -14.4504 1
      vertex 0 -22 1
    endloop
  endfacet
  facet normal 0 0 1
    outer loop
      vertex 11.2395 -14.4504 1
      vertex 11.0805 -12.7068 1
      vertex 0 -22 1
    endloop
  endfacet
  facet normal 0 -0 1
    outer loop
      vertex 17.9249 -11.6732 1
      vertex 23.4785 -5.51019 1
      vertex 16.1901 -11.4371 1
    endloop
  endfacet
  facet normal 0 0 1
    outer loop
      vertex 23.8788 -7.3696 1
      vertex 23.4785 -5.51019 1
      vertex 17.9249 -11.6732 1
    endloop
  endfacet
  facet normal 0 0 1
    outer loop
      vertex 23.8788 -7.3696 1
      vertex 17.9249 -11.6732 1
      vertex 19.6541 -11.9477 1
    endloop
  endfacet
  facet normal 0 0 1
    outer loop
      vertex 23.8788 -7.3696 1
      vertex 19.6541 -11.9477 1
      vertex 24.2326 -9.23859 1
    endloop
  endfacet
  facet normal -0 0 1
    outer loop
      vertex 19.6541 -11.9477 1
      vertex 21.3768 -12.2604 1
      vertex 24.2326 -9.23859 1
    endloop
  endfacet
  facet normal 0 0 1
    outer loop
      vertex 21.3768 -12.2604 1
      vertex 24.5394 -11.1157 1
      vertex 24.2326 -9.23859 1
    endloop
  endfacet
  facet normal 0 -0 1
    outer loop
      vertex 23.0921 -12.6112 1
      vertex 24.5394 -11.1157 1
      vertex 21.3768 -12.2604 1
    endloop
  endfacet
  facet normal -0 0 1
    outer loop
      vertex 22.9088 9.27509 1
      vertex 26.5091 8.35979 1
      vertex 23.7736 10.388 1
    endloop
  endfacet
  facet normal 0 0 1
    outer loop
      vertex 24.7992 -13 1
      vertex 24.5394 -11.1157 1
      vertex 23.0921 -12.6112 1
    endloop
  endfacet
  facet normal 0 0 1
    outer loop
      vertex 7.63609 20.6311 1
      vertex 2.1382 24.5416 1
      vertex 0.94899 23.3718 1
    endloop
  endfacet
  facet normal 0 0 1
    outer loop
      vertex 23.4785 -5.51019 1
      vertex 23.0317 -3.66129 1
      vertex 16.1901 -11.4371 1
    endloop
  endfacet
  facet normal 0 0 1
    outer loop
      vertex 23.0317 -3.66129 1
      vertex 22.5387 -1.82419 1
      vertex 16.1901 -11.4371 1
    endloop
  endfacet
  facet normal 0 0 1
    outer loop
      vertex 22.5387 -1.82419 1
      vertex 14.4504 -11.2395 1
      vertex 16.1901 -11.4371 1
    endloop
  endfacet
  facet normal 0 0 1
    outer loop
      vertex 22 0 1
      vertex 14.4504 -11.2395 1
      vertex 22.5387 -1.82419 1
    endloop
  endfacet
  facet normal -0 0 1
    outer loop
      vertex 12.7068 -11.0805 1
      vertex 14.4504 -11.2395 1
      vertex 22 0 1
    endloop
  endfacet
  facet normal 0 0 1
    outer loop
      vertex 15.1281 7.3559 1
      vertex 22 0 1
      vertex 16.4986 7.02689 1
    endloop
  endfacet
  facet normal 0 -0 1
    outer loop
      vertex 26.1184 5.06139 1
      vertex 26.4695 6.69209 1
      vertex 21.8484 8.3465 1
    endloop
  endfacet
  facet normal 0 -0 1
    outer loop
      vertex 26.4695 6.69209 1
      vertex 26.5091 8.35979 1
      vertex 22.9088 9.27509 1
    endloop
  endfacet
  facet normal 0 0 1
    outer loop
      vertex 23.7736 10.388 1
      vertex 26.5091 8.35979 1
      vertex 26.2356 10.0053 1
    endloop
  endfacet
  facet normal 0 0 1
    outer loop
      vertex 23.7736 10.388 1
      vertex 25.6589 11.5705 1
      vertex 24.4115 11.6449 1
    endloop
  endfacet
  facet normal 0 0 1
    outer loop
      vertex 25.6589 11.5705 1
      vertex 24.7992 13 1
      vertex 24.4115 11.6449 1
    endloop
  endfacet
  facet normal 0 0 1
    outer loop
      vertex 22.9088 9.27509 1
      vertex 21.8484 8.3465 1
      vertex 26.4695 6.69209 1
    endloop
  endfacet
  facet normal 0 0 1
    outer loop
      vertex 23.3718 0.94899 1
      vertex 20.6311 7.63609 1
      vertex 19.3011 7.16959 1
    endloop
  endfacet
  facet normal 0 0 1
    outer loop
      vertex 23.3718 0.94899 1
      vertex 19.3011 7.16959 1
      vertex 22 0 1
    endloop
  endfacet
  facet normal -0 0 1
    outer loop
      vertex 20.6311 7.63609 1
      vertex 25.4681 3.5253 1
      vertex 21.8484 8.3465 1
    endloop
  endfacet
  facet normal 0 -0 1
    outer loop
      vertex 24.5416 2.1382 1
      vertex 25.4681 3.5253 1
      vertex 20.6311 7.63609 1
    endloop
  endfacet
  facet normal 0 0 1
    outer loop
      vertex 24.5416 2.1382 1
      vertex 20.6311 7.63609 1
      vertex 23.3718 0.94899 1
    endloop
  endfacet
  facet normal 0 0 1
    outer loop
      vertex 22 0 1
      vertex 19.3011 7.16959 1
      vertex 17.9067 6.9641 1
    endloop
  endfacet
  facet normal 0 0 1
    outer loop
      vertex 22 0 1
      vertex 17.9067 6.9641 1
      vertex 16.4986 7.02689 1
    endloop
  endfacet
  facet normal 0 0 1
    outer loop
      vertex 22 0 1
      vertex 15.1281 7.3559 1
      vertex 12.7068 -11.0805 1
    endloop
  endfacet
  facet normal 0 0 1
    outer loop
      vertex 8.3465 21.8484 1
      vertex 3.5253 25.4681 1
      vertex 7.63609 20.6311 1
    endloop
  endfacet
  facet normal 0 0 1
    outer loop
      vertex 15.1281 7.3559 1
      vertex 10.9602 -10.9602 1
      vertex 12.7068 -11.0805 1
    endloop
  endfacet
  facet normal 0 0 1
    outer loop
      vertex 13.8449 7.93909 1
      vertex 10.9602 -10.9602 1
      vertex 15.1281 7.3559 1
    endloop
  endfacet
  facet normal 0 0 1
    outer loop
      vertex 12.6957 8.75519 1
      vertex 10.9602 -10.9602 1
      vertex 13.8449 7.93909 1
    endloop
  endfacet
  facet normal 0 0 1
    outer loop
      vertex 11.7224 9.7746 1
      vertex 10.9602 -10.9602 1
      vertex 12.6957 8.75519 1
    endloop
  endfacet
  facet normal 0 0 1
    outer loop
      vertex 10.9602 10.9602 1
      vertex 9.7746 11.7224 1
      vertex 11.7224 9.7746 1
    endloop
  endfacet
  facet normal 0 0 1
    outer loop
      vertex 9.7746 11.7224 1
      vertex -10.9602 -10.9602 1
      vertex 11.7224 9.7746 1
    endloop
  endfacet
  facet normal 0 0 1
    outer loop
      vertex -10.9602 10.9602 1
      vertex 7.93909 13.8449 1
      vertex 7.3559 15.1281 1
    endloop
  endfacet
  facet normal 0 0 1
    outer loop
      vertex -1.82419 22.5387 1
      vertex -11.2395 14.4504 1
      vertex 0 22 1
    endloop
  endfacet
  facet normal 0 0 1
    outer loop
      vertex -3.66129 23.0317 1
      vertex -11.4371 16.1901 1
      vertex -1.82419 22.5387 1
    endloop
  endfacet
  facet normal 0 0 1
    outer loop
      vertex 7.02689 16.4986 1
      vertex 0 22 1
      vertex 7.3559 15.1281 1
    endloop
  endfacet
  facet normal 0 0 1
    outer loop
      vertex 6.9641 17.9067 1
      vertex 0 22 1
      vertex 7.02689 16.4986 1
    endloop
  endfacet
  facet normal 0 0 1
    outer loop
      vertex 7.16959 19.3011 1
      vertex 0.94899 23.3718 1
      vertex 0 22 1
    endloop
  endfacet
  facet normal 0 0 1
    outer loop
      vertex 5.06139 26.1184 1
      vertex 3.5253 25.4681 1
      vertex 8.3465 21.8484 1
    endloop
  endfacet
  facet normal -0 0 1
    outer loop
      vertex 5.06139 26.1184 1
      vertex 8.3465 21.8484 1
      vertex 6.69209 26.4695 1
    endloop
  endfacet
  facet normal -0 0 1
    outer loop
      vertex 6.69209 26.4695 1
      vertex 9.27509 22.9088 1
      vertex 8.35979 26.5091 1
    endloop
  endfacet
  facet normal 0 0 1
    outer loop
      vertex 8.35979 26.5091 1
      vertex 10.388 23.7736 1
      vertex 10.0053 26.2356 1
    endloop
  endfacet
  facet normal 0 -0 1
    outer loop
      vertex 10.388 23.7736 1
      vertex 11.5705 25.6589 1
      vertex 10.0053 26.2356 1
    endloop
  endfacet
  facet normal 0 0 1
    outer loop
      vertex 11.6449 24.4115 1
      vertex 11.5705 25.6589 1
      vertex 10.388 23.7736 1
    endloop
  endfacet
  facet normal -0 0 1
    outer loop
      vertex -24.2326 9.23859 1
      vertex -23.8788 7.3696 1
      vertex -19.6541 11.9477 1
    endloop
  endfacet
  facet normal 0 0 1
    outer loop
      vertex 13 24.7992 1
      vertex 11.5705 25.6589 1
      vertex 11.6449 24.4115 1
    endloop
  endfacet
  facet normal 0 -0 1
    outer loop
      vertex 9.27509 22.9088 1
      vertex 10.388 23.7736 1
      vertex 8.35979 26.5091 1
    endloop
  endfacet
  facet normal 0 -0 1
    outer loop
      vertex 8.3465 21.8484 1
      vertex 9.27509 22.9088 1
      vertex 6.69209 26.4695 1
    endloop
  endfacet
  facet normal 0 0 1
    outer loop
      vertex 3.5253 25.4681 1
      vertex 2.1382 24.5416 1
      vertex 7.63609 20.6311 1
    endloop
  endfacet
  facet normal 0 0 1
    outer loop
      vertex 7.63609 20.6311 1
      vertex 0.94899 23.3718 1
      vertex 7.16959 19.3011 1
    endloop
  endfacet
  facet normal 0 0 1
    outer loop
      vertex 7.16959 19.3011 1
      vertex 0 22 1
      vertex 6.9641 17.9067 1
    endloop
  endfacet
  facet normal 0 0 1
    outer loop
      vertex -5.51019 23.4785 1
      vertex -11.4371 16.1901 1
      vertex -3.66129 23.0317 1
    endloop
  endfacet
  facet normal -0 0 1
    outer loop
      vertex -11.6732 17.9249 1
      vertex -11.4371 16.1901 1
      vertex -5.51019 23.4785 1
    endloop
  endfacet
  facet normal 0 0 1
    outer loop
      vertex -11.6732 17.9249 1
      vertex -5.51019 23.4785 1
      vertex -7.3696 23.8788 1
    endloop
  endfacet
  facet normal 0 0 1
    outer loop
      vertex -11.9477 19.6541 1
      vertex -7.3696 23.8788 1
      vertex -9.23859 24.2326 1
    endloop
  endfacet
  facet normal 0 -0 1
    outer loop
      vertex -11.9477 19.6541 1
      vertex -9.23859 24.2326 1
      vertex -12.2604 21.3768 1
    endloop
  endfacet
  facet normal 0 -0 1
    outer loop
      vertex -11.6732 17.9249 1
      vertex -7.3696 23.8788 1
      vertex -11.9477 19.6541 1
    endloop
  endfacet
  facet normal 0 0 1
    outer loop
      vertex -11.1157 24.5394 1
      vertex -12.2604 21.3768 1
      vertex -9.23859 24.2326 1
    endloop
  endfacet
  facet normal -0 0 1
    outer loop
      vertex -12.6112 23.0921 1
      vertex -12.2604 21.3768 1
      vertex -11.1157 24.5394 1
    endloop
  endfacet
  facet normal 0 -0 1
    outer loop
      vertex -12.6112 23.0921 1
      vertex -11.1157 24.5394 1
      vertex -13 24.7992 1
    endloop
  endfacet
  facet normal -0 0 1
    outer loop
      vertex -11.4371 16.1901 1
      vertex -11.2395 14.4504 1
      vertex -1.82419 22.5387 1
    endloop
  endfacet
  facet normal -0 0 1
    outer loop
      vertex -11.2395 14.4504 1
      vertex -11.0805 12.7068 1
      vertex 0 22 1
    endloop
  endfacet
  facet normal 0 0 1
    outer loop
      vertex -11.0805 12.7068 1
      vertex 7.3559 15.1281 1
      vertex 0 22 1
    endloop
  endfacet
  facet normal 0 -0 1
    outer loop
      vertex -10.9602 10.9602 1
      vertex 7.3559 15.1281 1
      vertex -11.0805 12.7068 1
    endloop
  endfacet
  facet normal 0 0 1
    outer loop
      vertex 8.75519 12.6957 1
      vertex 7.93909 13.8449 1
      vertex -10.9602 10.9602 1
    endloop
  endfacet
  facet normal -0 0 1
    outer loop
      vertex -10.9602 10.9602 1
      vertex -10.9602 -10.9602 1
      vertex 9.7746 11.7224 1
    endloop
  endfacet
  facet normal 0 0 1
    outer loop
      vertex 8.75519 12.6957 1
      vertex -10.9602 10.9602 1
      vertex 9.7746 11.7224 1
    endloop
  endfacet
  facet normal 0 0 1
    outer loop
      vertex -10.9602 -10.9602 1
      vertex 10.9602 -10.9602 1
      vertex 11.7224 9.7746 1
    endloop
  endfacet
  facet normal 0 -0 1
    outer loop
      vertex -22.5387 1.82419 1
      vertex -16.1901 11.4371 1
      vertex -23.0317 3.66129 1
    endloop
  endfacet
  facet normal 0 0 1
    outer loop
      vertex -16.1901 11.4371 1
      vertex -23.4785 5.51019 1
      vertex -23.0317 3.66129 1
    endloop
  endfacet
  facet normal 0 0 1
    outer loop
      vertex -24.2326 9.23859 1
      vertex -19.6541 11.9477 1
      vertex -21.3768 12.2604 1
    endloop
  endfacet
  facet normal 0 0 1
    outer loop
      vertex -17.9249 11.6732 1
      vertex -23.4785 5.51019 1
      vertex -16.1901 11.4371 1
    endloop
  endfacet
  facet normal -0 0 1
    outer loop
      vertex -23.8788 7.3696 1
      vertex -23.4785 5.51019 1
      vertex -17.9249 11.6732 1
    endloop
  endfacet
  facet normal 0 -0 1
    outer loop
      vertex -24.2326 9.23859 1
      vertex -21.3768 12.2604 1
      vertex -24.5394 11.1157 1
    endloop
  endfacet
  facet normal 0 0 1
    outer loop
      vertex -21.3768 12.2604 1
      vertex -23.0921 12.6112 1
      vertex -24.5394 11.1157 1
    endloop
  endfacet
  facet normal 0 0 1
    outer loop
      vertex -23.0921 12.6112 1
      vertex -24.7992 13 1
      vertex -24.5394 11.1157 1
    endloop
  endfacet
  facet normal 0 0 1
    outer loop
      vertex -23.8788 7.3696 1
      vertex -17.9249 11.6732 1
      vertex -19.6541 11.9477 1
    endloop
  endfacet
  facet normal 0 0 1
    outer loop
      vertex -14.4504 11.2395 1
      vertex -16.1901 11.4371 1
      vertex -22.5387 1.82419 1
    endloop
  endfacet
  facet normal 0 0 1
    outer loop
      vertex -14.4504 11.2395 1
      vertex -22.5387 1.82419 1
      vertex -22 0 1
    endloop
  endfacet
  facet normal 0 0 1
    outer loop
      vertex -14.4504 11.2395 1
      vertex -22 0 1
      vertex -12.7068 11.0805 1
    endloop
  endfacet
  facet normal 0 0 1
    outer loop
      vertex -22 0 1
      vertex -10.9602 10.9602 1
      vertex -12.7068 11.0805 1
    endloop
  endfacet
  facet normal -0 0 1
    outer loop
      vertex -23.3456 -0.400391 1
      vertex -19.6854 -11.7604 1
      vertex -22 0 1
    endloop
  endfacet
  facet normal 0 0 1
    outer loop
      vertex -27.3588 -9.72198 1
      vertex -26.7249 -10.9747 1
      vertex -23.1101 -12.5245 1
    endloop
  endfacet
  facet normal 0 0 1
    outer loop
      vertex -25.6819 -1.93399 1
      vertex -26.5844 -3.0094 1
      vertex -19.6854 -11.7604 1
    endloop
  endfacet
  facet normal 0 0 1
    outer loop
      vertex -26.5844 -3.0094 1
      vertex -27.2621 -4.239 1
      vertex -21.4048 -12.1112 1
    endloop
  endfacet
  facet normal 0 0 1
    outer loop
      vertex -27.2621 -4.239 1
      vertex -27.6895 -5.57629 1
      vertex -21.4048 -12.1112 1
    endloop
  endfacet
  facet normal 0 0 1
    outer loop
      vertex -27.6895 -5.57629 1
      vertex -27.8504 -6.97099 1
      vertex -21.4048 -12.1112 1
    endloop
  endfacet
  facet normal 0 0 1
    outer loop
      vertex -27.8504 -6.97099 1
      vertex -27.7388 -8.3705 1
      vertex -21.4048 -12.1112 1
    endloop
  endfacet
  facet normal 0 0 1
    outer loop
      vertex -21.4048 -12.1112 1
      vertex -27.3588 -9.72198 1
      vertex -23.1101 -12.5245 1
    endloop
  endfacet
  facet normal 0 0 1
    outer loop
      vertex -27.7388 -8.3705 1
      vertex -27.3588 -9.72198 1
      vertex -21.4048 -12.1112 1
    endloop
  endfacet
  facet normal 0 0 1
    outer loop
      vertex -26.7249 -10.9747 1
      vertex -25.8608 -12.0813 1
      vertex -23.1101 -12.5245 1
    endloop
  endfacet
  facet normal 0 0 1
    outer loop
      vertex -25.8608 -12.0813 1
      vertex -24.7992 -13 1
      vertex -23.1101 -12.5245 1
    endloop
  endfacet
  facet normal 0 0 1
    outer loop
      vertex -19.6854 -11.7604 1
      vertex -26.5844 -3.0094 1
      vertex -21.4048 -12.1112 1
    endloop
  endfacet
  facet normal 0 0 1
    outer loop
      vertex -24.5885 -1.0533 1
      vertex -25.6819 -1.93399 1
      vertex -19.6854 -11.7604 1
    endloop
  endfacet
  facet normal 0 0 1
    outer loop
      vertex 0 -22 1
      vertex -10.9602 -10.9602 1
      vertex -10.9923 -12.7146 1
    endloop
  endfacet
  facet normal -0 0 1
    outer loop
      vertex -24.5885 -1.0533 1
      vertex -19.6854 -11.7604 1
      vertex -23.3456 -0.400391 1
    endloop
  endfacet
  facet normal 0 -0 1
    outer loop
      vertex 0 -22 1
      vertex 10.9602 -10.9602 1
      vertex -10.9602 -10.9602 1
    endloop
  endfacet
  facet normal 0 0 1
    outer loop
      vertex -22 0 1
      vertex -19.6854 -11.7604 1
      vertex -17.9544 -11.4729 1
    endloop
  endfacet
  facet normal -0 0 1
    outer loop
      vertex -12.1112 -21.4048 1
      vertex -3.0094 -26.5844 1
      vertex -11.7604 -19.6854 1
    endloop
  endfacet
  facet normal 0 0 1
    outer loop
      vertex -22 0 1
      vertex -17.9544 -11.4729 1
      vertex -16.2141 -11.2488 1
    endloop
  endfacet
  facet normal 0 0 1
    outer loop
      vertex -22 0 1
      vertex -16.2141 -11.2488 1
      vertex -14.4667 -11.0885 1
    endloop
  endfacet
  facet normal 0 0 1
    outer loop
      vertex -11.0885 -14.4667 1
      vertex -11.2488 -16.2141 1
      vertex 0 -22 1
    endloop
  endfacet
  facet normal 0 0 1
    outer loop
      vertex -22 0 1
      vertex -14.4667 -11.0885 1
      vertex -12.7146 -10.9923 1
    endloop
  endfacet
  facet normal 0 0 1
    outer loop
      vertex -22 0 1
      vertex -12.7146 -10.9923 1
      vertex -10.9602 -10.9602 1
    endloop
  endfacet
  facet normal -0 0 1
    outer loop
      vertex -22 0 1
      vertex -10.9602 -10.9602 1
      vertex -10.9602 10.9602 1
    endloop
  endfacet
  facet normal 0 0 1
    outer loop
      vertex -10.9923 -12.7146 1
      vertex -11.0885 -14.4667 1
      vertex 0 -22 1
    endloop
  endfacet
  facet normal 0 0 1
    outer loop
      vertex -3.0094 -26.5844 1
      vertex -12.1112 -21.4048 1
      vertex -4.239 -27.2621 1
    endloop
  endfacet
  facet normal 0 0 1
    outer loop
      vertex -12.1112 -21.4048 1
      vertex -5.57629 -27.6895 1
      vertex -4.239 -27.2621 1
    endloop
  endfacet
  facet normal 0 -0 1
    outer loop
      vertex -6.97099 -27.8504 1
      vertex -5.57629 -27.6895 1
      vertex -12.1112 -21.4048 1
    endloop
  endfacet
  facet normal -0 -0 1
    outer loop
      vertex -10.9747 -26.7249 1
      vertex -9.72198 -27.3588 1
      vertex -12.5245 -23.1101 1
    endloop
  endfacet
  facet normal 0 0 1
    outer loop
      vertex -12.5245 -23.1101 1
      vertex -13 -24.7992 1
      vertex -12.0813 -25.8608 1
    endloop
  endfacet
  facet normal 0 0 1
    outer loop
      vertex -12.5245 -23.1101 1
      vertex -12.0813 -25.8608 1
      vertex -10.9747 -26.7249 1
    endloop
  endfacet
  facet normal 0 0 1
    outer loop
      vertex -12.1112 -21.4048 1
      vertex -12.5245 -23.1101 1
      vertex -9.72198 -27.3588 1
    endloop
  endfacet
  facet normal 0 0 1
    outer loop
      vertex -12.1112 -21.4048 1
      vertex -9.72198 -27.3588 1
      vertex -8.3705 -27.7388 1
    endloop
  endfacet
  facet normal 0 0 1
    outer loop
      vertex -12.1112 -21.4048 1
      vertex -8.3705 -27.7388 1
      vertex -6.97099 -27.8504 1
    endloop
  endfacet
  facet normal 0.304431 -0.952534 0
    outer loop
      vertex -4.239 -27.2621 0
      vertex -5.57629 -27.6895 1
      vertex -5.57629 -27.6895 0
    endloop
  endfacet
  facet normal 0.304431 -0.952534 0
    outer loop
      vertex -4.239 -27.2621 0
      vertex -4.239 -27.2621 1
      vertex -5.57629 -27.6895 1
    endloop
  endfacet
  facet normal 0.482695 -0.875788 0
    outer loop
      vertex -3.0094 -26.5844 0
      vertex -4.239 -27.2621 1
      vertex -4.239 -27.2621 0
    endloop
  endfacet
  facet normal 0.482695 -0.875788 0
    outer loop
      vertex -3.0094 -26.5844 0
      vertex -3.0094 -26.5844 1
      vertex -4.239 -27.2621 1
    endloop
  endfacet
  facet normal 0.642839 -0.766001 0
    outer loop
      vertex -1.93399 -25.6819 0
      vertex -3.0094 -26.5844 1
      vertex -3.0094 -26.5844 0
    endloop
  endfacet
  facet normal 0.642839 -0.766001 0
    outer loop
      vertex -1.93399 -25.6819 0
      vertex -1.93399 -25.6819 1
      vertex -3.0094 -26.5844 1
    endloop
  endfacet
  facet normal 0.77879 -0.627284 0
    outer loop
      vertex -1.0533 -24.5885 0
      vertex -1.93399 -25.6819 1
      vertex -1.93399 -25.6819 0
    endloop
  endfacet
  facet normal 0.77879 -0.627284 0
    outer loop
      vertex -1.0533 -24.5885 0
      vertex -1.0533 -24.5885 1
      vertex -1.93399 -25.6819 1
    endloop
  endfacet
  facet normal 0.885285 -0.46505 0
    outer loop
      vertex -0.400391 -23.3456 0
      vertex -1.0533 -24.5885 1
      vertex -1.0533 -24.5885 0
    endloop
  endfacet
  facet normal 0.885285 -0.46505 0
    outer loop
      vertex -0.400391 -23.3456 0
      vertex -0.400391 -23.3456 1
      vertex -1.0533 -24.5885 1
    endloop
  endfacet
  facet normal 0.958469 -0.285198 0
    outer loop
      vertex 0 -22 0
      vertex -0.400391 -23.3456 1
      vertex -0.400391 -23.3456 0
    endloop
  endfacet
  facet normal 0.958469 -0.285198 0
    outer loop
      vertex 0 -22 0
      vertex 0 -22 1
      vertex -0.400391 -23.3456 1
    endloop
  endfacet
  facet normal -0.283218 -0.959056 0
    outer loop
      vertex 1.82419 -22.5387 0
      vertex 0 -22 1
      vertex 0 -22 0
    endloop
  endfacet
  facet normal -0.283218 -0.959056 0
    outer loop
      vertex 1.82419 -22.5387 0
      vertex 1.82419 -22.5387 1
      vertex 0 -22 1
    endloop
  endfacet
  facet normal -0.259187 -0.965827 0
    outer loop
      vertex 3.66129 -23.0317 0
      vertex 1.82419 -22.5387 1
      vertex 1.82419 -22.5387 0
    endloop
  endfacet
  facet normal -0.259187 -0.965827 0
    outer loop
      vertex 3.66129 -23.0317 0
      vertex 3.66129 -23.0317 1
      vertex 1.82419 -22.5387 1
    endloop
  endfacet
  facet normal -0.234896 -0.972021 0
    outer loop
      vertex 5.51019 -23.4785 0
      vertex 3.66129 -23.0317 1
      vertex 3.66129 -23.0317 0
    endloop
  endfacet
  facet normal -0.234896 -0.972021 0
    outer loop
      vertex 5.51019 -23.4785 0
      vertex 5.51019 -23.4785 1
      vertex 3.66129 -23.0317 1
    endloop
  endfacet
  facet normal -0.210461 -0.977602 0
    outer loop
      vertex 7.3696 -23.8788 0
      vertex 5.51019 -23.4785 1
      vertex 5.51019 -23.4785 0
    endloop
  endfacet
  facet normal -0.210461 -0.977602 0
    outer loop
      vertex 7.3696 -23.8788 0
      vertex 7.3696 -23.8788 1
      vertex 5.51019 -23.4785 1
    endloop
  endfacet
  facet normal -0.185997 -0.98255 0
    outer loop
      vertex 9.23859 -24.2326 0
      vertex 7.3696 -23.8788 1
      vertex 7.3696 -23.8788 0
    endloop
  endfacet
  facet normal -0.185997 -0.98255 0
    outer loop
      vertex 9.23859 -24.2326 0
      vertex 9.23859 -24.2326 1
      vertex 7.3696 -23.8788 1
    endloop
  endfacet
  facet normal -0.161302 -0.986905 0
    outer loop
      vertex 11.1157 -24.5394 0
      vertex 9.23859 -24.2326 1
      vertex 9.23859 -24.2326 0
    endloop
  endfacet
  facet normal -0.161302 -0.986905 0
    outer loop
      vertex 11.1157 -24.5394 0
      vertex 11.1157 -24.5394 1
      vertex 9.23859 -24.2326 1
    endloop
  endfacet
  facet normal -0.136584 -0.990628 0
    outer loop
      vertex 13 -24.7992 0
      vertex 11.1157 -24.5394 1
      vertex 11.1157 -24.5394 0
    endloop
  endfacet
  facet normal -0.136584 -0.990628 0
    outer loop
      vertex 13 -24.7992 0
      vertex 13 -24.7992 1
      vertex 11.1157 -24.5394 1
    endloop
  endfacet
  facet normal 0.975031 0.222068 0
    outer loop
      vertex 12.6112 -23.0921 0
      vertex 13 -24.7992 1
      vertex 13 -24.7992 0
    endloop
  endfacet
  facet normal 0.975031 0.222068 -0
    outer loop
      vertex 12.6112 -23.0921 0
      vertex 12.6112 -23.0921 1
      vertex 13 -24.7992 1
    endloop
  endfacet
  facet normal 0.979721 0.200365 0
    outer loop
      vertex 12.2604 -21.3768 0
      vertex 12.6112 -23.0921 1
      vertex 12.6112 -23.0921 0
    endloop
  endfacet
  facet normal 0.979721 0.200365 -0
    outer loop
      vertex 12.2604 -21.3768 0
      vertex 12.2604 -21.3768 1
      vertex 12.6112 -23.0921 1
    endloop
  endfacet
  facet normal 0.983922 0.178599 0
    outer loop
      vertex 11.9477 -19.6541 0
      vertex 12.2604 -21.3768 1
      vertex 12.2604 -21.3768 0
    endloop
  endfacet
  facet normal 0.983922 0.178599 -0
    outer loop
      vertex 11.9477 -19.6541 0
      vertex 11.9477 -19.6541 1
      vertex 12.2604 -21.3768 1
    endloop
  endfacet
  facet normal 0.987633 0.156781 0
    outer loop
      vertex 11.6732 -17.9249 0
      vertex 11.9477 -19.6541 1
      vertex 11.9477 -19.6541 0
    endloop
  endfacet
  facet normal 0.987633 0.156781 -0
    outer loop
      vertex 11.6732 -17.9249 0
      vertex 11.6732 -17.9249 1
      vertex 11.9477 -19.6541 1
    endloop
  endfacet
  facet normal 0.990866 0.134853 0
    outer loop
      vertex 11.4371 -16.1901 0
      vertex 11.6732 -17.9249 1
      vertex 11.6732 -17.9249 0
    endloop
  endfacet
  facet normal 0.990866 0.134853 -0
    outer loop
      vertex 11.4371 -16.1901 0
      vertex 11.4371 -16.1901 1
      vertex 11.6732 -17.9249 1
    endloop
  endfacet
  facet normal 0.993611 0.112857 0
    outer loop
      vertex 11.2395 -14.4504 0
      vertex 11.4371 -16.1901 1
      vertex 11.4371 -16.1901 0
    endloop
  endfacet
  facet normal 0.993611 0.112857 -0
    outer loop
      vertex 11.2395 -14.4504 0
      vertex 11.2395 -14.4504 1
      vertex 11.4371 -16.1901 1
    endloop
  endfacet
  facet normal 0.995868 0.0908138 0
    outer loop
      vertex 11.0805 -12.7068 0
      vertex 11.2395 -14.4504 1
      vertex 11.2395 -14.4504 0
    endloop
  endfacet
  facet normal 0.995868 0.0908138 -0
    outer loop
      vertex 11.0805 -12.7068 0
      vertex 11.0805 -12.7068 1
      vertex 11.2395 -14.4504 1
    endloop
  endfacet
  facet normal 0.997636 0.0687139 0
    outer loop
      vertex 10.9602 -10.9602 0
      vertex 11.0805 -12.7068 1
      vertex 11.0805 -12.7068 0
    endloop
  endfacet
  facet normal 0.997636 0.0687139 -0
    outer loop
      vertex 10.9602 -10.9602 0
      vertex 10.9602 -10.9602 1
      vertex 11.0805 -12.7068 1
    endloop
  endfacet
  facet normal -0.0687139 -0.997636 0
    outer loop
      vertex 12.7068 -11.0805 0
      vertex 10.9602 -10.9602 1
      vertex 10.9602 -10.9602 0
    endloop
  endfacet
  facet normal -0.0687139 -0.997636 0
    outer loop
      vertex 12.7068 -11.0805 0
      vertex 12.7068 -11.0805 1
      vertex 10.9602 -10.9602 1
    endloop
  endfacet
  facet normal -0.0908138 -0.995868 0
    outer loop
      vertex 14.4504 -11.2395 0
      vertex 12.7068 -11.0805 1
      vertex 12.7068 -11.0805 0
    endloop
  endfacet
  facet normal -0.0908138 -0.995868 0
    outer loop
      vertex 14.4504 -11.2395 0
      vertex 14.4504 -11.2395 1
      vertex 12.7068 -11.0805 1
    endloop
  endfacet
  facet normal -0.112857 -0.993611 0
    outer loop
      vertex 16.1901 -11.4371 0
      vertex 14.4504 -11.2395 1
      vertex 14.4504 -11.2395 0
    endloop
  endfacet
  facet normal -0.112857 -0.993611 0
    outer loop
      vertex 16.1901 -11.4371 0
      vertex 16.1901 -11.4371 1
      vertex 14.4504 -11.2395 1
    endloop
  endfacet
  facet normal -0.134853 -0.990866 0
    outer loop
      vertex 17.9249 -11.6732 0
      vertex 16.1901 -11.4371 1
      vertex 16.1901 -11.4371 0
    endloop
  endfacet
  facet normal -0.134853 -0.990866 0
    outer loop
      vertex 17.9249 -11.6732 0
      vertex 17.9249 -11.6732 1
      vertex 16.1901 -11.4371 1
    endloop
  endfacet
  facet normal -0.156781 -0.987633 0
    outer loop
      vertex 19.6541 -11.9477 0
      vertex 17.9249 -11.6732 1
      vertex 17.9249 -11.6732 0
    endloop
  endfacet
  facet normal -0.156781 -0.987633 0
    outer loop
      vertex 19.6541 -11.9477 0
      vertex 19.6541 -11.9477 1
      vertex 17.9249 -11.6732 1
    endloop
  endfacet
  facet normal -0.178599 -0.983922 0
    outer loop
      vertex 21.3768 -12.2604 0
      vertex 19.6541 -11.9477 1
      vertex 19.6541 -11.9477 0
    endloop
  endfacet
  facet normal -0.178599 -0.983922 0
    outer loop
      vertex 21.3768 -12.2604 0
      vertex 21.3768 -12.2604 1
      vertex 19.6541 -11.9477 1
    endloop
  endfacet
  facet normal -0.200365 -0.979721 0
    outer loop
      vertex 23.0921 -12.6112 0
      vertex 21.3768 -12.2604 1
      vertex 21.3768 -12.2604 0
    endloop
  endfacet
  facet normal -0.200365 -0.979721 0
    outer loop
      vertex 23.0921 -12.6112 0
      vertex 23.0921 -12.6112 1
      vertex 21.3768 -12.2604 1
    endloop
  endfacet
  facet normal -0.222068 -0.975031 0
    outer loop
      vertex 24.7992 -13 0
      vertex 23.0921 -12.6112 1
      vertex 23.0921 -12.6112 0
    endloop
  endfacet
  facet normal -0.222068 -0.975031 0
    outer loop
      vertex 24.7992 -13 0
      vertex 24.7992 -13 1
      vertex 23.0921 -12.6112 1
    endloop
  endfacet
  facet normal 0.990628 0.136584 0
    outer loop
      vertex 24.5394 -11.1157 0
      vertex 24.7992 -13 1
      vertex 24.7992 -13 0
    endloop
  endfacet
  facet normal 0.990628 0.136584 -0
    outer loop
      vertex 24.5394 -11.1157 0
      vertex 24.5394 -11.1157 1
      vertex 24.7992 -13 1
    endloop
  endfacet
  facet normal 0.986905 0.161302 0
    outer loop
      vertex 24.2326 -9.23859 0
      vertex 24.5394 -11.1157 1
      vertex 24.5394 -11.1157 0
    endloop
  endfacet
  facet normal 0.986905 0.161302 -0
    outer loop
      vertex 24.2326 -9.23859 0
      vertex 24.2326 -9.23859 1
      vertex 24.5394 -11.1157 1
    endloop
  endfacet
  facet normal 0.98255 0.185997 0
    outer loop
      vertex 23.8788 -7.3696 0
      vertex 24.2326 -9.23859 1
      vertex 24.2326 -9.23859 0
    endloop
  endfacet
  facet normal 0.98255 0.185997 -0
    outer loop
      vertex 23.8788 -7.3696 0
      vertex 23.8788 -7.3696 1
      vertex 24.2326 -9.23859 1
    endloop
  endfacet
  facet normal 0.977602 0.210461 0
    outer loop
      vertex 23.4785 -5.51019 0
      vertex 23.8788 -7.3696 1
      vertex 23.8788 -7.3696 0
    endloop
  endfacet
  facet normal 0.977602 0.210461 -0
    outer loop
      vertex 23.4785 -5.51019 0
      vertex 23.4785 -5.51019 1
      vertex 23.8788 -7.3696 1
    endloop
  endfacet
  facet normal 0.972021 0.234896 0
    outer loop
      vertex 23.0317 -3.66129 0
      vertex 23.4785 -5.51019 1
      vertex 23.4785 -5.51019 0
    endloop
  endfacet
  facet normal 0.972021 0.234896 -0
    outer loop
      vertex 23.0317 -3.66129 0
      vertex 23.0317 -3.66129 1
      vertex 23.4785 -5.51019 1
    endloop
  endfacet
  facet normal 0.965827 0.259187 0
    outer loop
      vertex 22.5387 -1.82419 0
      vertex 23.0317 -3.66129 1
      vertex 23.0317 -3.66129 0
    endloop
  endfacet
  facet normal 0.965827 0.259187 -0
    outer loop
      vertex 22.5387 -1.82419 0
      vertex 22.5387 -1.82419 1
      vertex 23.0317 -3.66129 1
    endloop
  endfacet
  facet normal 0.959056 0.283218 0
    outer loop
      vertex 22 0 0
      vertex 22.5387 -1.82419 1
      vertex 22.5387 -1.82419 0
    endloop
  endfacet
  facet normal 0.959056 0.283218 -0
    outer loop
      vertex 22 0 0
      vertex 22 0 1
      vertex 22.5387 -1.82419 1
    endloop
  endfacet
  facet normal 0.568919 -0.822394 0
    outer loop
      vertex 23.3718 0.94899 0
      vertex 22 0 1
      vertex 22 0 0
    endloop
  endfacet
  facet normal 0.568919 -0.822394 0
    outer loop
      vertex 23.3718 0.94899 0
      vertex 23.3718 0.94899 1
      vertex 22 0 1
    endloop
  endfacet
  facet normal 0.712901 -0.701265 0
    outer loop
      vertex 24.5416 2.1382 0
      vertex 23.3718 0.94899 1
      vertex 23.3718 0.94899 0
    endloop
  endfacet
  facet normal 0.712901 -0.701265 0
    outer loop
      vertex 24.5416 2.1382 0
      vertex 24.5416 2.1382 1
      vertex 23.3718 0.94899 1
    endloop
  endfacet
  facet normal 0.831561 -0.555433 0
    outer loop
      vertex 25.4681 3.5253 0
      vertex 24.5416 2.1382 1
      vertex 24.5416 2.1382 0
    endloop
  endfacet
  facet normal 0.831561 -0.555433 0
    outer loop
      vertex 25.4681 3.5253 0
      vertex 25.4681 3.5253 1
      vertex 24.5416 2.1382 1
    endloop
  endfacet
  facet normal 0.920878 -0.389851 0
    outer loop
      vertex 26.1184 5.06139 0
      vertex 25.4681 3.5253 1
      vertex 25.4681 3.5253 0
    endloop
  endfacet
  facet normal 0.920878 -0.389851 0
    outer loop
      vertex 26.1184 5.06139 0
      vertex 26.1184 5.06139 1
      vertex 25.4681 3.5253 1
    endloop
  endfacet
  facet normal 0.977598 -0.210483 0
    outer loop
      vertex 26.4695 6.69209 0
      vertex 26.1184 5.06139 1
      vertex 26.1184 5.06139 0
    endloop
  endfacet
  facet normal 0.977598 -0.210483 0
    outer loop
      vertex 26.4695 6.69209 0
      vertex 26.4695 6.69209 1
      vertex 26.1184 5.06139 1
    endloop
  endfacet
  facet normal 0.999718 -0.0237386 0
    outer loop
      vertex 26.5091 8.35979 0
      vertex 26.4695 6.69209 1
      vertex 26.4695 6.69209 0
    endloop
  endfacet
  facet normal 0.999718 -0.0237386 0
    outer loop
      vertex 26.5091 8.35979 0
      vertex 26.5091 8.35979 1
      vertex 26.4695 6.69209 1
    endloop
  endfacet
  facet normal 0.986467 0.163961 0
    outer loop
      vertex 26.2356 10.0053 0
      vertex 26.5091 8.35979 1
      vertex 26.5091 8.35979 0
    endloop
  endfacet
  facet normal 0.986467 0.163961 -0
    outer loop
      vertex 26.2356 10.0053 0
      vertex 26.2356 10.0053 1
      vertex 26.5091 8.35979 1
    endloop
  endfacet
  facet normal 0.938334 0.34573 0
    outer loop
      vertex 25.6589 11.5705 0
      vertex 26.2356 10.0053 1
      vertex 26.2356 10.0053 0
    endloop
  endfacet
  facet normal 0.938334 0.34573 -0
    outer loop
      vertex 25.6589 11.5705 0
      vertex 25.6589 11.5705 1
      vertex 26.2356 10.0053 1
    endloop
  endfacet
  facet normal 0.856964 0.515377 0
    outer loop
      vertex 24.7992 13 0
      vertex 25.6589 11.5705 1
      vertex 25.6589 11.5705 0
    endloop
  endfacet
  facet normal 0.856964 0.515377 -0
    outer loop
      vertex 24.7992 13 0
      vertex 24.7992 13 1
      vertex 25.6589 11.5705 1
    endloop
  endfacet
  facet normal -0.961425 0.275068 0
    outer loop
      vertex 24.4115 11.6449 0
      vertex 24.7992 13 1
      vertex 24.7992 13 0
    endloop
  endfacet
  facet normal -0.961425 0.275068 0
    outer loop
      vertex 24.4115 11.6449 0
      vertex 24.4115 11.6449 1
      vertex 24.7992 13 1
    endloop
  endfacet
  facet normal -0.891729 0.452569 0
    outer loop
      vertex 23.7736 10.388 0
      vertex 24.4115 11.6449 1
      vertex 24.4115 11.6449 0
    endloop
  endfacet
  facet normal -0.891729 0.452569 0
    outer loop
      vertex 23.7736 10.388 0
      vertex 23.7736 10.388 1
      vertex 24.4115 11.6449 1
    endloop
  endfacet
  facet normal -0.789626 0.613588 0
    outer loop
      vertex 22.9088 9.27509 0
      vertex 23.7736 10.388 1
      vertex 23.7736 10.388 0
    endloop
  endfacet
  facet normal -0.789626 0.613588 0
    outer loop
      vertex 22.9088 9.27509 0
      vertex 22.9088 9.27509 1
      vertex 23.7736 10.388 1
    endloop
  endfacet
  facet normal -0.658802 0.752316 0
    outer loop
      vertex 21.8484 8.3465 0
      vertex 22.9088 9.27509 1
      vertex 22.9088 9.27509 0
    endloop
  endfacet
  facet normal -0.658802 0.752316 0
    outer loop
      vertex 21.8484 8.3465 0
      vertex 21.8484 8.3465 1
      vertex 22.9088 9.27509 1
    endloop
  endfacet
  facet normal -0.50404 0.863681 0
    outer loop
      vertex 20.6311 7.63609 0
      vertex 21.8484 8.3465 1
      vertex 21.8484 8.3465 0
    endloop
  endfacet
  facet normal -0.50404 0.863681 0
    outer loop
      vertex 20.6311 7.63609 0
      vertex 20.6311 7.63609 1
      vertex 21.8484 8.3465 1
    endloop
  endfacet
  facet normal -0.330982 0.943637 0
    outer loop
      vertex 19.3011 7.16959 0
      vertex 20.6311 7.63609 1
      vertex 20.6311 7.63609 0
    endloop
  endfacet
  facet normal -0.330982 0.943637 0
    outer loop
      vertex 19.3011 7.16959 0
      vertex 19.3011 7.16959 1
      vertex 20.6311 7.63609 1
    endloop
  endfacet
  facet normal -0.145793 0.989315 0
    outer loop
      vertex 17.9067 6.9641 0
      vertex 19.3011 7.16959 1
      vertex 19.3011 7.16959 0
    endloop
  endfacet
  facet normal -0.145793 0.989315 0
    outer loop
      vertex 17.9067 6.9641 0
      vertex 17.9067 6.9641 1
      vertex 19.3011 7.16959 1
    endloop
  endfacet
  facet normal 0.0445477 0.999007 0
    outer loop
      vertex 16.4986 7.02689 0
      vertex 17.9067 6.9641 1
      vertex 17.9067 6.9641 0
    endloop
  endfacet
  facet normal 0.0445477 0.999007 -0
    outer loop
      vertex 16.4986 7.02689 0
      vertex 16.4986 7.02689 1
      vertex 17.9067 6.9641 1
    endloop
  endfacet
  facet normal 0.233433 0.972373 0
    outer loop
      vertex 15.1281 7.3559 0
      vertex 16.4986 7.02689 1
      vertex 16.4986 7.02689 0
    endloop
  endfacet
  facet normal 0.233433 0.972373 -0
    outer loop
      vertex 15.1281 7.3559 0
      vertex 15.1281 7.3559 1
      vertex 16.4986 7.02689 1
    endloop
  endfacet
  facet normal 0.413754 0.910389 0
    outer loop
      vertex 13.8449 7.93909 0
      vertex 15.1281 7.3559 1
      vertex 15.1281 7.3559 0
    endloop
  endfacet
  facet normal 0.413754 0.910389 -0
    outer loop
      vertex 13.8449 7.93909 0
      vertex 13.8449 7.93909 1
      vertex 15.1281 7.3559 1
    endloop
  endfacet
  facet normal 0.579001 0.815327 0
    outer loop
      vertex 12.6957 8.75519 0
      vertex 13.8449 7.93909 1
      vertex 13.8449 7.93909 0
    endloop
  endfacet
  facet normal 0.579001 0.815327 -0
    outer loop
      vertex 12.6957 8.75519 0
      vertex 12.6957 8.75519 1
      vertex 13.8449 7.93909 1
    endloop
  endfacet
  facet normal 0.723275 0.69056 0
    outer loop
      vertex 11.7224 9.7746 0
      vertex 12.6957 8.75519 1
      vertex 12.6957 8.75519 0
    endloop
  endfacet
  facet normal 0.723275 0.69056 -0
    outer loop
      vertex 11.7224 9.7746 0
      vertex 11.7224 9.7746 1
      vertex 12.6957 8.75519 1
    endloop
  endfacet
  facet normal 0.841169 0.540772 0
    outer loop
      vertex 10.9602 10.9602 0
      vertex 11.7224 9.7746 1
      vertex 11.7224 9.7746 0
    endloop
  endfacet
  facet normal 0.841169 0.540772 -0
    outer loop
      vertex 10.9602 10.9602 0
      vertex 10.9602 10.9602 1
      vertex 11.7224 9.7746 1
    endloop
  endfacet
  facet normal 0.540772 0.841169 0
    outer loop
      vertex 9.7746 11.7224 0
      vertex 10.9602 10.9602 1
      vertex 10.9602 10.9602 0
    endloop
  endfacet
  facet normal 0.540772 0.841169 -0
    outer loop
      vertex 9.7746 11.7224 0
      vertex 9.7746 11.7224 1
      vertex 10.9602 10.9602 1
    endloop
  endfacet
  facet normal 0.69056 0.723275 0
    outer loop
      vertex 8.75519 12.6957 0
      vertex 9.7746 11.7224 1
      vertex 9.7746 11.7224 0
    endloop
  endfacet
  facet normal 0.69056 0.723275 -0
    outer loop
      vertex 8.75519 12.6957 0
      vertex 8.75519 12.6957 1
      vertex 9.7746 11.7224 1
    endloop
  endfacet
  facet normal 0.815327 0.579001 0
    outer loop
      vertex 7.93909 13.8449 0
      vertex 8.75519 12.6957 1
      vertex 8.75519 12.6957 0
    endloop
  endfacet
  facet normal 0.815327 0.579001 -0
    outer loop
      vertex 7.93909 13.8449 0
      vertex 7.93909 13.8449 1
      vertex 8.75519 12.6957 1
    endloop
  endfacet
  facet normal 0.910389 0.413754 0
    outer loop
      vertex 7.3559 15.1281 0
      vertex 7.93909 13.8449 1
      vertex 7.93909 13.8449 0
    endloop
  endfacet
  facet normal 0.910389 0.413754 -0
    outer loop
      vertex 7.3559 15.1281 0
      vertex 7.3559 15.1281 1
      vertex 7.93909 13.8449 1
    endloop
  endfacet
  facet normal 0.972373 0.233433 0
    outer loop
      vertex 7.02689 16.4986 0
      vertex 7.3559 15.1281 1
      vertex 7.3559 15.1281 0
    endloop
  endfacet
  facet normal 0.972373 0.233433 -0
    outer loop
      vertex 7.02689 16.4986 0
      vertex 7.02689 16.4986 1
      vertex 7.3559 15.1281 1
    endloop
  endfacet
  facet normal 0.999007 0.0445477 0
    outer loop
      vertex 6.9641 17.9067 0
      vertex 7.02689 16.4986 1
      vertex 7.02689 16.4986 0
    endloop
  endfacet
  facet normal 0.999007 0.0445477 -0
    outer loop
      vertex 6.9641 17.9067 0
      vertex 6.9641 17.9067 1
      vertex 7.02689 16.4986 1
    endloop
  endfacet
  facet normal 0.989315 -0.145793 0
    outer loop
      vertex 7.16959 19.3011 0
      vertex 6.9641 17.9067 1
      vertex 6.9641 17.9067 0
    endloop
  endfacet
  facet normal 0.989315 -0.145793 0
    outer loop
      vertex 7.16959 19.3011 0
      vertex 7.16959 19.3011 1
      vertex 6.9641 17.9067 1
    endloop
  endfacet
  facet normal 0.943637 -0.330982 0
    outer loop
      vertex 7.63609 20.6311 0
      vertex 7.16959 19.3011 1
      vertex 7.16959 19.3011 0
    endloop
  endfacet
  facet normal 0.943637 -0.330982 0
    outer loop
      vertex 7.63609 20.6311 0
      vertex 7.63609 20.6311 1
      vertex 7.16959 19.3011 1
    endloop
  endfacet
  facet normal 0.863681 -0.50404 0
    outer loop
      vertex 8.3465 21.8484 0
      vertex 7.63609 20.6311 1
      vertex 7.63609 20.6311 0
    endloop
  endfacet
  facet normal 0.863681 -0.50404 0
    outer loop
      vertex 8.3465 21.8484 0
      vertex 8.3465 21.8484 1
      vertex 7.63609 20.6311 1
    endloop
  endfacet
  facet normal 0.752316 -0.658802 0
    outer loop
      vertex 9.27509 22.9088 0
      vertex 8.3465 21.8484 1
      vertex 8.3465 21.8484 0
    endloop
  endfacet
  facet normal 0.752316 -0.658802 0
    outer loop
      vertex 9.27509 22.9088 0
      vertex 9.27509 22.9088 1
      vertex 8.3465 21.8484 1
    endloop
  endfacet
  facet normal 0.613588 -0.789626 0
    outer loop
      vertex 10.388 23.7736 0
      vertex 9.27509 22.9088 1
      vertex 9.27509 22.9088 0
    endloop
  endfacet
  facet normal 0.613588 -0.789626 0
    outer loop
      vertex 10.388 23.7736 0
      vertex 10.388 23.7736 1
      vertex 9.27509 22.9088 1
    endloop
  endfacet
  facet normal 0.452569 -0.891729 0
    outer loop
      vertex 11.6449 24.4115 0
      vertex 10.388 23.7736 1
      vertex 10.388 23.7736 0
    endloop
  endfacet
  facet normal 0.452569 -0.891729 0
    outer loop
      vertex 11.6449 24.4115 0
      vertex 11.6449 24.4115 1
      vertex 10.388 23.7736 1
    endloop
  endfacet
  facet normal 0.275068 -0.961425 0
    outer loop
      vertex 13 24.7992 0
      vertex 11.6449 24.4115 1
      vertex 11.6449 24.4115 0
    endloop
  endfacet
  facet normal 0.275068 -0.961425 0
    outer loop
      vertex 13 24.7992 0
      vertex 13 24.7992 1
      vertex 11.6449 24.4115 1
    endloop
  endfacet
  facet normal 0.515377 0.856964 0
    outer loop
      vertex 11.5705 25.6589 0
      vertex 13 24.7992 1
      vertex 13 24.7992 0
    endloop
  endfacet
  facet normal 0.515377 0.856964 -0
    outer loop
      vertex 11.5705 25.6589 0
      vertex 11.5705 25.6589 1
      vertex 13 24.7992 1
    endloop
  endfacet
  facet normal 0.34573 0.938334 0
    outer loop
      vertex 10.0053 26.2356 0
      vertex 11.5705 25.6589 1
      vertex 11.5705 25.6589 0
    endloop
  endfacet
  facet normal 0.34573 0.938334 -0
    outer loop
      vertex 10.0053 26.2356 0
      vertex 10.0053 26.2356 1
      vertex 11.5705 25.6589 1
    endloop
  endfacet
  facet normal 0.163961 0.986467 0
    outer loop
      vertex 8.35979 26.5091 0
      vertex 10.0053 26.2356 1
      vertex 10.0053 26.2356 0
    endloop
  endfacet
  facet normal 0.163961 0.986467 -0
    outer loop
      vertex 8.35979 26.5091 0
      vertex 8.35979 26.5091 1
      vertex 10.0053 26.2356 1
    endloop
  endfacet
  facet normal -0.0237386 0.999718 0
    outer loop
      vertex 6.69209 26.4695 0
      vertex 8.35979 26.5091 1
      vertex 8.35979 26.5091 0
    endloop
  endfacet
  facet normal -0.0237386 0.999718 0
    outer loop
      vertex 6.69209 26.4695 0
      vertex 6.69209 26.4695 1
      vertex 8.35979 26.5091 1
    endloop
  endfacet
  facet normal -0.210483 0.977598 0
    outer loop
      vertex 5.06139 26.1184 0
      vertex 6.69209 26.4695 1
      vertex 6.69209 26.4695 0
    endloop
  endfacet
  facet normal -0.210483 0.977598 0
    outer loop
      vertex 5.06139 26.1184 0
      vertex 5.06139 26.1184 1
      vertex 6.69209 26.4695 1
    endloop
  endfacet
  facet normal -0.389851 0.920878 0
    outer loop
      vertex 3.5253 25.4681 0
      vertex 5.06139 26.1184 1
      vertex 5.06139 26.1184 0
    endloop
  endfacet
  facet normal -0.389851 0.920878 0
    outer loop
      vertex 3.5253 25.4681 0
      vertex 3.5253 25.4681 1
      vertex 5.06139 26.1184 1
    endloop
  endfacet
  facet normal -0.555433 0.831561 0
    outer loop
      vertex 2.1382 24.5416 0
      vertex 3.5253 25.4681 1
      vertex 3.5253 25.4681 0
    endloop
  endfacet
  facet normal -0.555433 0.831561 0
    outer loop
      vertex 2.1382 24.5416 0
      vertex 2.1382 24.5416 1
      vertex 3.5253 25.4681 1
    endloop
  endfacet
  facet normal -0.701265 0.712901 0
    outer loop
      vertex 0.94899 23.3718 0
      vertex 2.1382 24.5416 1
      vertex 2.1382 24.5416 0
    endloop
  endfacet
  facet normal -0.701265 0.712901 0
    outer loop
      vertex 0.94899 23.3718 0
      vertex 0.94899 23.3718 1
      vertex 2.1382 24.5416 1
    endloop
  endfacet
  facet normal -0.822394 0.568919 0
    outer loop
      vertex 0 22 0
      vertex 0.94899 23.3718 1
      vertex 0.94899 23.3718 0
    endloop
  endfacet
  facet normal -0.822394 0.568919 0
    outer loop
      vertex 0 22 0
      vertex 0 22 1
      vertex 0.94899 23.3718 1
    endloop
  endfacet
  facet normal 0.283218 0.959056 0
    outer loop
      vertex -1.82419 22.5387 0
      vertex 0 22 1
      vertex 0 22 0
    endloop
  endfacet
  facet normal 0.283218 0.959056 -0
    outer loop
      vertex -1.82419 22.5387 0
      vertex -1.82419 22.5387 1
      vertex 0 22 1
    endloop
  endfacet
  facet normal 0.259187 0.965827 0
    outer loop
      vertex -3.66129 23.0317 0
      vertex -1.82419 22.5387 1
      vertex -1.82419 22.5387 0
    endloop
  endfacet
  facet normal 0.259187 0.965827 -0
    outer loop
      vertex -3.66129 23.0317 0
      vertex -3.66129 23.0317 1
      vertex -1.82419 22.5387 1
    endloop
  endfacet
  facet normal 0.234896 0.972021 0
    outer loop
      vertex -5.51019 23.4785 0
      vertex -3.66129 23.0317 1
      vertex -3.66129 23.0317 0
    endloop
  endfacet
  facet normal 0.234896 0.972021 -0
    outer loop
      vertex -5.51019 23.4785 0
      vertex -5.51019 23.4785 1
      vertex -3.66129 23.0317 1
    endloop
  endfacet
  facet normal 0.210461 0.977602 0
    outer loop
      vertex -7.3696 23.8788 0
      vertex -5.51019 23.4785 1
      vertex -5.51019 23.4785 0
    endloop
  endfacet
  facet normal 0.210461 0.977602 -0
    outer loop
      vertex -7.3696 23.8788 0
      vertex -7.3696 23.8788 1
      vertex -5.51019 23.4785 1
    endloop
  endfacet
  facet normal 0.185997 0.98255 0
    outer loop
      vertex -9.23859 24.2326 0
      vertex -7.3696 23.8788 1
      vertex -7.3696 23.8788 0
    endloop
  endfacet
  facet normal 0.185997 0.98255 -0
    outer loop
      vertex -9.23859 24.2326 0
      vertex -9.23859 24.2326 1
      vertex -7.3696 23.8788 1
    endloop
  endfacet
  facet normal 0.161302 0.986905 0
    outer loop
      vertex -11.1157 24.5394 0
      vertex -9.23859 24.2326 1
      vertex -9.23859 24.2326 0
    endloop
  endfacet
  facet normal 0.161302 0.986905 -0
    outer loop
      vertex -11.1157 24.5394 0
      vertex -11.1157 24.5394 1
      vertex -9.23859 24.2326 1
    endloop
  endfacet
  facet normal 0.136584 0.990628 0
    outer loop
      vertex -13 24.7992 0
      vertex -11.1157 24.5394 1
      vertex -11.1157 24.5394 0
    endloop
  endfacet
  facet normal 0.136584 0.990628 -0
    outer loop
      vertex -13 24.7992 0
      vertex -13 24.7992 1
      vertex -11.1157 24.5394 1
    endloop
  endfacet
  facet normal -0.975031 -0.222068 0
    outer loop
      vertex -12.6112 23.0921 0
      vertex -13 24.7992 1
      vertex -13 24.7992 0
    endloop
  endfacet
  facet normal -0.975031 -0.222068 0
    outer loop
      vertex -12.6112 23.0921 0
      vertex -12.6112 23.0921 1
      vertex -13 24.7992 1
    endloop
  endfacet
  facet normal -0.979721 -0.200365 0
    outer loop
      vertex -12.2604 21.3768 0
      vertex -12.6112 23.0921 1
      vertex -12.6112 23.0921 0
    endloop
  endfacet
  facet normal -0.979721 -0.200365 0
    outer loop
      vertex -12.2604 21.3768 0
      vertex -12.2604 21.3768 1
      vertex -12.6112 23.0921 1
    endloop
  endfacet
  facet normal -0.983922 -0.178599 0
    outer loop
      vertex -11.9477 19.6541 0
      vertex -12.2604 21.3768 1
      vertex -12.2604 21.3768 0
    endloop
  endfacet
  facet normal -0.983922 -0.178599 0
    outer loop
      vertex -11.9477 19.6541 0
      vertex -11.9477 19.6541 1
      vertex -12.2604 21.3768 1
    endloop
  endfacet
  facet normal -0.987633 -0.156781 0
    outer loop
      vertex -11.6732 17.9249 0
      vertex -11.9477 19.6541 1
      vertex -11.9477 19.6541 0
    endloop
  endfacet
  facet normal -0.987633 -0.156781 0
    outer loop
      vertex -11.6732 17.9249 0
      vertex -11.6732 17.9249 1
      vertex -11.9477 19.6541 1
    endloop
  endfacet
  facet normal -0.990866 -0.134853 0
    outer loop
      vertex -11.4371 16.1901 0
      vertex -11.6732 17.9249 1
      vertex -11.6732 17.9249 0
    endloop
  endfacet
  facet normal -0.990866 -0.134853 0
    outer loop
      vertex -11.4371 16.1901 0
      vertex -11.4371 16.1901 1
      vertex -11.6732 17.9249 1
    endloop
  endfacet
  facet normal -0.993611 -0.112857 0
    outer loop
      vertex -11.2395 14.4504 0
      vertex -11.4371 16.1901 1
      vertex -11.4371 16.1901 0
    endloop
  endfacet
  facet normal -0.993611 -0.112857 0
    outer loop
      vertex -11.2395 14.4504 0
      vertex -11.2395 14.4504 1
      vertex -11.4371 16.1901 1
    endloop
  endfacet
  facet normal -0.995868 -0.0908138 0
    outer loop
      vertex -11.0805 12.7068 0
      vertex -11.2395 14.4504 1
      vertex -11.2395 14.4504 0
    endloop
  endfacet
  facet normal -0.995868 -0.0908138 0
    outer loop
      vertex -11.0805 12.7068 0
      vertex -11.0805 12.7068 1
      vertex -11.2395 14.4504 1
    endloop
  endfacet
  facet normal -0.997636 -0.0687139 0
    outer loop
      vertex -10.9602 10.9602 0
      vertex -11.0805 12.7068 1
      vertex -11.0805 12.7068 0
    endloop
  endfacet
  facet normal -0.997636 -0.0687139 0
    outer loop
      vertex -10.9602 10.9602 0
      vertex -10.9602 10.9602 1
      vertex -11.0805 12.7068 1
    endloop
  endfacet
  facet normal 0.0687139 0.997636 0
    outer loop
      vertex -12.7068 11.0805 0
      vertex -10.9602 10.9602 1
      vertex -10.9602 10.9602 0
    endloop
  endfacet
  facet normal 0.0687139 0.997636 -0
    outer loop
      vertex -12.7068 11.0805 0
      vertex -12.7068 11.0805 1
      vertex -10.9602 10.9602 1
    endloop
  endfacet
  facet normal 0.0908138 0.995868 0
    outer loop
      vertex -14.4504 11.2395 0
      vertex -12.7068 11.0805 1
      vertex -12.7068 11.0805 0
    endloop
  endfacet
  facet normal 0.0908138 0.995868 -0
    outer loop
      vertex -14.4504 11.2395 0
      vertex -14.4504 11.2395 1
      vertex -12.7068 11.0805 1
    endloop
  endfacet
  facet normal 0.112857 0.993611 0
    outer loop
      vertex -16.1901 11.4371 0
      vertex -14.4504 11.2395 1
      vertex -14.4504 11.2395 0
    endloop
  endfacet
  facet normal 0.112857 0.993611 -0
    outer loop
      vertex -16.1901 11.4371 0
      vertex -16.1901 11.4371 1
      vertex -14.4504 11.2395 1
    endloop
  endfacet
  facet normal 0.134853 0.990866 0
    outer loop
      vertex -17.9249 11.6732 0
      vertex -16.1901 11.4371 1
      vertex -16.1901 11.4371 0
    endloop
  endfacet
  facet normal 0.134853 0.990866 -0
    outer loop
      vertex -17.9249 11.6732 0
      vertex -17.9249 11.6732 1
      vertex -16.1901 11.4371 1
    endloop
  endfacet
  facet normal 0.156781 0.987633 0
    outer loop
      vertex -19.6541 11.9477 0
      vertex -17.9249 11.6732 1
      vertex -17.9249 11.6732 0
    endloop
  endfacet
  facet normal 0.156781 0.987633 -0
    outer loop
      vertex -19.6541 11.9477 0
      vertex -19.6541 11.9477 1
      vertex -17.9249 11.6732 1
    endloop
  endfacet
  facet normal 0.178599 0.983922 0
    outer loop
      vertex -21.3768 12.2604 0
      vertex -19.6541 11.9477 1
      vertex -19.6541 11.9477 0
    endloop
  endfacet
  facet normal 0.178599 0.983922 -0
    outer loop
      vertex -21.3768 12.2604 0
      vertex -21.3768 12.2604 1
      vertex -19.6541 11.9477 1
    endloop
  endfacet
  facet normal 0.200365 0.979721 0
    outer loop
      vertex -23.0921 12.6112 0
      vertex -21.3768 12.2604 1
      vertex -21.3768 12.2604 0
    endloop
  endfacet
  facet normal 0.200365 0.979721 -0
    outer loop
      vertex -23.0921 12.6112 0
      vertex -23.0921 12.6112 1
      vertex -21.3768 12.2604 1
    endloop
  endfacet
  facet normal 0.222068 0.975031 0
    outer loop
      vertex -24.7992 13 0
      vertex -23.0921 12.6112 1
      vertex -23.0921 12.6112 0
    endloop
  endfacet
  facet normal 0.222068 0.975031 -0
    outer loop
      vertex -24.7992 13 0
      vertex -24.7992 13 1
      vertex -23.0921 12.6112 1
    endloop
  endfacet
  facet normal -0.990628 -0.136584 0
    outer loop
      vertex -24.5394 11.1157 0
      vertex -24.7992 13 1
      vertex -24.7992 13 0
    endloop
  endfacet
  facet normal -0.990628 -0.136584 0
    outer loop
      vertex -24.5394 11.1157 0
      vertex -24.5394 11.1157 1
      vertex -24.7992 13 1
    endloop
  endfacet
  facet normal -0.986905 -0.161302 0
    outer loop
      vertex -24.2326 9.23859 0
      vertex -24.5394 11.1157 1
      vertex -24.5394 11.1157 0
    endloop
  endfacet
  facet normal -0.986905 -0.161302 0
    outer loop
      vertex -24.2326 9.23859 0
      vertex -24.2326 9.23859 1
      vertex -24.5394 11.1157 1
    endloop
  endfacet
  facet normal -0.98255 -0.185997 0
    outer loop
      vertex -23.8788 7.3696 0
      vertex -24.2326 9.23859 1
      vertex -24.2326 9.23859 0
    endloop
  endfacet
  facet normal -0.98255 -0.185997 0
    outer loop
      vertex -23.8788 7.3696 0
      vertex -23.8788 7.3696 1
      vertex -24.2326 9.23859 1
    endloop
  endfacet
  facet normal -0.977602 -0.210461 0
    outer loop
      vertex -23.4785 5.51019 0
      vertex -23.8788 7.3696 1
      vertex -23.8788 7.3696 0
    endloop
  endfacet
  facet normal -0.977602 -0.210461 0
    outer loop
      vertex -23.4785 5.51019 0
      vertex -23.4785 5.51019 1
      vertex -23.8788 7.3696 1
    endloop
  endfacet
  facet normal -0.972021 -0.234896 0
    outer loop
      vertex -23.0317 3.66129 0
      vertex -23.4785 5.51019 1
      vertex -23.4785 5.51019 0
    endloop
  endfacet
  facet normal -0.972021 -0.234896 0
    outer loop
      vertex -23.0317 3.66129 0
      vertex -23.0317 3.66129 1
      vertex -23.4785 5.51019 1
    endloop
  endfacet
  facet normal -0.965827 -0.259187 0
    outer loop
      vertex -22.5387 1.82419 0
      vertex -23.0317 3.66129 1
      vertex -23.0317 3.66129 0
    endloop
  endfacet
  facet normal -0.965827 -0.259187 0
    outer loop
      vertex -22.5387 1.82419 0
      vertex -22.5387 1.82419 1
      vertex -23.0317 3.66129 1
    endloop
  endfacet
  facet normal -0.959056 -0.283218 0
    outer loop
      vertex -22 0 0
      vertex -22.5387 1.82419 1
      vertex -22.5387 1.82419 0
    endloop
  endfacet
  facet normal -0.959056 -0.283218 0
    outer loop
      vertex -22 0 0
      vertex -22 0 1
      vertex -22.5387 1.82419 1
    endloop
  endfacet
  facet normal -0.285198 0.958469 0
    outer loop
      vertex -23.3456 -0.400391 0
      vertex -22 0 1
      vertex -22 0 0
    endloop
  endfacet
  facet normal -0.285198 0.958469 0
    outer loop
      vertex -23.3456 -0.400391 0
      vertex -23.3456 -0.400391 1
      vertex -22 0 1
    endloop
  endfacet
  facet normal -0.46505 0.885285 0
    outer loop
      vertex -24.5885 -1.0533 0
      vertex -23.3456 -0.400391 1
      vertex -23.3456 -0.400391 0
    endloop
  endfacet
  facet normal -0.46505 0.885285 0
    outer loop
      vertex -24.5885 -1.0533 0
      vertex -24.5885 -1.0533 1
      vertex -23.3456 -0.400391 1
    endloop
  endfacet
  facet normal -0.627284 0.77879 0
    outer loop
      vertex -25.6819 -1.93399 0
      vertex -24.5885 -1.0533 1
      vertex -24.5885 -1.0533 0
    endloop
  endfacet
  facet normal -0.627284 0.77879 0
    outer loop
      vertex -25.6819 -1.93399 0
      vertex -25.6819 -1.93399 1
      vertex -24.5885 -1.0533 1
    endloop
  endfacet
  facet normal -0.766001 0.642839 0
    outer loop
      vertex -26.5844 -3.0094 0
      vertex -25.6819 -1.93399 1
      vertex -25.6819 -1.93399 0
    endloop
  endfacet
  facet normal -0.766001 0.642839 0
    outer loop
      vertex -26.5844 -3.0094 0
      vertex -26.5844 -3.0094 1
      vertex -25.6819 -1.93399 1
    endloop
  endfacet
  facet normal -0.875788 0.482695 0
    outer loop
      vertex -27.2621 -4.239 0
      vertex -26.5844 -3.0094 1
      vertex -26.5844 -3.0094 0
    endloop
  endfacet
  facet normal -0.875788 0.482695 0
    outer loop
      vertex -27.2621 -4.239 0
      vertex -27.2621 -4.239 1
      vertex -26.5844 -3.0094 1
    endloop
  endfacet
  facet normal -0.952534 0.304431 0
    outer loop
      vertex -27.6895 -5.57629 0
      vertex -27.2621 -4.239 1
      vertex -27.2621 -4.239 0
    endloop
  endfacet
  facet normal -0.952534 0.304431 0
    outer loop
      vertex -27.6895 -5.57629 0
      vertex -27.6895 -5.57629 1
      vertex -27.2621 -4.239 1
    endloop
  endfacet
  facet normal -0.993411 0.114605 0
    outer loop
      vertex -27.8504 -6.97099 0
      vertex -27.6895 -5.57629 1
      vertex -27.6895 -5.57629 0
    endloop
  endfacet
  facet normal -0.993411 0.114605 0
    outer loop
      vertex -27.8504 -6.97099 0
      vertex -27.8504 -6.97099 1
      vertex -27.6895 -5.57629 1
    endloop
  endfacet
  facet normal -0.996836 -0.0794899 0
    outer loop
      vertex -27.7388 -8.3705 0
      vertex -27.8504 -6.97099 1
      vertex -27.8504 -6.97099 0
    endloop
  endfacet
  facet normal -0.996836 -0.0794899 0
    outer loop
      vertex -27.7388 -8.3705 0
      vertex -27.7388 -8.3705 1
      vertex -27.8504 -6.97099 1
    endloop
  endfacet
  facet normal -0.96267 -0.270677 0
    outer loop
      vertex -27.3588 -9.72198 0
      vertex -27.7388 -8.3705 1
      vertex -27.7388 -8.3705 0
    endloop
  endfacet
  facet normal -0.96267 -0.270677 0
    outer loop
      vertex -27.3588 -9.72198 0
      vertex -27.3588 -9.72198 1
      vertex -27.7388 -8.3705 1
    endloop
  endfacet
  facet normal -0.892269 -0.451505 0
    outer loop
      vertex -26.7249 -10.9747 0
      vertex -27.3588 -9.72198 1
      vertex -27.3588 -9.72198 0
    endloop
  endfacet
  facet normal -0.892269 -0.451505 0
    outer loop
      vertex -26.7249 -10.9747 0
      vertex -26.7249 -10.9747 1
      vertex -27.3588 -9.72198 1
    endloop
  endfacet
  facet normal -0.788173 -0.615453 0
    outer loop
      vertex -25.8608 -12.0813 0
      vertex -26.7249 -10.9747 1
      vertex -26.7249 -10.9747 0
    endloop
  endfacet
  facet normal -0.788173 -0.615453 0
    outer loop
      vertex -25.8608 -12.0813 0
      vertex -25.8608 -12.0813 1
      vertex -26.7249 -10.9747 1
    endloop
  endfacet
  facet normal -0.65438 -0.756166 0
    outer loop
      vertex -24.7992 -13 0
      vertex -25.8608 -12.0813 1
      vertex -25.8608 -12.0813 0
    endloop
  endfacet
  facet normal -0.65438 -0.756166 0
    outer loop
      vertex -24.7992 -13 0
      vertex -24.7992 -13 1
      vertex -25.8608 -12.0813 1
    endloop
  endfacet
  facet normal 0.270978 -0.962585 0
    outer loop
      vertex -23.1101 -12.5245 0
      vertex -24.7992 -13 1
      vertex -24.7992 -13 0
    endloop
  endfacet
  facet normal 0.270978 -0.962585 0
    outer loop
      vertex -23.1101 -12.5245 0
      vertex -23.1101 -12.5245 1
      vertex -24.7992 -13 1
    endloop
  endfacet
  facet normal 0.235543 -0.971864 0
    outer loop
      vertex -21.4048 -12.1112 0
      vertex -23.1101 -12.5245 1
      vertex -23.1101 -12.5245 0
    endloop
  endfacet
  facet normal 0.235543 -0.971864 0
    outer loop
      vertex -21.4048 -12.1112 0
      vertex -21.4048 -12.1112 1
      vertex -23.1101 -12.5245 1
    endloop
  endfacet
  facet normal 0.199906 -0.979815 0
    outer loop
      vertex -19.6854 -11.7604 0
      vertex -21.4048 -12.1112 1
      vertex -21.4048 -12.1112 0
    endloop
  endfacet
  facet normal 0.199906 -0.979815 0
    outer loop
      vertex -19.6854 -11.7604 0
      vertex -19.6854 -11.7604 1
      vertex -21.4048 -12.1112 1
    endloop
  endfacet
  facet normal 0.163844 -0.986486 0
    outer loop
      vertex -17.9544 -11.4729 0
      vertex -19.6854 -11.7604 1
      vertex -19.6854 -11.7604 0
    endloop
  endfacet
  facet normal 0.163844 -0.986486 0
    outer loop
      vertex -17.9544 -11.4729 0
      vertex -17.9544 -11.4729 1
      vertex -19.6854 -11.7604 1
    endloop
  endfacet
  facet normal 0.127716 -0.991811 0
    outer loop
      vertex -16.2141 -11.2488 0
      vertex -17.9544 -11.4729 1
      vertex -17.9544 -11.4729 0
    endloop
  endfacet
  facet normal 0.127716 -0.991811 0
    outer loop
      vertex -16.2141 -11.2488 0
      vertex -16.2141 -11.2488 1
      vertex -17.9544 -11.4729 1
    endloop
  endfacet
  facet normal 0.0913527 -0.995819 0
    outer loop
      vertex -14.4667 -11.0885 0
      vertex -16.2141 -11.2488 1
      vertex -16.2141 -11.2488 0
    endloop
  endfacet
  facet normal 0.0913527 -0.995819 0
    outer loop
      vertex -14.4667 -11.0885 0
      vertex -14.4667 -11.0885 1
      vertex -16.2141 -11.2488 1
    endloop
  endfacet
  facet normal 0.054823 -0.998496 0
    outer loop
      vertex -12.7146 -10.9923 0
      vertex -14.4667 -11.0885 1
      vertex -14.4667 -11.0885 0
    endloop
  endfacet
  facet normal 0.054823 -0.998496 0
    outer loop
      vertex -12.7146 -10.9923 0
      vertex -12.7146 -10.9923 1
      vertex -14.4667 -11.0885 1
    endloop
  endfacet
  facet normal 0.0182938 -0.999833 0
    outer loop
      vertex -10.9602 -10.9602 0
      vertex -12.7146 -10.9923 1
      vertex -12.7146 -10.9923 0
    endloop
  endfacet
  facet normal 0.0182938 -0.999833 0
    outer loop
      vertex -10.9602 -10.9602 0
      vertex -10.9602 -10.9602 1
      vertex -12.7146 -10.9923 1
    endloop
  endfacet
  facet normal -0.999833 0.0182938 0
    outer loop
      vertex -10.9923 -12.7146 0
      vertex -10.9602 -10.9602 1
      vertex -10.9602 -10.9602 0
    endloop
  endfacet
  facet normal -0.999833 0.0182938 0
    outer loop
      vertex -10.9923 -12.7146 0
      vertex -10.9923 -12.7146 1
      vertex -10.9602 -10.9602 1
    endloop
  endfacet
  facet normal -0.998496 0.054823 0
    outer loop
      vertex -11.0885 -14.4667 0
      vertex -10.9923 -12.7146 1
      vertex -10.9923 -12.7146 0
    endloop
  endfacet
  facet normal -0.998496 0.054823 0
    outer loop
      vertex -11.0885 -14.4667 0
      vertex -11.0885 -14.4667 1
      vertex -10.9923 -12.7146 1
    endloop
  endfacet
  facet normal -0.995819 0.0913527 0
    outer loop
      vertex -11.2488 -16.2141 0
      vertex -11.0885 -14.4667 1
      vertex -11.0885 -14.4667 0
    endloop
  endfacet
  facet normal -0.995819 0.0913527 0
    outer loop
      vertex -11.2488 -16.2141 0
      vertex -11.2488 -16.2141 1
      vertex -11.0885 -14.4667 1
    endloop
  endfacet
  facet normal -0.991811 0.127716 0
    outer loop
      vertex -11.4729 -17.9544 0
      vertex -11.2488 -16.2141 1
      vertex -11.2488 -16.2141 0
    endloop
  endfacet
  facet normal -0.991811 0.127716 0
    outer loop
      vertex -11.4729 -17.9544 0
      vertex -11.4729 -17.9544 1
      vertex -11.2488 -16.2141 1
    endloop
  endfacet
  facet normal -0.986486 0.163844 0
    outer loop
      vertex -11.7604 -19.6854 0
      vertex -11.4729 -17.9544 1
      vertex -11.4729 -17.9544 0
    endloop
  endfacet
  facet normal -0.986486 0.163844 0
    outer loop
      vertex -11.7604 -19.6854 0
      vertex -11.7604 -19.6854 1
      vertex -11.4729 -17.9544 1
    endloop
  endfacet
  facet normal -0.979815 0.199906 0
    outer loop
      vertex -12.1112 -21.4048 0
      vertex -11.7604 -19.6854 1
      vertex -11.7604 -19.6854 0
    endloop
  endfacet
  facet normal -0.979815 0.199906 0
    outer loop
      vertex -12.1112 -21.4048 0
      vertex -12.1112 -21.4048 1
      vertex -11.7604 -19.6854 1
    endloop
  endfacet
  facet normal -0.971864 0.235543 0
    outer loop
      vertex -12.5245 -23.1101 0
      vertex -12.1112 -21.4048 1
      vertex -12.1112 -21.4048 0
    endloop
  endfacet
  facet normal -0.971864 0.235543 0
    outer loop
      vertex -12.5245 -23.1101 0
      vertex -12.5245 -23.1101 1
      vertex -12.1112 -21.4048 1
    endloop
  endfacet
  facet normal -0.962585 0.270978 0
    outer loop
      vertex -13 -24.7992 0
      vertex -12.5245 -23.1101 1
      vertex -12.5245 -23.1101 0
    endloop
  endfacet
  facet normal -0.962585 0.270978 0
    outer loop
      vertex -13 -24.7992 0
      vertex -13 -24.7992 1
      vertex -12.5245 -23.1101 1
    endloop
  endfacet
  facet normal -0.756166 -0.65438 0
    outer loop
      vertex -12.0813 -25.8608 0
      vertex -13 -24.7992 1
      vertex -13 -24.7992 0
    endloop
  endfacet
  facet normal -0.756166 -0.65438 0
    outer loop
      vertex -12.0813 -25.8608 0
      vertex -12.0813 -25.8608 1
      vertex -13 -24.7992 1
    endloop
  endfacet
  facet normal -0.615453 -0.788173 0
    outer loop
      vertex -10.9747 -26.7249 0
      vertex -12.0813 -25.8608 1
      vertex -12.0813 -25.8608 0
    endloop
  endfacet
  facet normal -0.615453 -0.788173 0
    outer loop
      vertex -10.9747 -26.7249 0
      vertex -10.9747 -26.7249 1
      vertex -12.0813 -25.8608 1
    endloop
  endfacet
  facet normal -0.451505 -0.892269 0
    outer loop
      vertex -9.72198 -27.3588 0
      vertex -10.9747 -26.7249 1
      vertex -10.9747 -26.7249 0
    endloop
  endfacet
  facet normal -0.451505 -0.892269 0
    outer loop
      vertex -9.72198 -27.3588 0
      vertex -9.72198 -27.3588 1
      vertex -10.9747 -26.7249 1
    endloop
  endfacet
  facet normal -0.270677 -0.96267 0
    outer loop
      vertex -8.3705 -27.7388 0
      vertex -9.72198 -27.3588 1
      vertex -9.72198 -27.3588 0
    endloop
  endfacet
  facet normal -0.270677 -0.96267 0
    outer loop
      vertex -8.3705 -27.7388 0
      vertex -8.3705 -27.7388 1
      vertex -9.72198 -27.3588 1
    endloop
  endfacet
  facet normal -0.0794899 -0.996836 0
    outer loop
      vertex -6.97099 -27.8504 0
      vertex -8.3705 -27.7388 1
      vertex -8.3705 -27.7388 0
    endloop
  endfacet
  facet normal -0.0794899 -0.996836 0
    outer loop
      vertex -6.97099 -27.8504 0
      vertex -6.97099 -27.8504 1
      vertex -8.3705 -27.7388 1
    endloop
  endfacet
  facet normal 0.114605 -0.993411 0
    outer loop
      vertex -5.57629 -27.6895 0
      vertex -6.97099 -27.8504 1
      vertex -6.97099 -27.8504 0
    endloop
  endfacet
  facet normal 0.114605 -0.993411 0
    outer loop
      vertex -5.57629 -27.6895 0
      vertex -5.57629 -27.6895 1
      vertex -6.97099 -27.8504 1
    endloop
  endfacet
endsolid OpenSCAD_Model
