solid OpenSCAD_Model
  facet normal -0 0 -1
    outer loop
      vertex 3.88229 -14.4889 0
      vertex 1.95789 -14.8717 0
      vertex 1.4142 -13.5858 0
    endloop
  endfacet
  facet normal 0 0 -1
    outer loop
      vertex 9.13139 -11.9003 0
      vertex 7.5 -12.9904 0
      vertex 1.4142 -13.5858 0
    endloop
  endfacet
  facet normal -0 0 -1
    outer loop
      vertex 9.13139 -11.9003 0
      vertex 1.4142 -13.5858 0
      vertex 10.6066 -10.6066 0
    endloop
  endfacet
  facet normal 0 0 -1
    outer loop
      vertex 3.88229 -14.4889 0
      vertex 1.4142 -13.5858 0
      vertex 5.7403 -13.8582 0
    endloop
  endfacet
  facet normal 0 0 -1
    outer loop
      vertex 12.9904 -7.5 0
      vertex 13.5858 -1.4142 0
      vertex 13.8582 -5.7403 0
    endloop
  endfacet
  facet normal -0 -0 -1
    outer loop
      vertex 10.6066 10.6066 0
      vertex 13.5858 1.4142 0
      vertex 1.4142 13.5858 0
    endloop
  endfacet
  facet normal 0 0 -1
    outer loop
      vertex 13.5858 -1.4142 0
      vertex 13.8099 -1.14719 0
      vertex 14.8717 -1.95789 0
    endloop
  endfacet
  facet normal 0 0 -1
    outer loop
      vertex 14.8717 -1.95789 0
      vertex 14.1034 -0.517593 0
      vertex 15 0 0
    endloop
  endfacet
  facet normal 0 0 -1
    outer loop
      vertex 15 0 0
      vertex 14.164 0.174286 0
      vertex 14.1034 0.517593 0
    endloop
  endfacet
  facet normal -0 0 -1
    outer loop
      vertex 15 0 0
      vertex 14.164 -0.174286 0
      vertex 14.164 0.174286 0
    endloop
  endfacet
  facet normal 0 0 -1
    outer loop
      vertex 10.6066 10.6066 0
      vertex 11.9003 9.13139 0
      vertex 13.5858 1.4142 0
    endloop
  endfacet
  facet normal -0 0 -1
    outer loop
      vertex 13.8582 5.7403 0
      vertex 13.5858 1.4142 0
      vertex 12.9904 7.5 0
    endloop
  endfacet
  facet normal 0 0 -1
    outer loop
      vertex 11.9003 9.13139 0
      vertex 12.9904 7.5 0
      vertex 13.5858 1.4142 0
    endloop
  endfacet
  facet normal -0 0 -1
    outer loop
      vertex 14.8717 1.95789 0
      vertex 13.5858 1.4142 0
      vertex 14.4889 3.88229 0
    endloop
  endfacet
  facet normal 0 0 -1
    outer loop
      vertex 1.4142 13.5858 0
      vertex 7.5 12.9904 0
      vertex 9.13139 11.9003 0
    endloop
  endfacet
  facet normal 0 0 -1
    outer loop
      vertex 13.5858 -1.4142 0
      vertex 14.8717 -1.95789 0
      vertex 14.4889 -3.88229 0
    endloop
  endfacet
  facet normal 0 0 -1
    outer loop
      vertex 7.5 12.9904 0
      vertex 1.4142 13.5858 0
      vertex 5.7403 13.8582 0
    endloop
  endfacet
  facet normal 0 -0 -1
    outer loop
      vertex -9.13139 11.9003 0
      vertex -1.4142 13.5858 0
      vertex -10.6066 10.6066 0
    endloop
  endfacet
  facet normal 0 0 -1
    outer loop
      vertex 1.4142 13.5858 0
      vertex 1.14719 13.8099 0
      vertex 1.95789 14.8717 0
    endloop
  endfacet
  facet normal -0 0 -1
    outer loop
      vertex 1.95789 14.8717 0
      vertex 0.517593 14.1034 0
      vertex 0 15 0
    endloop
  endfacet
  facet normal 0 -0 -1
    outer loop
      vertex 0 15 0
      vertex 0.174286 14.164 0
      vertex -0.174286 14.164 0
    endloop
  endfacet
  facet normal 0 0 -1
    outer loop
      vertex -1.95789 14.8717 0
      vertex -1.14719 13.8099 0
      vertex -1.4142 13.5858 0
    endloop
  endfacet
  facet normal 0 -0 -1
    outer loop
      vertex -10.6066 10.6066 0
      vertex -1.4142 13.5858 0
      vertex -13.5858 1.4142 0
    endloop
  endfacet
  facet normal 0 -0 -1
    outer loop
      vertex -5.7403 13.8582 0
      vertex -1.4142 13.5858 0
      vertex -7.5 12.9904 0
    endloop
  endfacet
  facet normal 0 0 -1
    outer loop
      vertex -9.13139 11.9003 0
      vertex -7.5 12.9904 0
      vertex -1.4142 13.5858 0
    endloop
  endfacet
  facet normal 0 -0 -1
    outer loop
      vertex -1.95789 14.8717 0
      vertex -1.4142 13.5858 0
      vertex -3.88229 14.4889 0
    endloop
  endfacet
  facet normal 0 0 -1
    outer loop
      vertex 1.4142 13.5858 0
      vertex 1.95789 14.8717 0
      vertex 3.88229 14.4889 0
    endloop
  endfacet
  facet normal 0 0 -1
    outer loop
      vertex -12.9904 7.5 0
      vertex -13.5858 1.4142 0
      vertex -13.8582 5.7403 0
    endloop
  endfacet
  facet normal 0 0 -1
    outer loop
      vertex -14.8717 -1.95789 0
      vertex -13.5858 -1.4142 0
      vertex -14.4889 -3.88229 0
    endloop
  endfacet
  facet normal -0 0 -1
    outer loop
      vertex -13.5858 1.4142 0
      vertex -13.8345 1.1111 0
      vertex -14.8717 1.95789 0
    endloop
  endfacet
  facet normal 0 -0 -1
    outer loop
      vertex -14.8717 1.95789 0
      vertex -14.0193 0.765396 0
      vertex -15 0 0
    endloop
  endfacet
  facet normal 0 0 -1
    outer loop
      vertex -15 0 0
      vertex -14.1716 0 0
      vertex -14.1331 -0.390198 0
    endloop
  endfacet
  facet normal 0 0 -1
    outer loop
      vertex -14.8717 -1.95789 0
      vertex -13.8345 -1.1111 0
      vertex -13.5858 -1.4142 0
    endloop
  endfacet
  facet normal 0 0 -1
    outer loop
      vertex -13.5858 -1.4142 0
      vertex -11.9003 -9.13139 0
      vertex -12.9904 -7.5 0
    endloop
  endfacet
  facet normal 0 0 -1
    outer loop
      vertex -13.8582 -5.7403 0
      vertex -13.5858 -1.4142 0
      vertex -12.9904 -7.5 0
    endloop
  endfacet
  facet normal 0 0 -1
    outer loop
      vertex -13.5858 -1.4142 0
      vertex -10.6066 -10.6066 0
      vertex -11.9003 -9.13139 0
    endloop
  endfacet
  facet normal 0 0 -1
    outer loop
      vertex -1.4142 -13.5858 0
      vertex -9.13139 -11.9003 0
      vertex -10.6066 -10.6066 0
    endloop
  endfacet
  facet normal 0 0 -1
    outer loop
      vertex -13.5858 1.4142 0
      vertex -14.4889 3.88229 0
      vertex -13.8582 5.7403 0
    endloop
  endfacet
  facet normal 0 -0 -1
    outer loop
      vertex -11.9003 9.13139 0
      vertex -10.6066 10.6066 0
      vertex -13.5858 1.4142 0
    endloop
  endfacet
  facet normal 0 0 -1
    outer loop
      vertex -1.4142 -13.5858 0
      vertex -3.88229 -14.4889 0
      vertex -5.7403 -13.8582 0
    endloop
  endfacet
  facet normal 0 0 -1
    outer loop
      vertex 1.95789 -14.8717 0
      vertex 0.8452 -13.9842 0
      vertex 1.14719 -13.8099 0
    endloop
  endfacet
  facet normal 0 -0 -1
    outer loop
      vertex -1.14719 -13.8099 0
      vertex -0.8452 -13.9842 0
      vertex -1.95789 -14.8717 0
    endloop
  endfacet
  facet normal 0 0 -1
    outer loop
      vertex -1.95789 -14.8717 0
      vertex -0.517593 -14.1034 0
      vertex 0 -15 0
    endloop
  endfacet
  facet normal 0 0 -1
    outer loop
      vertex 0 -15 0
      vertex -0.517593 -14.1034 0
      vertex -0.174286 -14.164 0
    endloop
  endfacet
  facet normal -0 0 -1
    outer loop
      vertex 0.174286 -14.164 0
      vertex 0 -15 0
      vertex -0.174286 -14.164 0
    endloop
  endfacet
  facet normal 0 0 -1
    outer loop
      vertex 1.4142 -13.5858 0
      vertex 13.5858 -1.4142 0
      vertex 10.6066 -10.6066 0
    endloop
  endfacet
  facet normal -0 0 -1
    outer loop
      vertex -1.14719 -13.8099 0
      vertex -1.95789 -14.8717 0
      vertex -1.4142 -13.5858 0
    endloop
  endfacet
  facet normal 0 0 -1
    outer loop
      vertex -1.95789 -14.8717 0
      vertex -0.8452 -13.9842 0
      vertex -0.517593 -14.1034 0
    endloop
  endfacet
  facet normal 0 0 -1
    outer loop
      vertex -1.4142 -13.5858 0
      vertex -1.95789 -14.8717 0
      vertex -3.88229 -14.4889 0
    endloop
  endfacet
  facet normal 0 0 -1
    outer loop
      vertex -7.5 -12.9904 0
      vertex -9.13139 -11.9003 0
      vertex -1.4142 -13.5858 0
    endloop
  endfacet
  facet normal 0 0 -1
    outer loop
      vertex -7.5 -12.9904 0
      vertex -1.4142 -13.5858 0
      vertex -5.7403 -13.8582 0
    endloop
  endfacet
  facet normal 0 0 -1
    outer loop
      vertex -1.4142 -13.5858 0
      vertex -10.6066 -10.6066 0
      vertex -13.5858 -1.4142 0
    endloop
  endfacet
  facet normal 0 0 -1
    outer loop
      vertex -13.8582 -5.7403 0
      vertex -14.4889 -3.88229 0
      vertex -13.5858 -1.4142 0
    endloop
  endfacet
  facet normal 0 0 -1
    outer loop
      vertex -14.8717 -1.95789 0
      vertex -14.0193 -0.765396 0
      vertex -13.8345 -1.1111 0
    endloop
  endfacet
  facet normal 0 0 -1
    outer loop
      vertex -14.8717 -1.95789 0
      vertex -15 0 0
      vertex -14.0193 -0.765396 0
    endloop
  endfacet
  facet normal 0 0 -1
    outer loop
      vertex -14.0193 -0.765396 0
      vertex -15 0 0
      vertex -14.1331 -0.390198 0
    endloop
  endfacet
  facet normal 0 0 -1
    outer loop
      vertex -15 0 0
      vertex -14.1331 0.390198 0
      vertex -14.1716 0 0
    endloop
  endfacet
  facet normal 0 0 -1
    outer loop
      vertex -15 0 0
      vertex -14.0193 0.765396 0
      vertex -14.1331 0.390198 0
    endloop
  endfacet
  facet normal 0 0 -1
    outer loop
      vertex -14.8717 1.95789 0
      vertex -13.8345 1.1111 0
      vertex -14.0193 0.765396 0
    endloop
  endfacet
  facet normal 0 -0 -1
    outer loop
      vertex -14.4889 3.88229 0
      vertex -13.5858 1.4142 0
      vertex -14.8717 1.95789 0
    endloop
  endfacet
  facet normal 0 -0 -1
    outer loop
      vertex -12.9904 7.5 0
      vertex -11.9003 9.13139 0
      vertex -13.5858 1.4142 0
    endloop
  endfacet
  facet normal 0 0 -1
    outer loop
      vertex -5.7403 13.8582 0
      vertex -3.88229 14.4889 0
      vertex -1.4142 13.5858 0
    endloop
  endfacet
  facet normal 0 0 -1
    outer loop
      vertex -1.95789 14.8717 0
      vertex -0.8452 13.9842 0
      vertex -1.14719 13.8099 0
    endloop
  endfacet
  facet normal 0 0 -1
    outer loop
      vertex -1.95789 14.8717 0
      vertex -0.517593 14.1034 0
      vertex -0.8452 13.9842 0
    endloop
  endfacet
  facet normal 0 0 -1
    outer loop
      vertex -1.95789 14.8717 0
      vertex 0 15 0
      vertex -0.517593 14.1034 0
    endloop
  endfacet
  facet normal 0 0 -1
    outer loop
      vertex -0.517593 14.1034 0
      vertex 0 15 0
      vertex -0.174286 14.164 0
    endloop
  endfacet
  facet normal 0 0 -1
    outer loop
      vertex 0 15 0
      vertex 0.517593 14.1034 0
      vertex 0.174286 14.164 0
    endloop
  endfacet
  facet normal 0 0 -1
    outer loop
      vertex 1.95789 14.8717 0
      vertex 0.8452 13.9842 0
      vertex 0.517593 14.1034 0
    endloop
  endfacet
  facet normal 0 0 -1
    outer loop
      vertex 1.95789 14.8717 0
      vertex 1.14719 13.8099 0
      vertex 0.8452 13.9842 0
    endloop
  endfacet
  facet normal -0 0 -1
    outer loop
      vertex 5.7403 13.8582 0
      vertex 1.4142 13.5858 0
      vertex 3.88229 14.4889 0
    endloop
  endfacet
  facet normal -0 -0 -1
    outer loop
      vertex 9.13139 11.9003 0
      vertex 10.6066 10.6066 0
      vertex 1.4142 13.5858 0
    endloop
  endfacet
  facet normal 0 -0 -1
    outer loop
      vertex 13.8582 5.7403 0
      vertex 14.4889 3.88229 0
      vertex 13.5858 1.4142 0
    endloop
  endfacet
  facet normal 0 0 -1
    outer loop
      vertex 13.8099 1.14719 0
      vertex 13.5858 1.4142 0
      vertex 14.8717 1.95789 0
    endloop
  endfacet
  facet normal 0 0 -1
    outer loop
      vertex 13.9842 0.8452 0
      vertex 13.8099 1.14719 0
      vertex 14.8717 1.95789 0
    endloop
  endfacet
  facet normal 0 0 -1
    outer loop
      vertex 13.8099 -1.14719 0
      vertex 13.9842 -0.8452 0
      vertex 14.8717 -1.95789 0
    endloop
  endfacet
  facet normal 0 0 -1
    outer loop
      vertex 14.1034 0.517593 0
      vertex 13.9842 0.8452 0
      vertex 14.8717 1.95789 0
    endloop
  endfacet
  facet normal 0 0 -1
    outer loop
      vertex 15 0 0
      vertex 14.1034 0.517593 0
      vertex 14.8717 1.95789 0
    endloop
  endfacet
  facet normal 0 0 -1
    outer loop
      vertex 15 0 0
      vertex 14.1034 -0.517593 0
      vertex 14.164 -0.174286 0
    endloop
  endfacet
  facet normal 0 0 -1
    outer loop
      vertex 14.8717 -1.95789 0
      vertex 13.9842 -0.8452 0
      vertex 14.1034 -0.517593 0
    endloop
  endfacet
  facet normal 0 0 -1
    outer loop
      vertex 13.5858 -1.4142 0
      vertex 14.4889 -3.88229 0
      vertex 13.8582 -5.7403 0
    endloop
  endfacet
  facet normal -0 0 -1
    outer loop
      vertex 12.9904 -7.5 0
      vertex 11.9003 -9.13139 0
      vertex 13.5858 -1.4142 0
    endloop
  endfacet
  facet normal 0 0 -1
    outer loop
      vertex 13.5858 -1.4142 0
      vertex 11.9003 -9.13139 0
      vertex 10.6066 -10.6066 0
    endloop
  endfacet
  facet normal 0 0 -1
    outer loop
      vertex 1.4142 -13.5858 0
      vertex 7.5 -12.9904 0
      vertex 5.7403 -13.8582 0
    endloop
  endfacet
  facet normal 0 0 -1
    outer loop
      vertex 1.14719 -13.8099 0
      vertex 1.4142 -13.5858 0
      vertex 1.95789 -14.8717 0
    endloop
  endfacet
  facet normal 0 -0 -1
    outer loop
      vertex 0.8452 -13.9842 0
      vertex 1.95789 -14.8717 0
      vertex 0.517593 -14.1034 0
    endloop
  endfacet
  facet normal 0 -0 -1
    outer loop
      vertex 0.174286 -14.164 0
      vertex 0.517593 -14.1034 0
      vertex 0 -15 0
    endloop
  endfacet
  facet normal 0 -0 -1
    outer loop
      vertex 0.517593 -14.1034 0
      vertex 1.95789 -14.8717 0
      vertex 0 -15 0
    endloop
  endfacet
  facet normal 0 0 1
    outer loop
      vertex 1.4142 -13.5858 1
      vertex 1.95789 -14.8717 1
      vertex 3.88229 -14.4889 1
    endloop
  endfacet
  facet normal 0 0 1
    outer loop
      vertex 1.4142 -13.5858 1
      vertex 7.5 -12.9904 1
      vertex 9.13139 -11.9003 1
    endloop
  endfacet
  facet normal 0 0 1
    outer loop
      vertex 10.6066 -10.6066 1
      vertex 1.4142 -13.5858 1
      vertex 9.13139 -11.9003 1
    endloop
  endfacet
  facet normal 0 0 1
    outer loop
      vertex 5.7403 -13.8582 1
      vertex 1.4142 -13.5858 1
      vertex 3.88229 -14.4889 1
    endloop
  endfacet
  facet normal 0 0 1
    outer loop
      vertex 13.8582 -5.7403 1
      vertex 13.5858 -1.4142 1
      vertex 12.9904 -7.5 1
    endloop
  endfacet
  facet normal 0 0 1
    outer loop
      vertex 1.4142 13.5858 1
      vertex 13.5858 1.4142 1
      vertex 10.6066 10.6066 1
    endloop
  endfacet
  facet normal 0 0 1
    outer loop
      vertex 14.8717 -1.95789 1
      vertex 13.8099 -1.14719 1
      vertex 13.5858 -1.4142 1
    endloop
  endfacet
  facet normal 0 0 1
    outer loop
      vertex 15 0 1
      vertex 14.1034 -0.517593 1
      vertex 14.8717 -1.95789 1
    endloop
  endfacet
  facet normal 0 0 1
    outer loop
      vertex 14.1034 0.517593 1
      vertex 14.164 0.174286 1
      vertex 15 0 1
    endloop
  endfacet
  facet normal 0 0 1
    outer loop
      vertex 14.164 0.174286 1
      vertex 14.164 -0.174286 1
      vertex 15 0 1
    endloop
  endfacet
  facet normal 0 0 1
    outer loop
      vertex 13.5858 1.4142 1
      vertex 11.9003 9.13139 1
      vertex 10.6066 10.6066 1
    endloop
  endfacet
  facet normal 0 0 1
    outer loop
      vertex 12.9904 7.5 1
      vertex 13.5858 1.4142 1
      vertex 13.8582 5.7403 1
    endloop
  endfacet
  facet normal 0 0 1
    outer loop
      vertex 13.5858 1.4142 1
      vertex 12.9904 7.5 1
      vertex 11.9003 9.13139 1
    endloop
  endfacet
  facet normal 0 0 1
    outer loop
      vertex 14.4889 3.88229 1
      vertex 13.5858 1.4142 1
      vertex 14.8717 1.95789 1
    endloop
  endfacet
  facet normal 0 0 1
    outer loop
      vertex 9.13139 11.9003 1
      vertex 7.5 12.9904 1
      vertex 1.4142 13.5858 1
    endloop
  endfacet
  facet normal 0 -0 1
    outer loop
      vertex 14.4889 -3.88229 1
      vertex 14.8717 -1.95789 1
      vertex 13.5858 -1.4142 1
    endloop
  endfacet
  facet normal 0 0 1
    outer loop
      vertex 5.7403 13.8582 1
      vertex 1.4142 13.5858 1
      vertex 7.5 12.9904 1
    endloop
  endfacet
  facet normal 0 0 1
    outer loop
      vertex -10.6066 10.6066 1
      vertex -1.4142 13.5858 1
      vertex -9.13139 11.9003 1
    endloop
  endfacet
  facet normal 0 0 1
    outer loop
      vertex 1.95789 14.8717 1
      vertex 1.14719 13.8099 1
      vertex 1.4142 13.5858 1
    endloop
  endfacet
  facet normal 0 0 1
    outer loop
      vertex 0 15 1
      vertex 0.517593 14.1034 1
      vertex 1.95789 14.8717 1
    endloop
  endfacet
  facet normal 0 0 1
    outer loop
      vertex -0.174286 14.164 1
      vertex 0.174286 14.164 1
      vertex 0 15 1
    endloop
  endfacet
  facet normal 0 -0 1
    outer loop
      vertex -1.4142 13.5858 1
      vertex -1.14719 13.8099 1
      vertex -1.95789 14.8717 1
    endloop
  endfacet
  facet normal 0 0 1
    outer loop
      vertex -13.5858 1.4142 1
      vertex -1.4142 13.5858 1
      vertex -10.6066 10.6066 1
    endloop
  endfacet
  facet normal 0 0 1
    outer loop
      vertex -7.5 12.9904 1
      vertex -1.4142 13.5858 1
      vertex -5.7403 13.8582 1
    endloop
  endfacet
  facet normal 0 0 1
    outer loop
      vertex -1.4142 13.5858 1
      vertex -7.5 12.9904 1
      vertex -9.13139 11.9003 1
    endloop
  endfacet
  facet normal -0 0 1
    outer loop
      vertex -3.88229 14.4889 1
      vertex -1.4142 13.5858 1
      vertex -1.95789 14.8717 1
    endloop
  endfacet
  facet normal 0 0 1
    outer loop
      vertex 3.88229 14.4889 1
      vertex 1.95789 14.8717 1
      vertex 1.4142 13.5858 1
    endloop
  endfacet
  facet normal -0 0 1
    outer loop
      vertex -13.8582 5.7403 1
      vertex -13.5858 1.4142 1
      vertex -12.9904 7.5 1
    endloop
  endfacet
  facet normal 0 -0 1
    outer loop
      vertex -14.4889 -3.88229 1
      vertex -13.5858 -1.4142 1
      vertex -14.8717 -1.95789 1
    endloop
  endfacet
  facet normal 0 0 1
    outer loop
      vertex -14.8717 1.95789 1
      vertex -13.8345 1.1111 1
      vertex -13.5858 1.4142 1
    endloop
  endfacet
  facet normal 0 0 1
    outer loop
      vertex -15 0 1
      vertex -14.0193 0.765396 1
      vertex -14.8717 1.95789 1
    endloop
  endfacet
  facet normal 0 0 1
    outer loop
      vertex -14.1331 -0.390198 1
      vertex -14.1716 0 1
      vertex -15 0 1
    endloop
  endfacet
  facet normal 0 0 1
    outer loop
      vertex -13.5858 -1.4142 1
      vertex -13.8345 -1.1111 1
      vertex -14.8717 -1.95789 1
    endloop
  endfacet
  facet normal -0 -0 1
    outer loop
      vertex -12.9904 -7.5 1
      vertex -11.9003 -9.13139 1
      vertex -13.5858 -1.4142 1
    endloop
  endfacet
  facet normal 0 0 1
    outer loop
      vertex -12.9904 -7.5 1
      vertex -13.5858 -1.4142 1
      vertex -13.8582 -5.7403 1
    endloop
  endfacet
  facet normal -0 -0 1
    outer loop
      vertex -11.9003 -9.13139 1
      vertex -10.6066 -10.6066 1
      vertex -13.5858 -1.4142 1
    endloop
  endfacet
  facet normal 0 0 1
    outer loop
      vertex -10.6066 -10.6066 1
      vertex -9.13139 -11.9003 1
      vertex -1.4142 -13.5858 1
    endloop
  endfacet
  facet normal 0 0 1
    outer loop
      vertex -13.8582 5.7403 1
      vertex -14.4889 3.88229 1
      vertex -13.5858 1.4142 1
    endloop
  endfacet
  facet normal 0 0 1
    outer loop
      vertex -13.5858 1.4142 1
      vertex -10.6066 10.6066 1
      vertex -11.9003 9.13139 1
    endloop
  endfacet
  facet normal -0 0 1
    outer loop
      vertex -5.7403 -13.8582 1
      vertex -3.88229 -14.4889 1
      vertex -1.4142 -13.5858 1
    endloop
  endfacet
  facet normal 0 0 1
    outer loop
      vertex 1.14719 -13.8099 1
      vertex 0.8452 -13.9842 1
      vertex 1.95789 -14.8717 1
    endloop
  endfacet
  facet normal 0 0 1
    outer loop
      vertex -1.95789 -14.8717 1
      vertex -0.8452 -13.9842 1
      vertex -1.14719 -13.8099 1
    endloop
  endfacet
  facet normal 0 0 1
    outer loop
      vertex 0 -15 1
      vertex -0.517593 -14.1034 1
      vertex -1.95789 -14.8717 1
    endloop
  endfacet
  facet normal 0 0 1
    outer loop
      vertex -0.174286 -14.164 1
      vertex -0.517593 -14.1034 1
      vertex 0 -15 1
    endloop
  endfacet
  facet normal -0 0 1
    outer loop
      vertex -0.174286 -14.164 1
      vertex 0 -15 1
      vertex 0.174286 -14.164 1
    endloop
  endfacet
  facet normal 0 -0 1
    outer loop
      vertex 10.6066 -10.6066 1
      vertex 13.5858 -1.4142 1
      vertex 1.4142 -13.5858 1
    endloop
  endfacet
  facet normal 0 0 1
    outer loop
      vertex -1.4142 -13.5858 1
      vertex -1.95789 -14.8717 1
      vertex -1.14719 -13.8099 1
    endloop
  endfacet
  facet normal 0 0 1
    outer loop
      vertex -0.517593 -14.1034 1
      vertex -0.8452 -13.9842 1
      vertex -1.95789 -14.8717 1
    endloop
  endfacet
  facet normal -0 0 1
    outer loop
      vertex -3.88229 -14.4889 1
      vertex -1.95789 -14.8717 1
      vertex -1.4142 -13.5858 1
    endloop
  endfacet
  facet normal 0 0 1
    outer loop
      vertex -1.4142 -13.5858 1
      vertex -9.13139 -11.9003 1
      vertex -7.5 -12.9904 1
    endloop
  endfacet
  facet normal 0 -0 1
    outer loop
      vertex -5.7403 -13.8582 1
      vertex -1.4142 -13.5858 1
      vertex -7.5 -12.9904 1
    endloop
  endfacet
  facet normal 0 0 1
    outer loop
      vertex -13.5858 -1.4142 1
      vertex -10.6066 -10.6066 1
      vertex -1.4142 -13.5858 1
    endloop
  endfacet
  facet normal 0 0 1
    outer loop
      vertex -13.5858 -1.4142 1
      vertex -14.4889 -3.88229 1
      vertex -13.8582 -5.7403 1
    endloop
  endfacet
  facet normal 0 0 1
    outer loop
      vertex -13.8345 -1.1111 1
      vertex -14.0193 -0.765396 1
      vertex -14.8717 -1.95789 1
    endloop
  endfacet
  facet normal 0 0 1
    outer loop
      vertex -14.0193 -0.765396 1
      vertex -15 0 1
      vertex -14.8717 -1.95789 1
    endloop
  endfacet
  facet normal 0 0 1
    outer loop
      vertex -14.1331 -0.390198 1
      vertex -15 0 1
      vertex -14.0193 -0.765396 1
    endloop
  endfacet
  facet normal 0 -0 1
    outer loop
      vertex -14.1716 0 1
      vertex -14.1331 0.390198 1
      vertex -15 0 1
    endloop
  endfacet
  facet normal 0 -0 1
    outer loop
      vertex -14.1331 0.390198 1
      vertex -14.0193 0.765396 1
      vertex -15 0 1
    endloop
  endfacet
  facet normal 0 -0 1
    outer loop
      vertex -14.0193 0.765396 1
      vertex -13.8345 1.1111 1
      vertex -14.8717 1.95789 1
    endloop
  endfacet
  facet normal -0 0 1
    outer loop
      vertex -14.8717 1.95789 1
      vertex -13.5858 1.4142 1
      vertex -14.4889 3.88229 1
    endloop
  endfacet
  facet normal 0 0 1
    outer loop
      vertex -13.5858 1.4142 1
      vertex -11.9003 9.13139 1
      vertex -12.9904 7.5 1
    endloop
  endfacet
  facet normal 0 0 1
    outer loop
      vertex -1.4142 13.5858 1
      vertex -3.88229 14.4889 1
      vertex -5.7403 13.8582 1
    endloop
  endfacet
  facet normal 0 -0 1
    outer loop
      vertex -1.14719 13.8099 1
      vertex -0.8452 13.9842 1
      vertex -1.95789 14.8717 1
    endloop
  endfacet
  facet normal 0 -0 1
    outer loop
      vertex -0.8452 13.9842 1
      vertex -0.517593 14.1034 1
      vertex -1.95789 14.8717 1
    endloop
  endfacet
  facet normal 0 -0 1
    outer loop
      vertex -0.517593 14.1034 1
      vertex 0 15 1
      vertex -1.95789 14.8717 1
    endloop
  endfacet
  facet normal 0 -0 1
    outer loop
      vertex -0.174286 14.164 1
      vertex 0 15 1
      vertex -0.517593 14.1034 1
    endloop
  endfacet
  facet normal -0 -0 1
    outer loop
      vertex 0.174286 14.164 1
      vertex 0.517593 14.1034 1
      vertex 0 15 1
    endloop
  endfacet
  facet normal -0 0 1
    outer loop
      vertex 0.517593 14.1034 1
      vertex 0.8452 13.9842 1
      vertex 1.95789 14.8717 1
    endloop
  endfacet
  facet normal -0 0 1
    outer loop
      vertex 0.8452 13.9842 1
      vertex 1.14719 13.8099 1
      vertex 1.95789 14.8717 1
    endloop
  endfacet
  facet normal 0 0 1
    outer loop
      vertex 3.88229 14.4889 1
      vertex 1.4142 13.5858 1
      vertex 5.7403 13.8582 1
    endloop
  endfacet
  facet normal 0 0 1
    outer loop
      vertex 1.4142 13.5858 1
      vertex 10.6066 10.6066 1
      vertex 9.13139 11.9003 1
    endloop
  endfacet
  facet normal 0 0 1
    outer loop
      vertex 13.5858 1.4142 1
      vertex 14.4889 3.88229 1
      vertex 13.8582 5.7403 1
    endloop
  endfacet
  facet normal 0 0 1
    outer loop
      vertex 14.8717 1.95789 1
      vertex 13.5858 1.4142 1
      vertex 13.8099 1.14719 1
    endloop
  endfacet
  facet normal 0 0 1
    outer loop
      vertex 14.8717 1.95789 1
      vertex 13.8099 1.14719 1
      vertex 13.9842 0.8452 1
    endloop
  endfacet
  facet normal 0 0 1
    outer loop
      vertex 14.8717 -1.95789 1
      vertex 13.9842 -0.8452 1
      vertex 13.8099 -1.14719 1
    endloop
  endfacet
  facet normal 0 0 1
    outer loop
      vertex 14.8717 1.95789 1
      vertex 13.9842 0.8452 1
      vertex 14.1034 0.517593 1
    endloop
  endfacet
  facet normal 0 0 1
    outer loop
      vertex 14.8717 1.95789 1
      vertex 14.1034 0.517593 1
      vertex 15 0 1
    endloop
  endfacet
  facet normal -0 0 1
    outer loop
      vertex 14.164 -0.174286 1
      vertex 14.1034 -0.517593 1
      vertex 15 0 1
    endloop
  endfacet
  facet normal 0 0 1
    outer loop
      vertex 14.1034 -0.517593 1
      vertex 13.9842 -0.8452 1
      vertex 14.8717 -1.95789 1
    endloop
  endfacet
  facet normal 0 -0 1
    outer loop
      vertex 13.8582 -5.7403 1
      vertex 14.4889 -3.88229 1
      vertex 13.5858 -1.4142 1
    endloop
  endfacet
  facet normal 0 0 1
    outer loop
      vertex 13.5858 -1.4142 1
      vertex 11.9003 -9.13139 1
      vertex 12.9904 -7.5 1
    endloop
  endfacet
  facet normal 0 0 1
    outer loop
      vertex 10.6066 -10.6066 1
      vertex 11.9003 -9.13139 1
      vertex 13.5858 -1.4142 1
    endloop
  endfacet
  facet normal 0 -0 1
    outer loop
      vertex 5.7403 -13.8582 1
      vertex 7.5 -12.9904 1
      vertex 1.4142 -13.5858 1
    endloop
  endfacet
  facet normal 0 0 1
    outer loop
      vertex 1.95789 -14.8717 1
      vertex 1.4142 -13.5858 1
      vertex 1.14719 -13.8099 1
    endloop
  endfacet
  facet normal -0 0 1
    outer loop
      vertex 0.517593 -14.1034 1
      vertex 1.95789 -14.8717 1
      vertex 0.8452 -13.9842 1
    endloop
  endfacet
  facet normal 0 0 1
    outer loop
      vertex 0 -15 1
      vertex 0.517593 -14.1034 1
      vertex 0.174286 -14.164 1
    endloop
  endfacet
  facet normal 0 0 1
    outer loop
      vertex 0 -15 1
      vertex 1.95789 -14.8717 1
      vertex 0.517593 -14.1034 1
    endloop
  endfacet
  facet normal 0.195097 -0.980784 0
    outer loop
      vertex 3.88229 -14.4889 0
      vertex 1.95789 -14.8717 1
      vertex 1.95789 -14.8717 0
    endloop
  endfacet
  facet normal 0.195097 -0.980784 0
    outer loop
      vertex 3.88229 -14.4889 0
      vertex 3.88229 -14.4889 1
      vertex 1.95789 -14.8717 1
    endloop
  endfacet
  facet normal 0.321435 -0.946932 0
    outer loop
      vertex 5.7403 -13.8582 0
      vertex 3.88229 -14.4889 1
      vertex 3.88229 -14.4889 0
    endloop
  endfacet
  facet normal 0.321435 -0.946932 0
    outer loop
      vertex 5.7403 -13.8582 0
      vertex 5.7403 -13.8582 1
      vertex 3.88229 -14.4889 1
    endloop
  endfacet
  facet normal 0.442294 -0.89687 0
    outer loop
      vertex 7.5 -12.9904 0
      vertex 5.7403 -13.8582 1
      vertex 5.7403 -13.8582 0
    endloop
  endfacet
  facet normal 0.442294 -0.89687 0
    outer loop
      vertex 7.5 -12.9904 0
      vertex 7.5 -12.9904 1
      vertex 5.7403 -13.8582 1
    endloop
  endfacet
  facet normal 0.555584 -0.83146 0
    outer loop
      vertex 9.13139 -11.9003 0
      vertex 7.5 -12.9904 1
      vertex 7.5 -12.9904 0
    endloop
  endfacet
  facet normal 0.555584 -0.83146 0
    outer loop
      vertex 9.13139 -11.9003 0
      vertex 9.13139 -11.9003 1
      vertex 7.5 -12.9904 1
    endloop
  endfacet
  facet normal 0.659339 -0.751846 0
    outer loop
      vertex 10.6066 -10.6066 0
      vertex 9.13139 -11.9003 1
      vertex 9.13139 -11.9003 0
    endloop
  endfacet
  facet normal 0.659339 -0.751846 0
    outer loop
      vertex 10.6066 -10.6066 0
      vertex 10.6066 -10.6066 1
      vertex 9.13139 -11.9003 1
    endloop
  endfacet
  facet normal 0.751846 -0.659339 0
    outer loop
      vertex 11.9003 -9.13139 0
      vertex 10.6066 -10.6066 1
      vertex 10.6066 -10.6066 0
    endloop
  endfacet
  facet normal 0.751846 -0.659339 0
    outer loop
      vertex 11.9003 -9.13139 0
      vertex 11.9003 -9.13139 1
      vertex 10.6066 -10.6066 1
    endloop
  endfacet
  facet normal 0.83146 -0.555584 0
    outer loop
      vertex 12.9904 -7.5 0
      vertex 11.9003 -9.13139 1
      vertex 11.9003 -9.13139 0
    endloop
  endfacet
  facet normal 0.83146 -0.555584 0
    outer loop
      vertex 12.9904 -7.5 0
      vertex 12.9904 -7.5 1
      vertex 11.9003 -9.13139 1
    endloop
  endfacet
  facet normal 0.89687 -0.442294 0
    outer loop
      vertex 13.8582 -5.7403 0
      vertex 12.9904 -7.5 1
      vertex 12.9904 -7.5 0
    endloop
  endfacet
  facet normal 0.89687 -0.442294 0
    outer loop
      vertex 13.8582 -5.7403 0
      vertex 13.8582 -5.7403 1
      vertex 12.9904 -7.5 1
    endloop
  endfacet
  facet normal 0.946932 -0.321435 0
    outer loop
      vertex 14.4889 -3.88229 0
      vertex 13.8582 -5.7403 1
      vertex 13.8582 -5.7403 0
    endloop
  endfacet
  facet normal 0.946932 -0.321435 0
    outer loop
      vertex 14.4889 -3.88229 0
      vertex 14.4889 -3.88229 1
      vertex 13.8582 -5.7403 1
    endloop
  endfacet
  facet normal 0.980784 -0.195097 0
    outer loop
      vertex 14.8717 -1.95789 0
      vertex 14.4889 -3.88229 1
      vertex 14.4889 -3.88229 0
    endloop
  endfacet
  facet normal 0.980784 -0.195097 0
    outer loop
      vertex 14.8717 -1.95789 0
      vertex 14.8717 -1.95789 1
      vertex 14.4889 -3.88229 1
    endloop
  endfacet
  facet normal 0.99786 -0.0653895 0
    outer loop
      vertex 15 0 0
      vertex 14.8717 -1.95789 1
      vertex 14.8717 -1.95789 0
    endloop
  endfacet
  facet normal 0.99786 -0.0653895 0
    outer loop
      vertex 15 0 0
      vertex 15 0 1
      vertex 14.8717 -1.95789 1
    endloop
  endfacet
  facet normal 0.99786 0.0653895 0
    outer loop
      vertex 14.8717 1.95789 0
      vertex 15 0 1
      vertex 15 0 0
    endloop
  endfacet
  facet normal 0.99786 0.0653895 -0
    outer loop
      vertex 14.8717 1.95789 0
      vertex 14.8717 1.95789 1
      vertex 15 0 1
    endloop
  endfacet
  facet normal 0.980784 0.195097 0
    outer loop
      vertex 14.4889 3.88229 0
      vertex 14.8717 1.95789 1
      vertex 14.8717 1.95789 0
    endloop
  endfacet
  facet normal 0.980784 0.195097 -0
    outer loop
      vertex 14.4889 3.88229 0
      vertex 14.4889 3.88229 1
      vertex 14.8717 1.95789 1
    endloop
  endfacet
  facet normal 0.946932 0.321435 0
    outer loop
      vertex 13.8582 5.7403 0
      vertex 14.4889 3.88229 1
      vertex 14.4889 3.88229 0
    endloop
  endfacet
  facet normal 0.946932 0.321435 -0
    outer loop
      vertex 13.8582 5.7403 0
      vertex 13.8582 5.7403 1
      vertex 14.4889 3.88229 1
    endloop
  endfacet
  facet normal 0.89687 0.442294 0
    outer loop
      vertex 12.9904 7.5 0
      vertex 13.8582 5.7403 1
      vertex 13.8582 5.7403 0
    endloop
  endfacet
  facet normal 0.89687 0.442294 -0
    outer loop
      vertex 12.9904 7.5 0
      vertex 12.9904 7.5 1
      vertex 13.8582 5.7403 1
    endloop
  endfacet
  facet normal 0.83146 0.555584 0
    outer loop
      vertex 11.9003 9.13139 0
      vertex 12.9904 7.5 1
      vertex 12.9904 7.5 0
    endloop
  endfacet
  facet normal 0.83146 0.555584 -0
    outer loop
      vertex 11.9003 9.13139 0
      vertex 11.9003 9.13139 1
      vertex 12.9904 7.5 1
    endloop
  endfacet
  facet normal 0.751846 0.659339 0
    outer loop
      vertex 10.6066 10.6066 0
      vertex 11.9003 9.13139 1
      vertex 11.9003 9.13139 0
    endloop
  endfacet
  facet normal 0.751846 0.659339 -0
    outer loop
      vertex 10.6066 10.6066 0
      vertex 10.6066 10.6066 1
      vertex 11.9003 9.13139 1
    endloop
  endfacet
  facet normal 0.659339 0.751846 0
    outer loop
      vertex 9.13139 11.9003 0
      vertex 10.6066 10.6066 1
      vertex 10.6066 10.6066 0
    endloop
  endfacet
  facet normal 0.659339 0.751846 -0
    outer loop
      vertex 9.13139 11.9003 0
      vertex 9.13139 11.9003 1
      vertex 10.6066 10.6066 1
    endloop
  endfacet
  facet normal 0.555584 0.83146 0
    outer loop
      vertex 7.5 12.9904 0
      vertex 9.13139 11.9003 1
      vertex 9.13139 11.9003 0
    endloop
  endfacet
  facet normal 0.555584 0.83146 -0
    outer loop
      vertex 7.5 12.9904 0
      vertex 7.5 12.9904 1
      vertex 9.13139 11.9003 1
    endloop
  endfacet
  facet normal 0.442294 0.89687 0
    outer loop
      vertex 5.7403 13.8582 0
      vertex 7.5 12.9904 1
      vertex 7.5 12.9904 0
    endloop
  endfacet
  facet normal 0.442294 0.89687 -0
    outer loop
      vertex 5.7403 13.8582 0
      vertex 5.7403 13.8582 1
      vertex 7.5 12.9904 1
    endloop
  endfacet
  facet normal 0.321435 0.946932 0
    outer loop
      vertex 3.88229 14.4889 0
      vertex 5.7403 13.8582 1
      vertex 5.7403 13.8582 0
    endloop
  endfacet
  facet normal 0.321435 0.946932 -0
    outer loop
      vertex 3.88229 14.4889 0
      vertex 3.88229 14.4889 1
      vertex 5.7403 13.8582 1
    endloop
  endfacet
  facet normal 0.195097 0.980784 0
    outer loop
      vertex 1.95789 14.8717 0
      vertex 3.88229 14.4889 1
      vertex 3.88229 14.4889 0
    endloop
  endfacet
  facet normal 0.195097 0.980784 -0
    outer loop
      vertex 1.95789 14.8717 0
      vertex 1.95789 14.8717 1
      vertex 3.88229 14.4889 1
    endloop
  endfacet
  facet normal 0.0653895 0.99786 0
    outer loop
      vertex 0 15 0
      vertex 1.95789 14.8717 1
      vertex 1.95789 14.8717 0
    endloop
  endfacet
  facet normal 0.0653895 0.99786 -0
    outer loop
      vertex 0 15 0
      vertex 0 15 1
      vertex 1.95789 14.8717 1
    endloop
  endfacet
  facet normal -0.0653895 0.99786 0
    outer loop
      vertex -1.95789 14.8717 0
      vertex 0 15 1
      vertex 0 15 0
    endloop
  endfacet
  facet normal -0.0653895 0.99786 0
    outer loop
      vertex -1.95789 14.8717 0
      vertex -1.95789 14.8717 1
      vertex 0 15 1
    endloop
  endfacet
  facet normal -0.195097 0.980784 0
    outer loop
      vertex -3.88229 14.4889 0
      vertex -1.95789 14.8717 1
      vertex -1.95789 14.8717 0
    endloop
  endfacet
  facet normal -0.195097 0.980784 0
    outer loop
      vertex -3.88229 14.4889 0
      vertex -3.88229 14.4889 1
      vertex -1.95789 14.8717 1
    endloop
  endfacet
  facet normal -0.321435 0.946932 0
    outer loop
      vertex -5.7403 13.8582 0
      vertex -3.88229 14.4889 1
      vertex -3.88229 14.4889 0
    endloop
  endfacet
  facet normal -0.321435 0.946932 0
    outer loop
      vertex -5.7403 13.8582 0
      vertex -5.7403 13.8582 1
      vertex -3.88229 14.4889 1
    endloop
  endfacet
  facet normal -0.442294 0.89687 0
    outer loop
      vertex -7.5 12.9904 0
      vertex -5.7403 13.8582 1
      vertex -5.7403 13.8582 0
    endloop
  endfacet
  facet normal -0.442294 0.89687 0
    outer loop
      vertex -7.5 12.9904 0
      vertex -7.5 12.9904 1
      vertex -5.7403 13.8582 1
    endloop
  endfacet
  facet normal -0.555584 0.83146 0
    outer loop
      vertex -9.13139 11.9003 0
      vertex -7.5 12.9904 1
      vertex -7.5 12.9904 0
    endloop
  endfacet
  facet normal -0.555584 0.83146 0
    outer loop
      vertex -9.13139 11.9003 0
      vertex -9.13139 11.9003 1
      vertex -7.5 12.9904 1
    endloop
  endfacet
  facet normal -0.659339 0.751846 0
    outer loop
      vertex -10.6066 10.6066 0
      vertex -9.13139 11.9003 1
      vertex -9.13139 11.9003 0
    endloop
  endfacet
  facet normal -0.659339 0.751846 0
    outer loop
      vertex -10.6066 10.6066 0
      vertex -10.6066 10.6066 1
      vertex -9.13139 11.9003 1
    endloop
  endfacet
  facet normal -0.751846 0.659339 0
    outer loop
      vertex -11.9003 9.13139 0
      vertex -10.6066 10.6066 1
      vertex -10.6066 10.6066 0
    endloop
  endfacet
  facet normal -0.751846 0.659339 0
    outer loop
      vertex -11.9003 9.13139 0
      vertex -11.9003 9.13139 1
      vertex -10.6066 10.6066 1
    endloop
  endfacet
  facet normal -0.83146 0.555584 0
    outer loop
      vertex -12.9904 7.5 0
      vertex -11.9003 9.13139 1
      vertex -11.9003 9.13139 0
    endloop
  endfacet
  facet normal -0.83146 0.555584 0
    outer loop
      vertex -12.9904 7.5 0
      vertex -12.9904 7.5 1
      vertex -11.9003 9.13139 1
    endloop
  endfacet
  facet normal -0.89687 0.442294 0
    outer loop
      vertex -13.8582 5.7403 0
      vertex -12.9904 7.5 1
      vertex -12.9904 7.5 0
    endloop
  endfacet
  facet normal -0.89687 0.442294 0
    outer loop
      vertex -13.8582 5.7403 0
      vertex -13.8582 5.7403 1
      vertex -12.9904 7.5 1
    endloop
  endfacet
  facet normal -0.946932 0.321435 0
    outer loop
      vertex -14.4889 3.88229 0
      vertex -13.8582 5.7403 1
      vertex -13.8582 5.7403 0
    endloop
  endfacet
  facet normal -0.946932 0.321435 0
    outer loop
      vertex -14.4889 3.88229 0
      vertex -14.4889 3.88229 1
      vertex -13.8582 5.7403 1
    endloop
  endfacet
  facet normal -0.980784 0.195097 0
    outer loop
      vertex -14.8717 1.95789 0
      vertex -14.4889 3.88229 1
      vertex -14.4889 3.88229 0
    endloop
  endfacet
  facet normal -0.980784 0.195097 0
    outer loop
      vertex -14.8717 1.95789 0
      vertex -14.8717 1.95789 1
      vertex -14.4889 3.88229 1
    endloop
  endfacet
  facet normal -0.99786 0.0653895 0
    outer loop
      vertex -15 0 0
      vertex -14.8717 1.95789 1
      vertex -14.8717 1.95789 0
    endloop
  endfacet
  facet normal -0.99786 0.0653895 0
    outer loop
      vertex -15 0 0
      vertex -15 0 1
      vertex -14.8717 1.95789 1
    endloop
  endfacet
  facet normal -0.99786 -0.0653895 0
    outer loop
      vertex -14.8717 -1.95789 0
      vertex -15 0 1
      vertex -15 0 0
    endloop
  endfacet
  facet normal -0.99786 -0.0653895 0
    outer loop
      vertex -14.8717 -1.95789 0
      vertex -14.8717 -1.95789 1
      vertex -15 0 1
    endloop
  endfacet
  facet normal -0.980784 -0.195097 0
    outer loop
      vertex -14.4889 -3.88229 0
      vertex -14.8717 -1.95789 1
      vertex -14.8717 -1.95789 0
    endloop
  endfacet
  facet normal -0.980784 -0.195097 0
    outer loop
      vertex -14.4889 -3.88229 0
      vertex -14.4889 -3.88229 1
      vertex -14.8717 -1.95789 1
    endloop
  endfacet
  facet normal -0.946932 -0.321435 0
    outer loop
      vertex -13.8582 -5.7403 0
      vertex -14.4889 -3.88229 1
      vertex -14.4889 -3.88229 0
    endloop
  endfacet
  facet normal -0.946932 -0.321435 0
    outer loop
      vertex -13.8582 -5.7403 0
      vertex -13.8582 -5.7403 1
      vertex -14.4889 -3.88229 1
    endloop
  endfacet
  facet normal -0.89687 -0.442294 0
    outer loop
      vertex -12.9904 -7.5 0
      vertex -13.8582 -5.7403 1
      vertex -13.8582 -5.7403 0
    endloop
  endfacet
  facet normal -0.89687 -0.442294 0
    outer loop
      vertex -12.9904 -7.5 0
      vertex -12.9904 -7.5 1
      vertex -13.8582 -5.7403 1
    endloop
  endfacet
  facet normal -0.83146 -0.555584 0
    outer loop
      vertex -11.9003 -9.13139 0
      vertex -12.9904 -7.5 1
      vertex -12.9904 -7.5 0
    endloop
  endfacet
  facet normal -0.83146 -0.555584 0
    outer loop
      vertex -11.9003 -9.13139 0
      vertex -11.9003 -9.13139 1
      vertex -12.9904 -7.5 1
    endloop
  endfacet
  facet normal -0.751846 -0.659339 0
    outer loop
      vertex -10.6066 -10.6066 0
      vertex -11.9003 -9.13139 1
      vertex -11.9003 -9.13139 0
    endloop
  endfacet
  facet normal -0.751846 -0.659339 0
    outer loop
      vertex -10.6066 -10.6066 0
      vertex -10.6066 -10.6066 1
      vertex -11.9003 -9.13139 1
    endloop
  endfacet
  facet normal -0.659339 -0.751846 0
    outer loop
      vertex -9.13139 -11.9003 0
      vertex -10.6066 -10.6066 1
      vertex -10.6066 -10.6066 0
    endloop
  endfacet
  facet normal -0.659339 -0.751846 0
    outer loop
      vertex -9.13139 -11.9003 0
      vertex -9.13139 -11.9003 1
      vertex -10.6066 -10.6066 1
    endloop
  endfacet
  facet normal -0.555584 -0.83146 0
    outer loop
      vertex -7.5 -12.9904 0
      vertex -9.13139 -11.9003 1
      vertex -9.13139 -11.9003 0
    endloop
  endfacet
  facet normal -0.555584 -0.83146 0
    outer loop
      vertex -7.5 -12.9904 0
      vertex -7.5 -12.9904 1
      vertex -9.13139 -11.9003 1
    endloop
  endfacet
  facet normal -0.442294 -0.89687 0
    outer loop
      vertex -5.7403 -13.8582 0
      vertex -7.5 -12.9904 1
      vertex -7.5 -12.9904 0
    endloop
  endfacet
  facet normal -0.442294 -0.89687 0
    outer loop
      vertex -5.7403 -13.8582 0
      vertex -5.7403 -13.8582 1
      vertex -7.5 -12.9904 1
    endloop
  endfacet
  facet normal -0.321435 -0.946932 0
    outer loop
      vertex -3.88229 -14.4889 0
      vertex -5.7403 -13.8582 1
      vertex -5.7403 -13.8582 0
    endloop
  endfacet
  facet normal -0.321435 -0.946932 0
    outer loop
      vertex -3.88229 -14.4889 0
      vertex -3.88229 -14.4889 1
      vertex -5.7403 -13.8582 1
    endloop
  endfacet
  facet normal -0.195097 -0.980784 0
    outer loop
      vertex -1.95789 -14.8717 0
      vertex -3.88229 -14.4889 1
      vertex -3.88229 -14.4889 0
    endloop
  endfacet
  facet normal -0.195097 -0.980784 0
    outer loop
      vertex -1.95789 -14.8717 0
      vertex -1.95789 -14.8717 1
      vertex -3.88229 -14.4889 1
    endloop
  endfacet
  facet normal -0.0653895 -0.99786 0
    outer loop
      vertex 0 -15 0
      vertex -1.95789 -14.8717 1
      vertex -1.95789 -14.8717 0
    endloop
  endfacet
  facet normal -0.0653895 -0.99786 0
    outer loop
      vertex 0 -15 0
      vertex 0 -15 1
      vertex -1.95789 -14.8717 1
    endloop
  endfacet
  facet normal 0.0653895 -0.99786 0
    outer loop
      vertex 1.95789 -14.8717 0
      vertex 0 -15 1
      vertex 0 -15 0
    endloop
  endfacet
  facet normal 0.0653895 -0.99786 0
    outer loop
      vertex 1.95789 -14.8717 0
      vertex 1.95789 -14.8717 1
      vertex 0 -15 1
    endloop
  endfacet
  facet normal 0.173831 0.984776 -0
    outer loop
      vertex -0.517593 -14.1034 0
      vertex -0.517593 -14.1034 1
      vertex -0.174286 -14.164 0
    endloop
  endfacet
  facet normal 0.173831 0.984776 0
    outer loop
      vertex -0.174286 -14.164 1
      vertex -0.174286 -14.164 0
      vertex -0.517593 -14.1034 1
    endloop
  endfacet
  facet normal 0.341921 0.939729 -0
    outer loop
      vertex -0.8452 -13.9842 0
      vertex -0.8452 -13.9842 1
      vertex -0.517593 -14.1034 0
    endloop
  endfacet
  facet normal 0.341921 0.939729 0
    outer loop
      vertex -0.517593 -14.1034 1
      vertex -0.517593 -14.1034 0
      vertex -0.8452 -13.9842 1
    endloop
  endfacet
  facet normal 0.499884 0.866092 -0
    outer loop
      vertex -1.14719 -13.8099 0
      vertex -1.14719 -13.8099 1
      vertex -0.8452 -13.9842 0
    endloop
  endfacet
  facet normal 0.499884 0.866092 0
    outer loop
      vertex -0.8452 -13.9842 1
      vertex -0.8452 -13.9842 0
      vertex -1.14719 -13.8099 1
    endloop
  endfacet
  facet normal 0.642875 0.765971 -0
    outer loop
      vertex -1.4142 -13.5858 0
      vertex -1.4142 -13.5858 1
      vertex -1.14719 -13.8099 0
    endloop
  endfacet
  facet normal 0.642875 0.765971 0
    outer loop
      vertex -1.14719 -13.8099 1
      vertex -1.14719 -13.8099 0
      vertex -1.4142 -13.5858 1
    endloop
  endfacet
  facet normal 0.707107 0.707107 -0
    outer loop
      vertex -13.5858 -1.4142 0
      vertex -13.5858 -1.4142 1
      vertex -1.4142 -13.5858 0
    endloop
  endfacet
  facet normal 0.707107 0.707107 0
    outer loop
      vertex -1.4142 -13.5858 1
      vertex -1.4142 -13.5858 0
      vertex -13.5858 -1.4142 1
    endloop
  endfacet
  facet normal 0.77307 0.634321 -0
    outer loop
      vertex -13.8345 -1.1111 0
      vertex -13.8345 -1.1111 1
      vertex -13.5858 -1.4142 0
    endloop
  endfacet
  facet normal 0.77307 0.634321 0
    outer loop
      vertex -13.5858 -1.4142 1
      vertex -13.5858 -1.4142 0
      vertex -13.8345 -1.1111 1
    endloop
  endfacet
  facet normal 0.881903 0.471431 -0
    outer loop
      vertex -14.0193 -0.765396 0
      vertex -14.0193 -0.765396 1
      vertex -13.8345 -1.1111 0
    endloop
  endfacet
  facet normal 0.881903 0.471431 0
    outer loop
      vertex -13.8345 -1.1111 1
      vertex -13.8345 -1.1111 0
      vertex -14.0193 -0.765396 1
    endloop
  endfacet
  facet normal 0.956951 0.290249 -0
    outer loop
      vertex -14.1331 -0.390198 0
      vertex -14.1331 -0.390198 1
      vertex -14.0193 -0.765396 0
    endloop
  endfacet
  facet normal 0.956951 0.290249 0
    outer loop
      vertex -14.0193 -0.765396 1
      vertex -14.0193 -0.765396 0
      vertex -14.1331 -0.390198 1
    endloop
  endfacet
  facet normal 0.995168 0.0981911 -0
    outer loop
      vertex -14.1716 0 0
      vertex -14.1716 0 1
      vertex -14.1331 -0.390198 0
    endloop
  endfacet
  facet normal 0.995168 0.0981911 0
    outer loop
      vertex -14.1331 -0.390198 1
      vertex -14.1331 -0.390198 0
      vertex -14.1716 0 1
    endloop
  endfacet
  facet normal 0.995168 -0.0981911 0
    outer loop
      vertex -14.1331 0.390198 0
      vertex -14.1331 0.390198 1
      vertex -14.1716 0 0
    endloop
  endfacet
  facet normal 0.995168 -0.0981911 0
    outer loop
      vertex -14.1716 0 1
      vertex -14.1716 0 0
      vertex -14.1331 0.390198 1
    endloop
  endfacet
  facet normal 0.956951 -0.290249 0
    outer loop
      vertex -14.0193 0.765396 0
      vertex -14.0193 0.765396 1
      vertex -14.1331 0.390198 0
    endloop
  endfacet
  facet normal 0.956951 -0.290249 0
    outer loop
      vertex -14.1331 0.390198 1
      vertex -14.1331 0.390198 0
      vertex -14.0193 0.765396 1
    endloop
  endfacet
  facet normal 0.881903 -0.471431 0
    outer loop
      vertex -13.8345 1.1111 0
      vertex -13.8345 1.1111 1
      vertex -14.0193 0.765396 0
    endloop
  endfacet
  facet normal 0.881903 -0.471431 0
    outer loop
      vertex -14.0193 0.765396 1
      vertex -14.0193 0.765396 0
      vertex -13.8345 1.1111 1
    endloop
  endfacet
  facet normal 0.77307 -0.634321 0
    outer loop
      vertex -13.5858 1.4142 0
      vertex -13.5858 1.4142 1
      vertex -13.8345 1.1111 0
    endloop
  endfacet
  facet normal 0.77307 -0.634321 0
    outer loop
      vertex -13.8345 1.1111 1
      vertex -13.8345 1.1111 0
      vertex -13.5858 1.4142 1
    endloop
  endfacet
  facet normal 0.707107 -0.707107 0
    outer loop
      vertex -1.4142 13.5858 0
      vertex -1.4142 13.5858 1
      vertex -13.5858 1.4142 0
    endloop
  endfacet
  facet normal 0.707107 -0.707107 0
    outer loop
      vertex -13.5858 1.4142 1
      vertex -13.5858 1.4142 0
      vertex -1.4142 13.5858 1
    endloop
  endfacet
  facet normal 0.642875 -0.765971 0
    outer loop
      vertex -1.14719 13.8099 0
      vertex -1.14719 13.8099 1
      vertex -1.4142 13.5858 0
    endloop
  endfacet
  facet normal 0.642875 -0.765971 0
    outer loop
      vertex -1.4142 13.5858 1
      vertex -1.4142 13.5858 0
      vertex -1.14719 13.8099 1
    endloop
  endfacet
  facet normal 0.499884 -0.866092 0
    outer loop
      vertex -0.8452 13.9842 0
      vertex -0.8452 13.9842 1
      vertex -1.14719 13.8099 0
    endloop
  endfacet
  facet normal 0.499884 -0.866092 0
    outer loop
      vertex -1.14719 13.8099 1
      vertex -1.14719 13.8099 0
      vertex -0.8452 13.9842 1
    endloop
  endfacet
  facet normal 0.341921 -0.939729 0
    outer loop
      vertex -0.517593 14.1034 0
      vertex -0.517593 14.1034 1
      vertex -0.8452 13.9842 0
    endloop
  endfacet
  facet normal 0.341921 -0.939729 0
    outer loop
      vertex -0.8452 13.9842 1
      vertex -0.8452 13.9842 0
      vertex -0.517593 14.1034 1
    endloop
  endfacet
  facet normal 0.173831 -0.984776 0
    outer loop
      vertex -0.174286 14.164 0
      vertex -0.174286 14.164 1
      vertex -0.517593 14.1034 0
    endloop
  endfacet
  facet normal 0.173831 -0.984776 0
    outer loop
      vertex -0.517593 14.1034 1
      vertex -0.517593 14.1034 0
      vertex -0.174286 14.164 1
    endloop
  endfacet
  facet normal 0 -1 0
    outer loop
      vertex 0.174286 14.164 0
      vertex 0.174286 14.164 1
      vertex -0.174286 14.164 0
    endloop
  endfacet
  facet normal 0 -1 0
    outer loop
      vertex -0.174286 14.164 1
      vertex -0.174286 14.164 0
      vertex 0.174286 14.164 1
    endloop
  endfacet
  facet normal -0.173831 -0.984776 0
    outer loop
      vertex 0.517593 14.1034 0
      vertex 0.517593 14.1034 1
      vertex 0.174286 14.164 0
    endloop
  endfacet
  facet normal -0.173831 -0.984776 -0
    outer loop
      vertex 0.174286 14.164 1
      vertex 0.174286 14.164 0
      vertex 0.517593 14.1034 1
    endloop
  endfacet
  facet normal -0.341921 -0.939729 0
    outer loop
      vertex 0.8452 13.9842 0
      vertex 0.8452 13.9842 1
      vertex 0.517593 14.1034 0
    endloop
  endfacet
  facet normal -0.341921 -0.939729 -0
    outer loop
      vertex 0.517593 14.1034 1
      vertex 0.517593 14.1034 0
      vertex 0.8452 13.9842 1
    endloop
  endfacet
  facet normal -0.499884 -0.866092 0
    outer loop
      vertex 1.14719 13.8099 0
      vertex 1.14719 13.8099 1
      vertex 0.8452 13.9842 0
    endloop
  endfacet
  facet normal -0.499884 -0.866092 -0
    outer loop
      vertex 0.8452 13.9842 1
      vertex 0.8452 13.9842 0
      vertex 1.14719 13.8099 1
    endloop
  endfacet
  facet normal -0.642875 -0.765971 0
    outer loop
      vertex 1.4142 13.5858 0
      vertex 1.4142 13.5858 1
      vertex 1.14719 13.8099 0
    endloop
  endfacet
  facet normal -0.642875 -0.765971 -0
    outer loop
      vertex 1.14719 13.8099 1
      vertex 1.14719 13.8099 0
      vertex 1.4142 13.5858 1
    endloop
  endfacet
  facet normal -0.707107 -0.707107 0
    outer loop
      vertex 13.5858 1.4142 0
      vertex 13.5858 1.4142 1
      vertex 1.4142 13.5858 0
    endloop
  endfacet
  facet normal -0.707107 -0.707107 -0
    outer loop
      vertex 1.4142 13.5858 1
      vertex 1.4142 13.5858 0
      vertex 13.5858 1.4142 1
    endloop
  endfacet
  facet normal -0.765971 -0.642875 0
    outer loop
      vertex 13.8099 1.14719 0
      vertex 13.8099 1.14719 1
      vertex 13.5858 1.4142 0
    endloop
  endfacet
  facet normal -0.765971 -0.642875 -0
    outer loop
      vertex 13.5858 1.4142 1
      vertex 13.5858 1.4142 0
      vertex 13.8099 1.14719 1
    endloop
  endfacet
  facet normal -0.866092 -0.499884 0
    outer loop
      vertex 13.9842 0.8452 0
      vertex 13.9842 0.8452 1
      vertex 13.8099 1.14719 0
    endloop
  endfacet
  facet normal -0.866092 -0.499884 -0
    outer loop
      vertex 13.8099 1.14719 1
      vertex 13.8099 1.14719 0
      vertex 13.9842 0.8452 1
    endloop
  endfacet
  facet normal -0.939729 -0.341921 0
    outer loop
      vertex 14.1034 0.517593 0
      vertex 14.1034 0.517593 1
      vertex 13.9842 0.8452 0
    endloop
  endfacet
  facet normal -0.939729 -0.341921 -0
    outer loop
      vertex 13.9842 0.8452 1
      vertex 13.9842 0.8452 0
      vertex 14.1034 0.517593 1
    endloop
  endfacet
  facet normal -0.984776 -0.173831 0
    outer loop
      vertex 14.164 0.174286 0
      vertex 14.164 0.174286 1
      vertex 14.1034 0.517593 0
    endloop
  endfacet
  facet normal -0.984776 -0.173831 -0
    outer loop
      vertex 14.1034 0.517593 1
      vertex 14.1034 0.517593 0
      vertex 14.164 0.174286 1
    endloop
  endfacet
  facet normal -1 0 0
    outer loop
      vertex 14.164 -0.174286 0
      vertex 14.164 -0.174286 1
      vertex 14.164 0.174286 0
    endloop
  endfacet
  facet normal -1 -0 -0
    outer loop
      vertex 14.164 0.174286 1
      vertex 14.164 0.174286 0
      vertex 14.164 -0.174286 1
    endloop
  endfacet
  facet normal -0.984776 0.173831 0
    outer loop
      vertex 14.1034 -0.517593 0
      vertex 14.1034 -0.517593 1
      vertex 14.164 -0.174286 0
    endloop
  endfacet
  facet normal -0.984776 0.173831 0
    outer loop
      vertex 14.164 -0.174286 1
      vertex 14.164 -0.174286 0
      vertex 14.1034 -0.517593 1
    endloop
  endfacet
  facet normal -0.939729 0.341921 0
    outer loop
      vertex 13.9842 -0.8452 0
      vertex 13.9842 -0.8452 1
      vertex 14.1034 -0.517593 0
    endloop
  endfacet
  facet normal -0.939729 0.341921 0
    outer loop
      vertex 14.1034 -0.517593 1
      vertex 14.1034 -0.517593 0
      vertex 13.9842 -0.8452 1
    endloop
  endfacet
  facet normal -0.866092 0.499884 0
    outer loop
      vertex 13.8099 -1.14719 0
      vertex 13.8099 -1.14719 1
      vertex 13.9842 -0.8452 0
    endloop
  endfacet
  facet normal -0.866092 0.499884 0
    outer loop
      vertex 13.9842 -0.8452 1
      vertex 13.9842 -0.8452 0
      vertex 13.8099 -1.14719 1
    endloop
  endfacet
  facet normal -0.765971 0.642875 0
    outer loop
      vertex 13.5858 -1.4142 0
      vertex 13.5858 -1.4142 1
      vertex 13.8099 -1.14719 0
    endloop
  endfacet
  facet normal -0.765971 0.642875 0
    outer loop
      vertex 13.8099 -1.14719 1
      vertex 13.8099 -1.14719 0
      vertex 13.5858 -1.4142 1
    endloop
  endfacet
  facet normal -0.707107 0.707107 0
    outer loop
      vertex 1.4142 -13.5858 0
      vertex 1.4142 -13.5858 1
      vertex 13.5858 -1.4142 0
    endloop
  endfacet
  facet normal -0.707107 0.707107 0
    outer loop
      vertex 13.5858 -1.4142 1
      vertex 13.5858 -1.4142 0
      vertex 1.4142 -13.5858 1
    endloop
  endfacet
  facet normal -0.642875 0.765971 0
    outer loop
      vertex 1.14719 -13.8099 0
      vertex 1.14719 -13.8099 1
      vertex 1.4142 -13.5858 0
    endloop
  endfacet
  facet normal -0.642875 0.765971 0
    outer loop
      vertex 1.4142 -13.5858 1
      vertex 1.4142 -13.5858 0
      vertex 1.14719 -13.8099 1
    endloop
  endfacet
  facet normal -0.499884 0.866092 0
    outer loop
      vertex 0.8452 -13.9842 0
      vertex 0.8452 -13.9842 1
      vertex 1.14719 -13.8099 0
    endloop
  endfacet
  facet normal -0.499884 0.866092 0
    outer loop
      vertex 1.14719 -13.8099 1
      vertex 1.14719 -13.8099 0
      vertex 0.8452 -13.9842 1
    endloop
  endfacet
  facet normal -0.341921 0.939729 0
    outer loop
      vertex 0.517593 -14.1034 0
      vertex 0.517593 -14.1034 1
      vertex 0.8452 -13.9842 0
    endloop
  endfacet
  facet normal -0.341921 0.939729 0
    outer loop
      vertex 0.8452 -13.9842 1
      vertex 0.8452 -13.9842 0
      vertex 0.517593 -14.1034 1
    endloop
  endfacet
  facet normal -0.173831 0.984776 0
    outer loop
      vertex 0.174286 -14.164 0
      vertex 0.174286 -14.164 1
      vertex 0.517593 -14.1034 0
    endloop
  endfacet
  facet normal -0.173831 0.984776 0
    outer loop
      vertex 0.517593 -14.1034 1
      vertex 0.517593 -14.1034 0
      vertex 0.174286 -14.164 1
    endloop
  endfacet
  facet normal 0 1 0
    outer loop
      vertex -0.174286 -14.164 0
      vertex -0.174286 -14.164 1
      vertex 0.174286 -14.164 0
    endloop
  endfacet
  facet normal 0 1 0
    outer loop
      vertex 0.174286 -14.164 1
      vertex 0.174286 -14.164 0
      vertex -0.174286 -14.164 1
    endloop
  endfacet
endsolid OpenSCAD_Model
